<?xml version="1.0" encoding="UTF-8" standalone="no"?>
<!-- Created with Inkscape (http://www.inkscape.org/) -->

<svg
   width="30cm"
   height="10cm"
   viewBox="0 0 300 99.999997"
   version="1.1"
   id="svg218"
   inkscape:version="1.1.1 (3bf5ae0d25, 2021-09-20)"
   sodipodi:docname="Logo Agrosan V3.svg"
   xmlns:inkscape="http://www.inkscape.org/namespaces/inkscape"
   xmlns:sodipodi="http://sodipodi.sourceforge.net/DTD/sodipodi-0.dtd"
   xmlns="http://www.w3.org/2000/svg"
   xmlns:svg="http://www.w3.org/2000/svg">
  <sodipodi:namedview
     id="namedview220"
     pagecolor="#ffffff"
     bordercolor="#666666"
     borderopacity="1.0"
     inkscape:pageshadow="2"
     inkscape:pageopacity="0.0"
     inkscape:pagecheckerboard="0"
     inkscape:document-units="cm"
     showgrid="false"
     units="cm"
     inkscape:zoom="0.17961021"
     inkscape:cx="785.03331"
     inkscape:cy="322.9215"
     inkscape:window-width="771"
     inkscape:window-height="688"
     inkscape:window-x="-7"
     inkscape:window-y="0"
     inkscape:window-maximized="0"
     inkscape:current-layer="layer1" />
  <defs
     id="defs215">
    <linearGradient
       id="linearGradient2249"
       gradientTransform="matrix(0.12445216,0,0,0.12445216,6.4081799,208.67175)"
       inkscape:swatch="solid">
      <stop
         style="stop-color:#6bb93c;stop-opacity:1;"
         offset="0"
         id="stop2247" />
    </linearGradient>
    <linearGradient
       id="linearGradient2243"
       gradientTransform="matrix(1.1420755e-8,0,0,0,7.8005952,3.7169904)"
       inkscape:swatch="solid">
      <stop
         style="stop-color:#006f4a;stop-opacity:1;"
         offset="0"
         id="stop2241" />
    </linearGradient>
    <linearGradient
       id="linearGradient2243-1"
       gradientTransform="matrix(0.56256531,0,0,0.14559641,333.98755,13348.376)"
       inkscape:swatch="solid">
      <stop
         style="stop-color:#007a53;stop-opacity:1;"
         offset="0"
         id="stop2241-4" />
    </linearGradient>
  </defs>
  <g
     inkscape:label="Capa 1"
     inkscape:groupmode="layer"
     id="layer1">
    <g
       id="g931"
       transform="matrix(0.35277776,0,0,0.35277776,0.40854515,-6.556808)">
      <path
         fill="#70a83b"
         stroke="#70a83b"
         stroke-width="0.0668715"
         opacity="1"
         d="m 363.98304,246.13229 c 156.75508,-0.0666 313.51015,-0.39979 470.2652,-0.57008 0.06,5.3528 -0.12,10.71299 0.1,16.07318 -110.46354,0.4072 -220.93711,0.28134 -331.40069,0.68113 -46.3215,0.0297 -92.643,0.0592 -138.9645,0.18509 -0.01,-5.45644 -0.01,-10.91288 0,-16.36932 z"
         id="path7-2-6-9-5-1"
         style="fill:#6cc24a;fill-opacity:1;stroke:#6cc24a;stroke-width:0.0683891;stroke-miterlimit:4;stroke-dasharray:none;stroke-opacity:1" />
      <path
         id="path3-5-7-3-0"
         style="fill:#6cc24a;fill-opacity:1;stroke:#6cc24a;stroke-width:0.75;stroke-opacity:1"
         d="m 148.24445,25.780576 c -24.91561,0.0635 -49.820934,6.88955 -70.964364,20.21924 -27.65999,17.12 -48.88889,44.4895 -58.10889,75.729514 -8.730001,28.87999 -7.291172,60.70993 4.04883,88.66994 12.19,30.47 36.02119,56.04001 65.47119,70.50001 24.040004,11.89 51.720054,16.4811 78.290054,12.6211 29.05,-3.88 56.60994,-17.7208 77.18994,-38.57081 19.91,-19.91001 33.32955,-46.23009 37.53955,-74.0801 4.61001,-29.2 -0.82953,-59.88019 -15.26953,-85.680184 -14.37999,-25.83001 -37.40119,-46.9499 -64.72119,-58.3799 -0.58,3.18 -1.17885,6.35982 -1.56885,9.56982 27.23,12.41 49.66946,34.91021 61.93946,62.200214 12.1,26.47001 14.39962,57.17997 6.61963,85.20997 -8.11,29.56001 -27.55923,55.76994 -53.44923,72.16995 -25.36,16.28 -56.74974,22.73039 -86.46972,17.90039 -27.77001,-4.29 -53.801364,-18.49934 -72.631364,-39.31935 -20.51,-22.38 -32.40953,-52.48036 -32.51953,-82.86036 -0.48,-26.52 7.99074,-53.06031 23.51074,-74.550314 16.8,-23.43 41.89911,-40.76925 69.829114,-47.96925 25.07,-6.49 52.19059,-5.04088 76.35059,4.34912 1.76,-2.68 3.32914,-5.4693 4.86914,-8.27929 -15.85594,-6.37 -32.90807,-9.49318 -49.95557,-9.44971 z" />
      <path
         fill="#70a83b"
         stroke="#70a83b"
         stroke-width="0.09375"
         opacity="1"
         d="m 332.23064,106.01981 c 26.33,-15.570004 61.63349,-23.960244 87.05349,-41.270244 l -2.36349,3.50024 c -15.95,23.06 -32.27,45.870004 -48.39,68.820004 -4.5,-3.1 -10.46,-4.67 -15.66,-2.45 -6.77,2.5 -11.07,9.93 -10.27,17.03 0.49,5.1 3.61,9.75 7.91,12.45 -1.54,0.43 -2.37,1.85 -3.25,3.06 -5.91,8.67 -12.12,17.14 -18.04,25.81 -10.37,-7.44 -18.56,-18.19 -21.71,-30.67 -3.01,-11.72 -2.52,-24.76 3.34,-35.55 4.84,-8.87 12.8,-15.62 21.38,-20.73 z"
         id="path5-6-9-3-6"
         style="fill:#6cc24a;fill-opacity:1;stroke:#6cc24a;stroke-opacity:1"
         sodipodi:nodetypes="cccccccccccc" />
      <path
         id="path13-2-7-5-4"
         style="fill:url(#linearGradient2243-1);stroke:#007a53;stroke-width:0.999998;stroke-opacity:1"
         d="m 198.25275,35.249366 c -1.53999,2.81 -3.10914,5.59929 -4.86914,8.27929 -2.2,3.29 -4.66345,6.41157 -7.29346,9.35157 -24.07,-8.32 -50.93878,-8.46006 -75.00879,-0.0601 -25.910004,8.92 -48.260694,27.60022 -61.700694,51.470224 -13.48,23.49999 -17.79951,51.9092 -12.49951,78.4292 4.83,24.64 18.26982,47.43051 37.31983,63.77051 18.64,16.09 42.640044,26.01902 67.270024,27.24902 1.34,-15.93 1.33979,-31.92892 1.02979,-47.89892 -1.15,-9.34 -4.27012,-19.80992 -12.87012,-24.91992 -11.02,-6.42 -24.82032,-3.13975 -36.070314,-8.98975 -5.42001,-2.69 -9.40008,-7.6208 -11.83008,-13.07081 -3.88,-8.68999 -4.89024,-18.31044 -5.49024,-27.71044 -0.62,-15.61 0.56998,-31.23973 2.47998,-46.71973 3.01,6.66 6.42018,13.71085 12.93018,17.63086 12.130004,7.71999 28.179854,1.55006 40.089854,9.81006 9.16,6.66 12.34119,18.34869 14.47119,28.90869 3.51,19.1 3.23994,38.61068 2.93994,57.95069 0.05,2.99 -0.0308,6.6799 2.67919,8.6499 3.59001,-0.28 4.27964,-4.82043 4.36964,-7.69043 -0.33,-14.67 -1.27909,-29.68926 2.69092,-43.98926 1.86,-6.85 6.15951,-13.70043 13.2495,-15.94043 10.11,-3.25 21.43017,-0.68004 31.16017,-5.54004 8.88,-4.12 13.86068,-13.14981 17.45068,-21.79981 1.78,16.70001 3.62943,33.53936 2.16943,50.33936 -1.06,11.66 -3.76959,24.87117 -13.82959,32.18115 -10.24999,7.25 -23.46983,5.29905 -35.06982,8.26905 -6.92,1.52 -13.07063,6.23102 -15.89063,12.79101 -5.23,11.88 -4.44037,25.22966 -3.88037,37.88965 28.8,-1.35 56.80083,-14.2607 76.59082,-35.2207 19.85001,-20.74 31.45977,-49.23975 31.25977,-77.98975 0.33,-25.48 -8.55035,-50.87934 -24.36035,-70.819344 -10.31001,-13.12 -23.57948,-23.8411 -38.45948,-31.3711 0.17,-4.04999 0.41012,-8.08986 0.87012,-12.10986 0.39,-3.21 0.98885,-6.38982 1.56885,-9.56982 -1.09983,-0.50621 -2.29411,-1.12119 -3.46729,-1.56006 z m -1.80175,10.43115 c -2.04,16.27 -1.26029,32.91936 2.69971,48.83936 1.56998,6.370004 1.32056,13.510474 -2.16944,19.230474 -4.21,7.05 -12.18014,11.10018 -20.14014,12.18018 -8.03,1.29 -16.81107,-0.59126 -22.83105,-6.28125 -9.04001,-8.22 -10.38897,-22.469744 -5.43897,-33.219734 2.29,-5.04 6.32996,-9.49975 11.70996,-11.23975 14.91,-5.5 27.44993,-16.33928 36.16993,-29.50928 z" />
      <path
         fill="#1a6441"
         stroke="#1a6441"
         stroke-width="0.09375"
         opacity="1"
         d="m 417.56229,67.363706 c 0.89123,-1.26884 0.81358,-1.08131 1.72184,-2.61414 -6.73,22.93 -7.69348,47.160244 -7.53348,70.920244 0.17,9.75 -0.6,19.54 -2.95,29.02 -0.16,12.65 -0.02,25.31 -0.06,37.96 -8.45,0.02 -16.91,0.01 -25.36,0 0.05,-2.38 0.03,-4.77 -0.15,-7.15 -9.63,5.49 -21.19,7.71 -32.12,5.67 -7.75,-1.28 -15.13,-4.27 -21.89,-8.2 5.92,-8.67 12.13,-17.14 18.04,-25.81 0.88,-1.21 1.71,-2.63 3.25,-3.06 6.37,3.4 15.06,2.85 19.93,-2.86 6.38,-6.79 5.04,-18.29 -1.91,-24.17 16.12,-22.95 32.44,-45.760004 48.39,-68.820004 z"
         id="path15-7-6-3-9"
         style="fill:url(#linearGradient2243-1);stroke:#007a53;stroke-opacity:1"
         sodipodi:nodetypes="ccccccccccccccc" />
      <path
         fill="#1a6441"
         stroke="#1a6441"
         stroke-width="0.09375"
         opacity="1"
         d="m 429.98065,152.84981 c 10.01,-7.35 23.11,-7.7 35.02,-7.04 7.56,0.46 15.02,1.79 22.49,2.97 -1.42,20.65 -2.92,41.3 -3.11,62.01 -0.1,6.48 -1.2,13.6 -6.2,18.22 -5.97,5.48 -14.51,6.68 -22.29,7.03 -10.9,-0.06 -21.8,-1.39 -32.41,-3.91 -0.39,-5.78 -0.42,-11.58 -1.01,-17.35 10.1,3.12 21.24,6.58 31.69,3.22 7.35,-2.77 7.3,-11.78 7.49,-18.32 -4.39,3.97 -9.7,7.12 -15.68,7.78 -9.7,1.48 -20.74,-2.18 -25.89,-10.92 -8.12,-14.25 -3.73,-34.41 9.9,-43.69 m 18.52,11.41 c -8.52,3.5 -11.96,15.36 -7.07,23.01 4.17,5.62 13.47,4.97 17.41,-0.61 4.9,-6.66 4.17,-15.49 4.64,-23.32 -4.96,-0.61 -10.28,-1.17 -14.98,0.92 z"
         id="path17-0-5-5-4"
         style="fill:url(#linearGradient2243-1);stroke:#007a53;stroke-opacity:1" />
      <path
         fill="#1a6441"
         stroke="#1a6441"
         stroke-width="0.09375"
         opacity="1"
         d="m 522.98065,153.77981 c 4.83,-6 12.63,-9.8 20.38,-7.71 0.12,6.52 0.41,13.04 0.71,19.56 -5.29,-1.4 -11.58,-1.44 -15.9,2.38 -4.21,3.61 -5.44,9.38 -5.7,14.67 -0.67,8.17 -0.74,16.38 -0.43,24.57 -7.95,-0.25 -15.91,-0.19 -23.86,-0.02 1.47,-20 3.11,-40.06 2.34,-60.13 7.57,0.13 15.15,0.14 22.72,0.01 -0.12,2.22 -0.21,4.44 -0.26,6.67 z"
         id="path19-9-1-5-5"
         style="fill:url(#linearGradient2243-1);stroke:#007a53;stroke-opacity:1" />
      <path
         fill="#1a6441"
         stroke="#1a6441"
         stroke-width="0.09375"
         opacity="1"
         d="m 580.03065,145.95981 c 9.63,-1.19 19.86,0.33 28.18,5.5 6.39,3.97 10.92,10.71 12.23,18.11 1.6,9.39 0.02,19.82 -6.34,27.22 -6.87,8.73 -18.51,11.91 -29.2,11.96 -10.25,0 -21.32,-2.75 -28.46,-10.56 -10.23,-11.51 -9.73,-30.88 1.08,-41.85 5.89,-6.12 14.22,-9.31 22.51,-10.38 m 3.04,17.02 c -8.01,1.41 -10.94,10.65 -10.08,17.77 -0.01,5.89 4.82,11.49 10.9,11.42 5.02,0.4 10.02,-2.77 11.76,-7.5 2.16,-5.46 2.6,-12.11 -0.52,-17.29 -2.5,-3.98 -7.66,-5.23 -12.06,-4.4 z"
         id="path21-3-0-9-9"
         style="fill:url(#linearGradient2243-1);stroke:#007a53;stroke-opacity:1" />
      <path
         fill="#1a6441"
         stroke="#1a6441"
         stroke-width="0.09375"
         opacity="1"
         d="m 636.22065,152.13981 c 4.13,-4.74 10.71,-5.99 16.68,-6.44 8.37,-0.44 16.76,0.58 24.99,2.02 0.2,5.45 0.66,10.88 1.02,16.32 -6.54,-2.34 -13.86,-3.88 -20.66,-1.85 -2.7,0.69 -2.93,4.5 -0.75,5.94 5.66,4.65 12.61,7.93 17.05,13.93 3.89,5.24 3.92,12.96 -0.12,18.13 -3.52,4.45 -9.11,6.65 -14.52,7.75 -10.1,1.82 -20.41,0.24 -30.34,-1.81 -0.53,-5.81 -0.98,-11.62 -1.68,-17.4 7.28,2.66 15.24,5.86 23.05,3.6 2.36,-0.56 3.84,-3.79 1.96,-5.66 -5.71,-5.25 -13.03,-8.77 -17.8,-15.04 -4.25,-5.75 -3.66,-14.24 1.12,-19.49 z"
         id="path23-6-2-6-5"
         style="fill:url(#linearGradient2243-1);stroke:#007a53;stroke-opacity:1" />
      <path
         fill="#1a6441"
         stroke="#1a6441"
         stroke-width="0.09375"
         opacity="1"
         d="m 697.16065,149.24981 c 11.1,-2.29 22.43,-4.2 33.8,-3.51 5.96,0.55 12.44,1.6 16.98,5.86 3.35,3.03 3.99,7.89 3.81,12.16 -0.95,14.48 -2.04,28.96 -2.27,43.48 -7.77,-0.22 -15.55,-0.2 -23.31,-0.01 0.73,-8.92 1.41,-17.84 1.85,-26.78 -5.07,2.37 -10.73,3.16 -15.73,5.65 -2.99,1.44 -4.62,5.73 -1.97,8.25 3.34,2.82 8.15,1.43 11.99,0.67 -1.66,4.24 -2.8,8.64 -4.07,13.01 -7.36,0.86 -15.19,1.5 -22.18,-1.43 -5.91,-2.4 -9.48,-8.68 -9.92,-14.85 -0.24,-6.92 4.44,-13.24 10.41,-16.35 7.53,-3.91 16.08,-4.86 24.23,-6.85 2.13,-0.65 4.65,-1.03 6.05,-2.96 1.42,-1.81 0.89,-4.68 -1.02,-5.92 -2.1,-1.23 -4.61,-1.4 -6.98,-1.32 -8.29,0.44 -16.31,2.84 -24.06,5.68 0.91,-4.91 1.63,-9.85 2.39,-14.78 z"
         id="path25-0-2-3-2"
         style="fill:url(#linearGradient2243-1);stroke:#007a53;stroke-opacity:1" />
      <path
         fill="#1a6441"
         stroke="#1a6441"
         stroke-width="0.09375"
         opacity="1"
         d="m 789.48065,154.95981 c 7.53,-8.96 20.4,-10.94 31.32,-8.39 5.57,1.11 10.99,4.67 12.95,10.2 2.03,6.13 0.73,12.62 0.56,18.91 -0.38,10.52 -1.04,21.03 -1.27,31.56 -7.97,-0.21 -15.95,-0.22 -23.91,0.01 0.64,-9.14 1.18,-18.29 1.64,-27.45 0.13,-3.8 0.2,-7.83 -1.54,-11.32 -2.14,-3.82 -7.24,-4.91 -11.15,-3.5 -3.92,1.41 -6.82,4.9 -8.07,8.81 -1.55,4.49 -1.79,9.27 -2.15,13.98 -0.52,6.46 -0.9,12.94 -0.89,19.43 -8.17,-0.15 -16.34,-0.17 -24.5,0.04 2.66,-19.94 3.29,-40.07 3.82,-60.16 7.85,0.15 15.71,0.2 23.57,-0.01 -0.04,2.64 -0.19,5.26 -0.38,7.89 z"
         id="path27-6-9-3-2"
         style="fill:url(#linearGradient2243-1);stroke:#007a53;stroke-opacity:1" />
      <path
         fill="#1a6441"
         stroke="#1a6441"
         stroke-width="0.09375"
         opacity="1"
         d="m 315.90065,190.25981 c 5.3,6.97 13.12,11.41 21.33,14.04 -6.83,1.81 -13.7,5 -18.01,10.82 -4.39,5.73 -5.78,13.05 -6.6,20.06 -5.43,-5.19 -11.96,-9.11 -18.9,-11.92 6.76,-2.53 13.79,-5.61 18.19,-11.63 4.54,-6.06 4.99,-14.12 3.99,-21.37 z"
         id="path29-2-2-1-6"
         style="fill:url(#linearGradient2243-1);stroke:#007a53;stroke-opacity:1" />
    </g>
  </g>
</svg>
