<svg xmlns="http://www.w3.org/2000/svg" xmlns:xlink="http://www.w3.org/1999/xlink" x="0px" y="0px" viewBox="0 0 613 897" style="enable-background:new 0 0 613 897;" xml:space="preserve">
<style type="text/css">
	.st0{fill:#075AA8;}
	.st1{fill:#FCFDFE;}
	.st2{fill:#EB1E26;}
</style>
<g id="Capa_1">
</g>
<g id="Capa_2">
	<g>
		<g>
			<path class="st0" d="M109.4,0.4c-35.5,0-51.6,29.3-51.6,56.5c0,27.2,16.2,56.5,51.6,56.5c9.3,0,17.6-2,24.6-5.8l16.3,13.2     l9.5-11.9l-13.5-10.8c9.3-10.1,14.7-25,14.7-41.2C161,29.7,144.9,0.4,109.4,0.4z M109.4,88l10.3,8.2c-3.3,1-6.6,1.5-10.3,1.5     c-25,0-33.8-22-33.8-40.8s8.9-39.1,33.8-39.1c25,0,33.8,20.3,33.8,39.1c0,12.4-3.7,23.5-10.1,30.6l-13.9-11.1L109.4,88z"></path>
			<path class="st0" d="M226.1,76.9c0,13.6-7.9,21.8-21.1,21.8c-8.6,0-13.8-4.9-13.8-13.2V31.9h-17V84c0,20.1,9.5,29.9,29,29.9     c10,0,18-3.3,23.6-9.9v8.1h16.2V31.9h-17V76.9z"></path>
			<path class="st0" d="M326.1,98.7c-1.8,0-2,0-2-6.5V53.1c0-23-23.6-23-31.4-23c-22,0-34.5,9.7-35.2,27.4l-0.1,2.1h17l0.1-2     c0.5-8.7,5.7-12.5,17.5-12.5c10.6,0,15.3,3.3,15.3,10.6c0,5.1-4.3,6.2-15.8,7.8c-2.8,0.4-5.7,0.8-8.8,1.4     c-14.2,2.7-28.1,6.8-28.1,25.4c0,14.6,10.4,23.4,27.9,23.4c10.4,0,19.1-3.1,25.9-9.3c1.4,6,5.8,9.3,12.5,9.3     c4.3,0,7.5-0.7,10.3-2.3l1-0.6V97.1l-2.8,1C327.8,98.6,326.8,98.7,326.1,98.7z M307.1,74.1v9.4c0,6.3-6.8,15.1-21.8,15.1     c-4.9,0-13.1-1.2-13.1-9.1c0-6.6,3.9-9.9,14-11.6c2.3-0.4,4.6-0.7,7-1C298.3,76.3,303.2,75.7,307.1,74.1z"></path>
			<rect x="342" y="2.9" class="st0" width="17" height="109.2"></rect>
			<rect x="378" y="31.9" class="st0" width="17" height="80.2"></rect>
			<rect x="378" y="2.9" class="st0" width="17" height="19.4"></rect>
			<path class="st0" d="M434.5,9.1h-17v22.8h-13.3V47h13.3v46.3c0,15.8,7,18.7,20.7,18.7h11.9V96.9h-8c-7.6,0-7.6-0.7-7.6-4.7V47     h15.6V31.9h-15.6V9.1z"></path>
			<path class="st0" d="M512.5,31.4l-20.7,58.1l-21.5-58.1h-19l31.8,76.9l-4.9,11.8c-2.3,4.2-4.7,5.8-8.8,5.8     c-1.7,0-3.6-0.6-5.5-1.2c-0.5-0.2-1-0.3-1.4-0.5l-2.7-0.8v15.6l1.4,0.5c2.8,1,5.8,1.4,9.6,1.4c12.1,0,18.1-5.2,24.6-21.4     l35.1-88.2H512.5z"></path>
			<rect x="53.7" y="147" class="st0" width="470.9" height="152.6"></rect>
			<polygon class="st1" points="125.1,229.6 149.3,211.5 119,211.5 109.9,184.2 101,211.5 70.5,211.5 95,229.9 85.4,259.2      109.8,241 135.3,260.1    "></polygon>
			<polygon class="st1" points="485,229.6 509.2,211.5 479,211.5 469.8,184.2 460.9,211.5 430.4,211.5 454.9,229.9 445.3,259.2      469.7,241 495.2,260.1    "></polygon>
			<path class="st1" d="M219.9,173.4h27.9v57.8c0,23.4-11.1,41.8-39.7,41.8c-31.4,0-39.7-17.6-39.7-41.8v-57.8h29.3v61.4     c0,8.3,5.6,11.2,11.7,11.2c6.1,0,10.4-2.8,10.4-11.2V173.4z"></path>
			<path class="st1" d="M304.7,198.9c0-5-4.7-7.1-9.9-7.1c-4.6,0-10.8,1-10.6,6.9c0.6,16.1,48.7,8.8,48.7,38.3     c0,22.7-14.8,36-40.1,36c-17.9,0-36.3-11.4-36.3-32.9v-2.6l25.7-0.4v4.4c0.8,7.9,7.1,9.6,12.4,9.6c5.7,0,9.9-3.1,9.8-8.5     c-0.1-3.7-2.5-5.9-6.5-7.9c-4.1-2.1-10.8-4.2-16.3-6.7c-13.5-5.9-22.7-12.5-22.7-25c0-13.5,4.5-20.1,11.5-24.6     c5.2-3.3,11.7-7,23.7-7c22.7,0,36.1,13.7,36.1,30h-25.7V198.9z"></path>
			<path class="st1" d="M392,256.2h-27.6l-2.7,14.9h-26l30.3-97.7h26l31.5,97.7H395L392,256.2z M378.7,205.5l-9.3,29.3h17.4     L378.7,205.5z"></path>
			<polygon class="st2" points="524.6,469.5 445.1,438.6 445.1,319 524.6,319    "></polygon>
			<polygon class="st2" points="383.4,446.9 318,482.5 318,319 383.4,319    "></polygon>
			<polygon class="st2" points="262.4,532.3 196.9,548.7 196.9,319 262.4,319    "></polygon>
			<path class="st2" d="M134.9,571c0,0-20,21.7-32.4,5.7c-24.9-32-45.2-85.5-48.8-131.7c-0.7-9,0-22.5,0-22.5V319h81.2V571z"></path>
			<g>
				<path class="st0" d="M104.5,764.2c-7.1,0-14.7-3.1-22.9-9.2c-20.2-15.1-33-54.7-30.6-94c2.5-40.8,20.3-72.6,49.9-89.6      c35.3-20.2,69.6-27.2,99.8-33.3c20.8-4.2,38.8-7.9,52-15.1c12.2-6.6,23.3-16,36.2-26.9c20.8-17.6,44.4-37.5,81.9-54.4      c46.3-20.8,94.8-13.6,124.7,0c20,9.1,36.7,19,57.6,34c2.5,1.8,4.1,4.7,4.1,7.9c0,2.1,0.6,50.9-10.5,77.5      c-14.3,34.3-29.4,61.8-81.5,76.8c-49,14.1-75.5,31.1-112.1,54.7c-11.2,7.2-23.8,15.3-38.2,24.1c-54.8,33.3-84.5,39-141.2,38.4      c-14.2-0.2-33.5-5.7-45.1-9.5c-2.6,6.3-7.2,13.4-15.1,16.7C110.7,763.6,107.7,764.2,104.5,764.2z M432.9,448.4      c-17.2,0-35.7,3.2-53.8,11.4c-35,15.7-57.4,34.7-77.2,51.5c-13.1,11.1-25.5,21.6-39.5,29.2c-15.8,8.6-35.1,12.5-57.5,17.1      c-28.8,5.9-61.4,12.5-93.9,31.1c-32,18.3-38.8,54-40,73.6c-2.2,35.9,9.8,67.3,22.7,77c5.4,4.1,10.1,5.9,12.4,5      c3.1-1.3,5.8-8.3,6.4-12.6c0.4-3,2.2-5.6,4.8-7.1c2.6-1.5,5.7-1.8,8.5-0.8c8.5,3.2,33.7,11.5,48.4,11.7      c53.3,0.6,79.6-4.5,130.7-35.5c14.2-8.6,26.2-16.4,37.8-23.8c38-24.5,65.5-42.2,117.3-57.1c43.8-12.6,55.7-34.1,68.7-65.4      c7.1-17,8.8-48.9,9-64.7c-17.9-12.6-32.7-21.2-50.1-29.2C473.1,453.2,453.9,448.4,432.9,448.4z"></path>
			</g>
			<path class="st0" d="M107.1,658.8c0,0-0.4-7-4.1-8.5c-5-2.1-11.5,0.5-13.6,14.5c-2,13.1-4.2,32,3.5,33.2     c9.9,1.5,15.9-3.9,14.5-35L107.1,658.8z"></path>
			<path class="st0" d="M146.2,646.9c0,0,2.2-5.7-0.6-8.5c-3.8-3.8-11.4-4.3-18.4,5.9c-6.5,9.6-12.5,24.8-5.9,29     c8.5,5.3,15.9,2,21.9-18.5L146.2,646.9z"></path>
			<path class="st0" d="M129.7,616.9c0,0,3.2-6.4,1.6-9.3c-2.2-3.9-7.9-4.1-16.5,1.5c-10.5,6.9-13.8,17.8-11.3,21.8     c3.1,5,12.6,6.6,22-8.4L129.7,616.9z"></path>
			<path class="st0" d="M263.2,601.5c0.9-8.4-8.8-7.3-18.1-5c-20.6,5.1-28.7,12.4-27.8,20.1c0.7,6,9,11.3,28.2,0.5     C245.5,617.1,262.6,607.6,263.2,601.5z"></path>
			<path class="st0" d="M197.4,633.3c0,0,5.8-2,6.1-5.9c0.4-5.3-3.2-13.2-15.4-11.1c-23.6,4.1-34.9,16.4-32.4,23.8     c4.4,12.6,19.3,6.2,26,0.7L197.4,633.3z"></path>
			<path class="st0" d="M251.9,584.2c4-6.7-0.9-16.6-10.8-16.6c-29.9,0.1-38.6,5.8-38.6,15.8c0,13,14.6,11.7,25.1,8.7     C236.2,589.7,249.9,587.6,251.9,584.2z"></path>
			<path class="st0" d="M267.9,561.6c-1.8,7,3.7,13.2,12.4,10.5c26.4-8,34.2-15.5,31.5-24.4c-3.5-11.5-17.7-6.3-26.2-0.9     C278.8,551.4,268.8,558.1,267.9,561.6z"></path>
			<path class="st0" d="M277.2,587.6c-3.5,4.5-1.7,11.7,6.8,10.5c29.5-4,44.2-9.3,44.2-18.5c0-14.3-15.9-10.1-25.3-6.6     C295.2,575.8,279.4,584.8,277.2,587.6z"></path>
			<path class="st0" d="M335,560.8c-0.9,4.8,3.8,8.4,10.6,5.5c21.8-9.5,32.5-19.3,26.4-31.3c-5.5-10.9-16-1.5-21.9,4.8     C345.3,545,335.5,557.8,335,560.8z"></path>
			<path class="st0" d="M321.6,529c-4.9,8.3,1.9,12.7,11,9c20-7.9,26-19.5,22.7-26.3c-4.3-8.7-18.6,0.6-24.4,6     C325.3,522.9,323.9,525,321.6,529z"></path>
			<path class="st0" d="M152.8,611.7c0,0-5.5,2.1-8.2-0.5c-3.6-3.7-5.9-11.7,4.3-17.7c19.8-11.7,35.8-9.8,38.5-2.8     c4.6,11.9-10.2,16.6-18.6,16.8L152.8,611.7z"></path>
			<path class="st0" d="M362.9,498.3c1.8-6,8.8-14.4,17.2-18.4s18.8-6.9,27.2,0.9c9.5,8.9,0,11.4-3.5,12.4     c-3.5,0.9-20.6,8.9-26,11.2C372.4,506.6,360.4,506.4,362.9,498.3z"></path>
			<path class="st0" d="M484.9,493.5c4.1-3.4,13.2-2.7,21.4,0.7c13.2,5.4,17.7,10.5,18.4,11.8c1.3,2.7,2.1,12.1-11.8,11     C498.8,516,466.8,508.7,484.9,493.5z"></path>
			<path class="st0" d="M426.2,476.3c3.4-4.7,13.5-4.8,22.6-2.3c14.7,4,19.5,10.4,20.4,11.8c1.7,2.8,5.3,9.7-9.6,10.5     C444.7,497.1,414.3,492.6,426.2,476.3z"></path>
			<path class="st0" d="M446.9,523.7c-3.9,0-17.8-2.7-11.6-12.3c4.2-6.5,13.5-7.9,24-5.3c8.2,2,20.3,8.3,20.3,13.7     C479.5,530,456.8,523.7,446.9,523.7z"></path>
			<path class="st0" d="M452.8,537.6c2.7-3.1,17.3-4.4,22.8-3.9c13.7,1.2,27.2,5.6,27.2,11.8c0,5.2-12.2,7.5-18.9,6.9     c-13.8-1.3-28.2-0.4-30.6-4C451,544.7,451.3,539.4,452.8,537.6z"></path>
			<path class="st0" d="M392,540.9c5.2-4.8,14.3-6.9,26.5-7.3c13.5-0.5,15.5,1.8,17.3,5.7c3,6.5,0,9.9-6.6,12.2     c-7.4,2.6-14,3.8-24.3,4.4C396.8,556.3,378.1,553.7,392,540.9z"></path>
			<path class="st0" d="M380.7,520c0.6-5.9,9.1-11.5,17.1-13c8.5-1.5,20.1-1.7,21.9,2.3c1.8,4,1.6,10.2-3.8,12.5     c-5.4,2.4-9.3,3.5-15.8,4.6c-6.5,1.1-13.2,2.6-18.1,0.5C379,525.9,380.6,521.7,380.7,520z"></path>
			<g>
				<polygon class="st0" points="386.3,686.2 391.9,686.2 391.9,700.2 394.7,700.2 394.7,686.2 400.3,686.2 400.3,683.4       386.3,683.4     "></polygon>
				<polygon class="st0" points="417.4,683.4 410.7,696.9 404.5,683.4 401.7,683.4 401.7,700.2 404.5,700.2 404.5,690 409.1,700.2       412.2,700.2 417.4,689.5 417.4,700.2 420.2,700.2 420.2,683.4     "></polygon>
			</g>
		</g>
		<g>
			<path class="st0" d="M112.3,0C76.8,0,60.6,29.3,60.6,56.5c0,27.2,16.2,56.5,51.6,56.5c9.3,0,17.6-2,24.6-5.8l16.3,13.2l9.5-11.9     l-13.5-10.8c9.3-10.1,14.7-25,14.7-41.2C163.9,29.3,147.7,0,112.3,0z M112.2,87.6l10.3,8.2c-3.3,1-6.6,1.5-10.3,1.5     c-25,0-33.8-22-33.8-40.8s8.9-39.1,33.8-39.1c25,0,33.8,20.3,33.8,39.1c0,12.4-3.7,23.5-10.1,30.6L122.2,76L112.2,87.6z"></path>
			<path class="st0" d="M229,76.5c0,13.6-7.9,21.8-21.1,21.8c-8.6,0-13.8-4.9-13.8-13.2V31.5h-17v52.1c0,20.1,9.5,29.9,29,29.9     c10,0,18-3.3,23.6-9.9v8.1H246V31.5h-17V76.5z"></path>
			<path class="st0" d="M328.9,98.3c-1.8,0-2,0-2-6.5V52.7c0-23-23.6-23-31.4-23c-22,0-34.5,9.7-35.2,27.4l-0.1,2.1h17l0.1-2     c0.5-8.7,5.7-12.5,17.5-12.5c10.6,0,15.3,3.3,15.3,10.6c0,5.1-4.3,6.2-15.8,7.8c-2.8,0.4-5.7,0.8-8.8,1.4     c-14.2,2.7-28.1,6.8-28.1,25.4c0,14.6,10.4,23.4,27.9,23.4c10.4,0,19.1-3.1,25.9-9.3c1.4,6,5.8,9.3,12.5,9.3     c4.3,0,7.5-0.7,10.3-2.3l1-0.6V96.7l-2.8,1C330.6,98.2,329.6,98.3,328.9,98.3z M309.9,73.7v9.4c0,6.3-6.8,15.1-21.8,15.1     c-4.9,0-13.1-1.2-13.1-9.1c0-6.6,3.9-9.9,14-11.6c2.3-0.4,4.6-0.7,7-1C301.2,75.9,306.1,75.3,309.9,73.7z"></path>
			<rect x="344.8" y="2.5" class="st0" width="17" height="109.2"></rect>
			<rect x="380.8" y="31.5" class="st0" width="17" height="80.2"></rect>
			<rect x="380.8" y="2.5" class="st0" width="17" height="19.4"></rect>
			<path class="st0" d="M437.3,8.7h-17v22.8h-13.3v15.2h13.3V93c0,15.8,7,18.7,20.7,18.7h11.9V96.5h-8c-7.6,0-7.6-0.7-7.6-4.7V46.6     h15.6V31.5h-15.6V8.7z"></path>
			<path class="st0" d="M515.4,31l-20.7,58.1L473.2,31h-19L486,108l-4.9,11.8c-2.3,4.2-4.7,5.8-8.8,5.8c-1.7,0-3.6-0.6-5.5-1.2     c-0.5-0.2-1-0.3-1.4-0.5l-2.7-0.8v15.6l1.4,0.5c2.8,1,5.8,1.4,9.6,1.4c12.1,0,18.1-5.2,24.6-21.4L533.5,31H515.4z"></path>
			<rect x="56.5" y="146.6" class="st0" width="470.9" height="152.6"></rect>
			<polygon class="st1" points="127.9,229.2 152.1,211.1 121.9,211.1 112.7,183.8 103.8,211.1 73.4,211.1 97.8,229.5 88.2,258.8      112.6,240.6 138.1,259.7    "></polygon>
			<polygon class="st1" points="487.9,229.2 512,211.1 481.8,211.1 472.7,183.8 463.7,211.1 433.3,211.1 457.7,229.5 448.2,258.8      472.6,240.6 498.1,259.7    "></polygon>
			<path class="st1" d="M222.7,173h27.9v57.8c0,23.4-11.1,41.8-39.7,41.8c-31.4,0-39.7-17.6-39.7-41.8V173h29.3v61.4     c0,8.3,5.6,11.2,11.7,11.2c6.1,0,10.4-2.8,10.4-11.2V173z"></path>
			<path class="st1" d="M307.6,198.5c0-5-4.7-7.1-9.9-7.1c-4.6,0-10.8,1-10.6,6.9c0.6,16.1,48.7,8.8,48.7,38.3     c0,22.7-14.8,36-40.1,36c-17.9,0-36.3-11.4-36.3-32.9v-2.6l25.7-0.4v4.4c0.8,7.9,7.1,9.6,12.4,9.6c5.7,0,9.9-3.1,9.8-8.5     c-0.1-3.7-2.5-5.9-6.5-7.9c-4.1-2.1-10.8-4.2-16.3-6.7c-13.5-5.9-22.7-12.5-22.7-25c0-13.5,4.5-20.1,11.5-24.6     c5.2-3.3,11.7-7,23.7-7c22.7,0,36.1,13.7,36.1,30h-25.7V198.5z"></path>
			<path class="st1" d="M394.8,255.8h-27.6l-2.7,14.9h-26l30.3-97.7h26l31.5,97.7h-28.5L394.8,255.8z M381.5,205.1l-9.3,29.3h17.4     L381.5,205.1z"></path>
			<polygon class="st2" points="527.5,469.1 447.9,438.2 447.9,318.6 527.5,318.6    "></polygon>
			<polygon class="st2" points="386.3,446.5 320.8,482.1 320.8,318.6 386.3,318.6    "></polygon>
			<polygon class="st2" points="265.2,531.9 199.8,548.3 199.8,318.6 265.2,318.6    "></polygon>
			<path class="st2" d="M137.7,570.6c0,0-20,21.7-32.4,5.7c-24.9-32-45.2-85.5-48.8-131.7c-0.7-9,0-22.5,0-22.5V318.6h81.2V570.6z"></path>
			<g>
				<path class="st0" d="M107.4,763.8c-7.1,0-14.7-3.1-22.9-9.2c-20.2-15.1-33-54.7-30.6-94c2.5-40.8,20.3-72.6,49.9-89.6      c35.3-20.2,69.6-27.2,99.8-33.3c20.8-4.2,38.8-7.9,52-15.1c12.2-6.6,23.3-16,36.2-26.9c20.8-17.6,44.4-37.5,81.9-54.4      c46.3-20.8,94.8-13.6,124.7,0c20,9.1,36.7,19,57.6,34c2.5,1.8,4.1,4.7,4.1,7.9c0,2.1,0.6,50.9-10.5,77.5      c-14.3,34.3-29.4,61.8-81.5,76.8c-49,14.1-75.5,31.1-112.1,54.7c-11.2,7.2-23.8,15.3-38.2,24.1c-54.8,33.3-84.5,39-141.2,38.4      c-14.2-0.2-33.5-5.7-45.1-9.5c-2.6,6.3-7.2,13.4-15.1,16.7C113.5,763.2,110.5,763.8,107.4,763.8z M435.7,448      c-17.2,0-35.7,3.2-53.8,11.4c-35,15.7-57.4,34.7-77.2,51.5c-13.1,11.1-25.5,21.6-39.5,29.2c-15.8,8.6-35.1,12.5-57.5,17.1      c-28.8,5.9-61.4,12.5-93.9,31.1c-32,18.3-38.8,54-40,73.6c-2.2,35.9,9.8,67.3,22.7,77c5.4,4.1,10.1,5.9,12.4,5      c3.1-1.3,5.8-8.3,6.4-12.6c0.4-3,2.2-5.6,4.8-7.1c2.6-1.5,5.7-1.8,8.5-0.8c8.5,3.2,33.7,11.5,48.4,11.7      c53.3,0.6,79.6-4.5,130.7-35.5c14.2-8.6,26.2-16.4,37.8-23.8c38-24.5,65.5-42.2,117.3-57.1c43.8-12.6,55.7-34.1,68.7-65.4      c7.1-17,8.8-48.9,9-64.7c-17.9-12.6-32.7-21.2-50.1-29.2C476,452.8,456.8,448,435.7,448z"></path>
			</g>
			<path class="st0" d="M109.9,658.4c0,0-0.4-7-4.1-8.5c-5-2.1-11.5,0.5-13.6,14.5c-2,13.1-4.2,32,3.5,33.2     c9.9,1.5,15.9-3.9,14.5-35L109.9,658.4z"></path>
			<path class="st0" d="M149.1,646.5c0,0,2.2-5.7-0.6-8.5c-3.8-3.8-11.4-4.3-18.4,5.9c-6.5,9.6-12.5,24.8-5.9,29     c8.5,5.3,15.9,2,21.9-18.5L149.1,646.5z"></path>
			<path class="st0" d="M132.6,616.5c0,0,3.2-6.4,1.6-9.3c-2.2-3.9-7.9-4.1-16.5,1.5c-10.5,6.9-13.8,17.8-11.3,21.8     c3.1,5,12.6,6.6,22-8.4L132.6,616.5z"></path>
			<path class="st0" d="M266,601.1c0.9-8.4-8.8-7.3-18.1-5c-20.6,5.1-28.7,12.4-27.8,20.1c0.7,6,9,11.3,28.2,0.5     C248.3,616.7,265.4,607.2,266,601.1z"></path>
			<path class="st0" d="M200.3,632.9c0,0,5.8-2,6.1-5.9c0.4-5.3-3.2-13.2-15.4-11.1c-23.6,4.1-34.9,16.4-32.4,23.8     c4.4,12.6,19.3,6.2,26,0.7L200.3,632.9z"></path>
			<path class="st0" d="M254.8,583.8c4-6.7-0.9-16.6-10.8-16.6c-29.9,0.1-38.6,5.8-38.6,15.8c0,13,14.6,11.7,25.1,8.7     C239.1,589.3,252.8,587.2,254.8,583.8z"></path>
			<path class="st0" d="M270.8,561.2c-1.8,7,3.7,13.2,12.4,10.5c26.4-8,34.2-15.5,31.5-24.4c-3.5-11.5-17.7-6.3-26.2-0.9     C281.6,551,271.7,557.7,270.8,561.2z"></path>
			<path class="st0" d="M280.1,587.2c-3.5,4.5-1.7,11.7,6.8,10.5c29.5-4,44.2-9.3,44.2-18.5c0-14.3-15.9-10.1-25.3-6.6     C298,575.4,282.3,584.4,280.1,587.2z"></path>
			<path class="st0" d="M337.8,560.4c-0.9,4.8,3.8,8.4,10.6,5.5c21.8-9.5,32.5-19.3,26.4-31.3c-5.5-10.9-16-1.5-21.9,4.8     C348.2,544.6,338.4,557.4,337.8,560.4z"></path>
			<path class="st0" d="M324.5,528.6c-4.9,8.3,1.9,12.7,11,9c20-7.9,26-19.5,22.7-26.3c-4.3-8.7-18.6,0.6-24.4,6     C328.1,522.5,326.8,524.6,324.5,528.6z"></path>
			<path class="st0" d="M155.7,611.3c0,0-5.5,2.1-8.2-0.5c-3.6-3.7-5.9-11.7,4.3-17.7c19.8-11.7,35.8-9.8,38.5-2.8     c4.6,11.9-10.2,16.6-18.6,16.8L155.7,611.3z"></path>
			<path class="st0" d="M365.8,497.9c1.8-6,8.8-14.4,17.2-18.4s18.8-6.9,27.2,0.9c9.5,8.9,0,11.4-3.5,12.4     c-3.5,0.9-20.6,8.9-26,11.2C375.2,506.2,363.3,506,365.8,497.9z"></path>
			<path class="st0" d="M487.7,493.1c4.1-3.4,13.2-2.7,21.4,0.7c13.2,5.4,17.7,10.5,18.4,11.8c1.3,2.7,2.1,12.1-11.8,11     C501.7,515.6,469.7,508.3,487.7,493.1z"></path>
			<path class="st0" d="M429,475.9c3.4-4.7,13.5-4.8,22.6-2.3c14.7,4,19.5,10.4,20.4,11.8c1.7,2.8,5.3,9.7-9.6,10.5     C447.6,496.7,417.1,492.2,429,475.9z"></path>
			<path class="st0" d="M449.7,523.3c-3.9,0-17.8-2.7-11.6-12.3c4.2-6.5,13.5-7.9,24-5.3c8.2,2,20.3,8.3,20.3,13.7     C482.4,529.6,459.7,523.3,449.7,523.3z"></path>
			<path class="st0" d="M455.6,537.2c2.7-3.1,17.3-4.4,22.8-3.9c13.7,1.2,27.2,5.6,27.2,11.8c0,5.2-12.2,7.5-18.9,6.9     c-13.8-1.3-28.2-0.4-30.6-4C453.8,544.4,454.1,539,455.6,537.2z"></path>
			<path class="st0" d="M394.8,540.5c5.2-4.8,14.3-6.9,26.5-7.3c13.5-0.5,15.5,1.8,17.3,5.7c3,6.5,0,9.9-6.6,12.2     c-7.4,2.6-14,3.8-24.3,4.4C399.7,555.9,381,553.3,394.8,540.5z"></path>
			<path class="st0" d="M383.6,519.6c0.6-5.9,9.1-11.5,17.1-13c8.5-1.5,20.1-1.7,21.9,2.3c1.8,4,1.6,10.2-3.8,12.5     c-5.4,2.4-9.3,3.5-15.8,4.6c-6.5,1.1-13.2,2.6-18.1,0.5C381.8,525.5,383.4,521.3,383.6,519.6z"></path>
			<g>
				<polygon class="st0" points="389.2,685.8 394.7,685.8 394.7,699.8 397.6,699.8 397.6,685.8 403.1,685.8 403.1,683 389.2,683           "></polygon>
				<polygon class="st0" points="420.3,683 413.6,696.5 407.4,683 404.5,683 404.5,699.8 407.4,699.8 407.4,689.6 412,699.8       415.1,699.8 420.3,689.1 420.3,699.8 423.1,699.8 423.1,683     "></polygon>
			</g>
		</g>
		<g>
			<path d="M10.3,896.8c-1,0.2-1.8,0.2-2.5,0.1c-0.9-0.1-1.3-0.4-1.4-1c-0.3-1.8,1.5-9.1,5.3-21.7c3.2-10.6,6-19.3,8.4-25.9     c3.1-8.3,6.4-16.3,9.9-23.9l0.8-0.2c2.1-0.4,3.4-0.2,3.9,0.5c0.3,0.3,0.4,0.7,0.5,1.1c0.2,1.3-0.6,3.9-2.5,7.9     c-1.3,2.9-2.8,6.8-4.7,11.8l-3.8,10.4c1.3-0.5,3.5-1.8,6.7-3.9c3.2-2.2,6.6-4.8,10.1-8c3.6-3.1,6.6-6.4,9.1-9.7     c4.8-6.8,6.9-12.6,6.1-17.2c-0.3-2.2-1.4-3.8-3.1-4.9c-2.4-1.4-5.3-1.7-8.8-1.1c-4.3,0.9-8.5,2.6-12.6,4.9     c-4.1,2.4-7.9,5.1-11.3,8.3c-3.4,3.2-6.2,6.6-8.4,10.2c-2.3,3.6-3.9,6.9-5,10c-1.1,3.1-1.5,5.4-1.3,6.9l-0.6,0     c-1.2,0-2.2-0.4-3.2-1c-1-0.7-1.6-1.6-1.8-2.8c-0.5-2.9,1.2-7.2,4.9-13c3-4.7,7.1-9.2,12.3-13.5c4.7-3.8,9.6-7,14.8-9.4     c3.5-1.6,7-2.7,10.5-3.4c1.7-0.3,3.5-0.5,5.2-0.6c2.2-0.1,4.5,0.3,6.7,1.3c2.3,1,4.2,2.5,5.7,4.5c1.1,1.4,1.8,3.1,2.1,5     c1.2,7.3-3.5,15.8-14.1,25.7C42.7,849.3,38,853,34,855.5c-4,2.4-8.2,4.6-12.5,6.6l-1.1,0.5c-0.7,2.6-3.7,13.9-8.8,33.9     C11,896.6,10.5,896.8,10.3,896.8z"></path>
			<path d="M57.4,876c-0.6,0.1-1.1,0.1-1.6,0.1c-2.5,0-4.6-0.8-6.4-2.2c-1.9-1.5-3-3.8-3.5-6.7c-0.4-2.8,0-6.2,1.2-10.2     c1.6-4.7,3.9-8.3,6.9-10.7c2.8-2.2,5.7-3.6,8.6-4.1c2.4-0.4,4.4-0.4,6,0.1c1.5,0.4,2.5,1.1,3,1.9l0.1,0.2     c0.1,0.6-0.2,0.9-0.9,1.1l-0.5,0.1c-1-0.6-2.7-0.8-4.9-0.4c-2.2,0.4-4.4,1.5-6.7,3.4c-2.3,1.9-4.2,4.8-5.6,8.7     c-1.3,3.9-1.7,7.3-1.2,10.2c0.3,1.5,0.7,2.9,1.5,3.9c0.7,1.1,1.5,1.7,2.3,1.8c0.5,0.1,1.1,0.1,1.6,0c1.2-0.2,2.7-1,4.5-2.5     c1.7-1.4,3.4-3.5,5.1-6.2c-1.1-1.2-1.8-2.6-2-4.1c0-0.2-0.1-0.8-0.2-1.8c-0.1-1,0-2.3,0.4-3.8c0.4-1.5,0.8-2.6,1.2-3.1     c0.6-0.7,1.5-1.2,2.7-1.4c0.7-0.1,1.5-0.1,2.2,0c0-1.3,0-2.2-0.1-3l0-0.2c0-0.4,0.1-0.8,0.4-1c0.3-0.3,0.7-0.5,1.1-0.6     c0.3-0.1,0.6,0,0.8,0.1c0.2,0.6,0.3,1.2,0.4,1.8c0.3,1.9,0.2,4.3-0.3,7.2c-0.5,2.9-1.3,5.6-2.3,8.2c1,0.7,1.9,1,2.8,0.8     c1.8-0.3,3.6-2.2,5.3-5.8c1.7-3.3,3.2-7.3,4.5-11.9l0.1-0.4l0.6,3.6c-0.4,2.1-1,4.4-1.9,6.8c-0.8,2.4-1.9,4.6-3.2,6.5     c-1.3,2-2.8,3.3-4.4,4.2c-0.4,0.2-0.8,0.3-1.2,0.4c-1.3,0.2-2.8-0.1-4.4-0.9c-1.9,3.1-4.1,5.5-6.5,7.2     C60.9,874.8,59.1,875.7,57.4,876z M69.8,857.8c0.5-1.7,0.9-3.3,1-4.7C70.2,854.4,69.8,856,69.8,857.8z"></path>
			<path d="M103.4,867.5l-0.4,0c-2.4,0.3-4.3-0.3-5.5-1.7c-0.5-0.6-0.8-1.3-0.9-2.2c-0.2-1.4-0.1-3.3,0.5-5.6     c1.9-6.6,3.7-12.3,5.4-17.1c-0.3-0.2-0.6-0.3-0.9-0.3c-0.9,0.2-2.2,1.6-3.9,4.4c-1.3,2.2-3,5.3-5,9.4c-0.9,1.7-1.9,4-3.1,6.9     c-1.1,2.6-2.1,4.8-3,6.6c-1,1.8-1.9,2.8-2.7,3c-3.5,0.1-5.4-1.2-5.9-4c-0.2-1.3-0.1-3.3,0.2-6.1c0.4-2.8,1.5-7.5,3.4-14     c0.6-2.1,1.5-4.8,2.7-8.1l0.7-0.1c3.2-0.4,5,0.1,5.2,1.6c0.2,1.1-0.3,3.2-1.5,6.4c-1.2,3.4-2.5,7.6-3.6,12.6     c-0.9,3.9-1.3,6.3-1.1,7.4c0.1,0.3,0.2,0.5,0.3,0.6c2.3-4.7,4.6-9.4,6.7-14c1-2.3,2.2-4.7,3.6-7.4c3.6-6.5,6.9-10,9.9-10.7     c2-0.3,3.6-0.3,4.7,0c0.6,0.2,1,0.6,1.1,1.2c0.1,0.4,0,0.9-0.2,1.4c-2.3,6.2-4.1,11.6-5.5,16.2c-1.6,5.2-2.3,8.4-2.1,9.6     c0.1,0.4,0.2,0.6,0.4,0.6c1.1-0.2,3.9-4.3,8.3-12.2l6.8-12.2l0.9,3.1c-4.4,8.2-7,13.1-7.8,14.7c-1.8,3.6-3.3,6.2-4.3,7.6     C105.8,866.5,104.7,867.3,103.4,867.5z"></path>
			<path d="M119.4,864.6c-0.2,0-0.3,0-0.5,0c-2.4-0.1-3.8-0.7-4.4-1.6c-0.6-0.9-1-1.7-1.1-2.5c-0.8-4.7,2.7-18,10.5-40l4.6-13     l1.7-0.3c1.2-0.2,2-0.3,2.4-0.3c0.9,0.1,1.4,0.4,1.5,1.1c0.1,0.3,0,0.7-0.1,1.2c-0.4,1.4-1.8,5.7-4.2,12.7l-6.8,20.6     c-0.9,2.9-1.7,6.4-2.6,10.3c-0.8,3.8-1.1,6.2-1,7.3c0.1,0.4,0.2,0.6,0.4,0.7c1.5-0.3,6.2-8.3,14.3-24l0.3,3.4     c-4.5,10.7-8.3,18-11.6,21.9C121.5,863.6,120.4,864.5,119.4,864.6z"></path>
			<path d="M141.5,860.7c-0.7,0.1-1.3,0.2-2,0.1c-2.4-0.2-4.4-1.1-6.2-2.5c-1.9-1.5-3.1-3.7-3.6-6.6c-0.4-2.6,0-5.8,1.1-9.6     c3.4-8.4,8.8-13.3,16.2-14.7c2.8-0.5,4.8-0.4,6.1,0.4c1.2,0.7,1.8,1.5,2,2.5c0.1,0.4,0.1,1,0,1.9c-0.1,0.9-0.5,2.1-1.4,3.7     c-0.9,1.5-2.5,3.2-4.8,5.1c-1.9,1.4-6.3,3.9-13.2,7.6c-0.1,1.4-0.1,2.8,0.1,4c0.2,1.4,0.7,2.7,1.3,3.7c0.8,1.3,1.8,1.9,3.1,1.6     c1.2-0.2,2.8-1.1,4.6-2.7c4.6-3.9,10.9-11.8,18.7-23.7l0.6,3.1c-0.5,0.7-0.9,1.5-1.4,2.3c-4.4,7.1-8.1,12.5-11.2,16.1     C147.9,857.6,144.5,860.1,141.5,860.7z M136.2,846c0.7-0.4,1.7-0.9,2.8-1.5c2.5-1.2,5.2-2.8,8-4.7c2.3-1.8,3.9-3.4,4.6-4.8     c0.8-1.4,1.1-2.5,0.9-3.4c-0.2-0.8-0.4-1.3-0.8-1.5c-0.8-0.3-1.7-0.4-2.7-0.2c-0.6,0.1-1.6,0.4-2.9,1c-1.3,0.5-2.8,1.8-4.6,3.7     C138.8,837.6,137.1,841.3,136.2,846z"></path>
			<path d="M188.9,852.1c-0.7,0.1-1.3,0.2-2,0.1c-2.4-0.2-4.4-1.1-6.2-2.5c-1.9-1.5-3.1-3.7-3.6-6.6c-0.4-2.6,0-5.8,1.1-9.6     c3.4-8.4,8.8-13.3,16.2-14.7c2.8-0.5,4.8-0.4,6.1,0.4c1.2,0.7,1.8,1.5,2,2.5c0.1,0.4,0.1,1,0,1.9c-0.1,0.9-0.5,2.1-1.4,3.7     c-0.9,1.5-2.5,3.2-4.8,5.1c-1.9,1.4-6.3,3.9-13.2,7.6c-0.1,1.4-0.1,2.8,0.1,4c0.2,1.4,0.7,2.7,1.3,3.7c0.8,1.3,1.8,1.9,3.1,1.6     c1.2-0.2,2.8-1.1,4.6-2.7c4.6-3.9,10.9-11.8,18.7-23.7l0.6,3.1c-0.5,0.7-0.9,1.5-1.4,2.3c-4.4,7.1-8.1,12.5-11.2,16.1     C195.3,849,191.9,851.5,188.9,852.1z M183.6,837.5c0.7-0.4,1.7-0.9,2.8-1.5c2.5-1.2,5.2-2.8,8-4.7c2.3-1.8,3.9-3.4,4.6-4.8     c0.8-1.4,1.1-2.5,0.9-3.4c-0.2-0.8-0.4-1.3-0.8-1.5c-0.8-0.3-1.7-0.4-2.7-0.2c-0.6,0.1-1.6,0.4-2.9,1c-1.3,0.5-2.8,1.8-4.6,3.7     C186.3,829,184.6,832.8,183.6,837.5z"></path>
			<path d="M231.8,844.3l-0.4,0c-2.4,0.3-4.3-0.3-5.5-1.7c-0.5-0.6-0.8-1.3-0.9-2.2c-0.2-1.4-0.1-3.3,0.5-5.6     c1.9-6.6,3.7-12.3,5.4-17.1c-0.3-0.2-0.6-0.3-0.9-0.3c-0.9,0.2-2.2,1.6-3.9,4.4c-1.3,2.2-3,5.3-5,9.4c-0.9,1.7-1.9,4-3.1,6.9     c-1.1,2.6-2.1,4.8-3,6.6c-1,1.8-1.9,2.8-2.7,3c-3.5,0.1-5.4-1.2-5.9-4c-0.2-1.3-0.1-3.3,0.2-6.1c0.4-2.8,1.5-7.5,3.4-14     c0.6-2.1,1.5-4.8,2.7-8.1l0.7-0.1c3.2-0.4,5,0.1,5.2,1.6c0.2,1.1-0.3,3.2-1.5,6.4c-1.2,3.4-2.5,7.6-3.6,12.6     c-0.9,3.9-1.3,6.3-1.1,7.4c0.1,0.3,0.2,0.5,0.3,0.6c2.3-4.7,4.6-9.4,6.7-14c1-2.3,2.2-4.7,3.6-7.4c3.6-6.5,6.9-10,9.9-10.7     c2-0.3,3.6-0.3,4.7,0c0.6,0.2,1,0.6,1.1,1.2c0.1,0.4,0,0.9-0.2,1.4c-2.3,6.2-4.1,11.6-5.5,16.2c-1.6,5.2-2.3,8.4-2.1,9.6     c0.1,0.4,0.2,0.6,0.4,0.6c1.1-0.2,3.9-4.3,8.3-12.2l6.8-12.2l0.9,3.1c-4.4,8.2-7,13.1-7.8,14.7c-1.8,3.6-3.3,6.2-4.3,7.6     C234.2,843.3,233.1,844.1,231.8,844.3z"></path>
			<path d="M253.7,840.4c-0.7,0.1-1.3,0.2-2,0.1c-2.4-0.2-4.4-1.1-6.2-2.5c-1.9-1.5-3.1-3.7-3.6-6.6c-0.4-2.6,0-5.8,1.1-9.6     c3.4-8.4,8.8-13.3,16.2-14.7c2.8-0.5,4.8-0.4,6.1,0.4c1.2,0.7,1.8,1.5,2,2.5c0.1,0.4,0.1,1,0,1.9c-0.1,0.9-0.5,2.1-1.4,3.7     c-0.9,1.5-2.5,3.2-4.8,5.1c-1.9,1.4-6.3,3.9-13.2,7.6c-0.1,1.4-0.1,2.8,0.1,4c0.2,1.4,0.7,2.7,1.3,3.7c0.8,1.3,1.8,1.9,3.1,1.6     c1.2-0.2,2.8-1.1,4.6-2.7c4.6-3.9,10.9-11.8,18.7-23.7l0.6,3.1c-0.5,0.7-0.9,1.5-1.4,2.3c-4.4,7.1-8.1,12.5-11.2,16.1     C260.1,837.3,256.7,839.9,253.7,840.4z M248.4,825.8c0.7-0.4,1.7-0.9,2.8-1.5c2.5-1.2,5.2-2.8,8-4.7c2.3-1.8,3.9-3.4,4.6-4.8     c0.8-1.4,1.1-2.5,0.9-3.4c-0.2-0.8-0.4-1.3-0.8-1.5c-0.8-0.3-1.7-0.4-2.7-0.2c-0.6,0.1-1.6,0.4-2.9,1c-1.3,0.5-2.8,1.8-4.6,3.7     C251.1,817.3,249.3,821.1,248.4,825.8z"></path>
			<path d="M287.8,834.2c-0.2,0-0.4,0-0.5,0c-2.2-0.2-3.6-0.7-4.3-1.6c-0.7-0.8-1.1-1.8-1.3-2.7c-0.3-1.7,0-4.3,0.8-7.7     c0.5-2,1-3.9,1.6-5.6c0.9-2.8,1.4-4.6,1.2-5.5c-0.1-0.7-0.6-1.1-1.5-1.4c-0.7-0.2-1.5-0.4-2.5-0.5c-4-0.5-6.1-1.7-6.4-3.5     c0-0.2-0.1-0.5,0-0.7c0.3-2.9,1.3-5.8,3-8.7l0.9-1.5l2.4-0.1c2.3,0,3.5,0.4,3.6,1.2c0,0.3-0.1,0.7-0.4,1.2     c-0.5,0.8-1.2,1.9-1.9,3.4c-0.7,1.5-1.1,2.6-1,3.2c0.1,0.7,0.1,1,0.1,1c0.2,1.2,1.3,1.9,3.3,1.9c2.6,0.1,4.3,0.4,5,1.2     c0.8,0.7,1.2,1.5,1.3,2.3c0.2,1.5-0.2,4-1.4,7.6c-1.8,5.5-2.5,9.2-2.2,11c0.1,0.7,0.4,1,0.8,1.1l0.1,0c1.3-0.2,3.9-4.2,7.9-12     c1.7-3.2,3.7-7.2,6.1-12.2l1.1,3.4c-2.9,6-5.2,10.7-6.8,13.9C293.1,830.1,290.1,833.8,287.8,834.2z"></path>
			<path d="M300.7,858.1c-3.7,0.7-6.5,0.2-8.6-1.3c-1.8-1.4-2.8-3-3.1-4.8l-0.1-0.9c-0.3-1.9,0.5-4,2.5-6.5c2-2.5,6.3-6.3,13-11.3     c0.7,0.2,1.1,0.5,1.2,0.9c0.1,0.8-0.8,1.9-2.8,3.3c-7.9,5.8-11.7,10.4-11.3,13.8c0.7,2.6,3,3.5,6.8,2.8c4.1-0.7,7.3-3.9,9.4-9.4     c1.9-4.7,3.3-9.3,4.3-13.7l0.9-3.3c-1.4,1.6-2.9,2.6-4.7,2.9c-0.5,0.1-0.9,0.1-1.4,0.1c-3.7-0.2-6.4-1.9-8.1-5.1     c-0.5-0.9-0.8-1.9-1-3c-0.5-2.9,0-6.6,1.6-11.1c2.5-6.2,5.5-10.2,9-12.2c1.8-1,3.6-1.7,5.3-2c3.8-0.7,6.6,0.2,8.5,2.5     c1.2-3.2,2.6-4.9,4.1-5.2c1.1-0.2,2.6,0.5,4.6,2.1c-3.3,5.5-7.3,16.4-11.8,32.8c-3.9,13.9-8.1,22.6-12.6,26     C304.5,856.9,302.5,857.8,300.7,858.1z M307.3,827.8c1.9-0.3,5-4.4,9.2-12.1c1.2-3.8,2.8-8.3,4.6-13.3c-1.5-1.6-3.5-2.2-6.1-1.8     c-3.8,0.7-7,4.5-9.6,11.4c-1.6,4.3-2.2,7.8-1.8,10.4C304.2,826.1,305.4,827.9,307.3,827.8z"></path>
			<path d="M335.7,825.6l-0.3,0.1c-2.5,0.3-4.3-0.3-5.6-1.7c-0.5-0.6-0.8-1.3-0.9-2.2c-0.2-1.4-0.1-3.3,0.5-5.6     c1.9-6.8,4-13.4,6.2-19.6l1.2-3.4c0.2-0.1,0.5-0.1,0.9-0.2c1.7-0.3,3-0.2,3.9,0.2c0.6,0.3,0.9,0.7,1,1.2c0.1,0.4,0,0.9-0.2,1.4     c-2.2,5.8-4,11.2-5.5,16.3c-1.6,5.2-2.3,8.4-2.1,9.6c0.1,0.4,0.2,0.6,0.4,0.6c1-0.2,3.8-4.3,8.4-12.2c1.8-3.2,4.1-7.3,6.9-12.3     l1.3,2.6c-6.3,10.9-9.8,17.1-10.6,18.7c-1,2.1-2,3.6-2.8,4.7C337.6,824.8,336.7,825.4,335.7,825.6z M339.8,790.7     c-1.5,0.3-2.9-0.1-4.1-1.1l8.6-8l0.8,0.1c1.9,0.3,3,0.8,3.4,1.6c0.1,0.9-1.4,2.6-4.7,5.1c-1.2,1-2,1.6-2.5,1.8     C340.8,790.4,340.3,790.6,339.8,790.7z"></path>
			<path d="M371.4,819.1c-1.7,0.3-3.2,0.1-4.6-0.5c-1.4-0.6-2.3-2-2.6-3.9c-2,4.2-4.5,6.6-7.6,7.1c-4.3,0.4-7.5-1.3-9.4-5.1     c-0.5-0.9-0.8-1.8-0.9-2.9c-0.5-2.9,0.1-6.6,1.7-11.1c3.5-8.5,8.1-13.3,14-14.4c3.1-0.6,5.8,0.2,8.1,2.2l0.7,0.6l1.4-4.3     c0.7-0.1,1.6-0.2,2.6-0.1c1.9,0.1,3,0.7,3.1,1.7c0,0.3-1.3,4.5-4.2,12.8c-2.6,7.8-3.8,12.5-3.5,14.1c0.1,0.4,0.2,0.6,0.4,0.6     c1.2-0.2,4-4.3,8.2-12.1l6.4-12.3l0.5,2.9c-6.6,14.6-10.5,22.5-11.7,23.7C373.3,818.5,372.5,818.9,371.4,819.1z M356,819     c2-0.4,5.4-4.9,10-13.7c1.5-4.9,2.7-8.8,3.8-11.8c0-0.2-0.6-0.6-1.7-1.3c-1.1-0.7-2.4-0.8-3.9-0.6c-1.6,0.3-3.2,1.1-4.9,2.6     c-1.7,1.4-3.5,4.5-5.3,9.1c-1.6,4.3-2.2,7.8-1.8,10.4C352.8,817.3,354.1,819.1,356,819z"></path>
			<path d="M423.1,809.7c-1.7,0.3-3.2,0.1-4.6-0.5c-1.4-0.6-2.3-2-2.6-3.9c-2,4.2-4.5,6.6-7.6,7.1c-4.3,0.4-7.5-1.3-9.4-5.1     c-0.5-0.9-0.8-1.8-0.9-2.9c-0.5-2.9,0.1-6.6,1.7-11.1c3.5-8.5,8.1-13.3,14-14.4c3.1-0.6,5.8,0.2,8.1,2.2l0.7,0.6l1.4-4.3     c0.7-0.1,1.6-0.2,2.6-0.1c1.9,0.1,3,0.7,3.1,1.7c0,0.3-1.3,4.5-4.2,12.8c-2.6,7.8-3.8,12.5-3.5,14.1c0.1,0.4,0.2,0.6,0.4,0.6     c1.2-0.2,4-4.3,8.2-12.1l6.4-12.3l0.5,2.9c-6.6,14.6-10.5,22.5-11.7,23.7C425,809.2,424.2,809.5,423.1,809.7z M407.7,809.7     c2-0.4,5.4-4.9,10-13.7c1.5-4.9,2.7-8.8,3.8-11.8c0-0.2-0.6-0.6-1.7-1.3c-1.1-0.7-2.4-0.8-3.9-0.6c-1.6,0.3-3.2,1.1-4.9,2.6     c-1.7,1.4-3.5,4.5-5.3,9.1c-1.6,4.3-2.2,7.8-1.8,10.4C404.5,808,405.8,809.8,407.7,809.7z"></path>
			<path d="M455.8,803.9c-0.2,0-0.3,0-0.5,0c-3.3-0.2-5.1-1.5-5.5-4.1c-0.2-1.3-0.1-3.4,0.3-6.2c0.4-2.8,1.6-7.5,3.6-14.1     c0.8-2.6,3-9.3,6.8-19.8l-1.7,0.4c-0.6,0.1-1.4,0.2-2.3,0.3c-0.9,0.1-1.6-0.2-2.2-0.8c-0.3-0.3-0.4-0.6-0.5-1.1     c-0.1-0.6-0.1-1.4,0.1-2.3c1.4,0.7,2.7,0.9,4.1,0.6c1-0.2,2.3-0.5,3.9-1.1l2.9-8.7c0.4-0.1,0.9-0.3,1.4-0.3     c0.4-0.1,0.9-0.1,1.6-0.2c0.7-0.1,1.4,0,2.1,0.3c0.4,0.2,0.7,0.5,0.7,0.9c0,0.2,0,0.5-0.1,0.8c-0.1,0.3-0.7,2-1.7,5.3     c1.9-0.7,3.6-1.2,5.1-1.5c1.2-0.2,2.3-0.1,3,0.3c0.5,0.3,0.9,0.9,1,1.7c0.1,0.5,0.1,1.2,0,1.9c-1-0.4-2.3-0.4-4-0.1     c-2.1,0.4-4.3,1-6.5,1.8c-1.4,4.1-2.8,8.4-4.4,13.1c-1.7,5.1-3,8.7-3.7,10.9c-0.7,2.2-1.6,5.6-2.6,10.3c-0.8,3.7-1.1,6.2-1,7.3     c0.1,0.4,0.2,0.6,0.4,0.6c1.4-0.3,6.2-8.3,14.3-24l0.3,3.4l-1.1,2.5c-2,4.7-4.2,9.2-6.6,13.6     C460.2,800.8,457.7,803.6,455.8,803.9z"></path>
			<path d="M472.3,800.9c-0.3,0.1-0.7,0.1-1,0.1c-2.5,0.1-4.3-0.5-5.5-1.9c-0.5-0.5-0.8-1.3-0.9-2.2c-0.2-1.4,0-3.2,0.5-5.5     c1.8-6.6,4.3-14.3,7.4-22.9l0.5-0.1c2.1-0.4,3.6-0.2,4.6,0.6c0.3,0.2,0.5,0.5,0.6,0.9c0.1,0.3,0,0.7-0.1,1.2     c-0.6,1.8-1.3,3.9-2.1,6.3c-3.9,11.3-5.7,17.8-5.4,19.5c0.1,0.3,0.2,0.5,0.4,0.6c0.3,0.1,0.6,0.1,0.9,0     c2.9-0.5,8.1-8.3,15.6-23.4c2-4.1,3.7-7.2,4.9-9.3l1-0.2c1.5-0.3,2.7-0.2,3.6,0.1c0.7,0.3,1,0.7,1.1,1.3c0.1,0.4,0,0.9-0.2,1.4     c-5.4,15.1-7.9,23.7-7.6,25.8c0.1,0.4,0.2,0.6,0.4,0.6c1.9-0.3,7.6-8.6,16.9-24.8l0.8,2.4c-6.7,11.3-10.4,17.5-11,18.6     c-1.2,2.3-2.3,4-3.2,5.2c-0.9,1.2-1.9,1.8-3,2c-2.6,0.4-4.5-0.2-5.8-1.7c-0.5-0.6-0.8-1.3-0.9-2.2c-0.2-1.4,0-3.3,0.5-5.6     c0.6-2.1,1.3-4.2,2.1-6.2c0.5-1.4,1-2.8,1.4-4.1c-1.3,2.6-2.7,5.3-4.3,8.1c-0.9,1.5-1.7,3-2.5,4.5c-1.9,3.7-3.7,6.4-5.3,8.1     C475.3,799.8,473.9,800.7,472.3,800.9z"></path>
			<path d="M531.8,790.2c-0.5,0.1-1,0.1-1.5,0.1c-2.4-0.1-4.5-0.9-6.2-2.4c-1.6-1.4-2.6-3.3-3-5.9c-0.4-3.3,0.1-6.9,1.6-10.9     c1.4-3.4,3.1-6.2,5.1-8.2c3.1-3.1,6.7-5.1,10.7-5.8c3.6-0.6,6.3-0.2,8.2,1.5c1.4-4.4,4.7-13.9,9.9-28.4c0.5-0.2,1-0.3,1.6-0.4     c0.4-0.1,0.9-0.1,1.5-0.2c0.6-0.1,1.2,0.1,1.8,0.4c0.4,0.2,0.6,0.5,0.6,0.9c0,0.3,0,0.6-0.1,0.9c-0.5,1.8-2.6,8.2-6.3,19.2     c-2.6,7.8-4.2,12.6-4.7,14.3c-0.9,2.9-1.7,6.4-2.6,10.3c-0.8,3.8-1.2,6.3-1,7.3c0.1,0.4,0.2,0.6,0.4,0.6     c1.3-0.2,6.1-8.3,14.3-24.1l0.3,3.4c-4.6,10.8-8.5,18.1-11.8,21.9c-1.2,1.4-2.2,2.1-3.2,2.3c-0.2,0-0.3,0-0.5,0     c-3.3-0.2-5.1-1.5-5.5-3.9c-0.2-1.4-0.1-3.4,0.3-5.9c-1.6,4-3.3,7.2-5.1,9.5C535.3,788.7,533.7,789.9,531.8,790.2z M531,787.5     c1-0.2,2.3-1.4,3.9-3.5c2.8-3.8,6-9.6,9.6-17.4l1.8-6.1c-0.8-0.7-2.2-0.9-4.2-0.6c-2.4,0.4-4.7,1.6-7.1,3.4     c-2.3,1.8-4.1,4.5-5.7,8.2c-1.3,3.3-1.9,6.1-2,8.5c0,1.1,0.1,2.1,0.2,2.9c0.2,1,0.5,1.9,1,2.9c0.5,0.9,1.1,1.5,1.9,1.7     C530.6,787.5,530.8,787.5,531,787.5z"></path>
			<path d="M563.1,784.5l-0.3,0.1c-2.5,0.3-4.3-0.3-5.6-1.7c-0.5-0.6-0.8-1.3-0.9-2.2c-0.2-1.4-0.1-3.3,0.5-5.6     c1.9-6.8,4-13.4,6.2-19.6l1.2-3.4c0.2-0.1,0.5-0.1,0.9-0.2c1.7-0.3,3-0.2,3.9,0.2c0.6,0.3,0.9,0.7,1,1.2c0.1,0.4,0,0.9-0.2,1.4     c-2.2,5.8-4,11.2-5.5,16.3c-1.6,5.2-2.3,8.4-2.1,9.6c0.1,0.4,0.2,0.6,0.4,0.6c1-0.2,3.8-4.3,8.4-12.2c1.8-3.2,4.1-7.3,6.9-12.3     l1.3,2.6c-6.3,10.9-9.8,17.1-10.6,18.7c-1,2.1-2,3.6-2.8,4.7C565.1,783.8,564.2,784.4,563.1,784.5z M567.2,749.6     c-1.5,0.3-2.9-0.1-4.1-1.1l8.6-8l0.8,0.1c1.9,0.3,3,0.8,3.4,1.6c0.1,0.9-1.4,2.6-4.7,5.1c-1.2,1-2,1.6-2.5,1.8     C568.3,749.3,567.7,749.5,567.2,749.6z"></path>
			<path d="M598.9,778c-1.7,0.3-3.2,0.1-4.6-0.5c-1.4-0.6-2.3-2-2.6-3.9c-2,4.2-4.5,6.6-7.6,7.1c-4.3,0.4-7.5-1.3-9.4-5.1     c-0.5-0.9-0.8-1.8-0.9-2.9c-0.5-2.9,0.1-6.6,1.7-11.1c3.5-8.5,8.1-13.3,14-14.4c3.1-0.6,5.8,0.2,8.1,2.2l0.7,0.6l1.4-4.3     c0.7-0.1,1.6-0.2,2.6-0.1c1.9,0.1,3,0.7,3.1,1.7c0,0.3-1.3,4.5-4.2,12.8c-2.6,7.8-3.8,12.5-3.5,14.1c0.1,0.4,0.2,0.6,0.4,0.6     c1.2-0.2,4-4.3,8.2-12.1l6.4-12.3l0.5,2.9c-6.6,14.6-10.5,22.5-11.7,23.7C600.8,777.4,600,777.8,598.9,778z M583.4,777.9     c2-0.4,5.4-4.9,10-13.7c1.5-4.9,2.7-8.8,3.8-11.8c0-0.2-0.6-0.6-1.7-1.3c-1.1-0.7-2.4-0.8-3.9-0.6c-1.6,0.3-3.2,1.1-4.9,2.6     c-1.7,1.4-3.5,4.5-5.3,9.1c-1.6,4.3-2.2,7.8-1.8,10.4C580.3,776.3,581.5,778.1,583.4,777.9z"></path>
		</g>
	</g>
</g>
</svg>