<svg xmlns="http://www.w3.org/2000/svg" xmlns:xlink="http://www.w3.org/1999/xlink" viewBox="0 0 774.82 303.18"><defs><style>.cls-1{fill:none;}.cls-2{fill:url(#linear-gradient);}.cls-3{fill:url(#linear-gradient-2);}.cls-4{fill:url(#linear-gradient-3);}.cls-5{fill:url(#linear-gradient-4);}.cls-6{fill:url(#linear-gradient-5);}.cls-7{fill:url(#linear-gradient-6);}.cls-8{fill:url(#linear-gradient-7);}.cls-9{fill:url(#linear-gradient-8);}.cls-10{fill:url(#linear-gradient-9);}.cls-11{fill:url(#linear-gradient-10);}.cls-12{fill:url(#linear-gradient-11);}.cls-13{fill:url(#linear-gradient-12);}.cls-14{fill:url(#linear-gradient-13);}.cls-15{fill:url(#linear-gradient-14);}.cls-16{clip-path:url(#clip-path);}.cls-17{fill:url(#radial-gradient);}.cls-18{fill:url(#radial-gradient-2);}.cls-19{fill:url(#radial-gradient-3);}.cls-20{fill:url(#radial-gradient-4);}.cls-21{fill:url(#radial-gradient-5);}.cls-22{fill:url(#radial-gradient-6);}.cls-23{fill:#231f20;}.cls-24{fill:#006838;}.cls-25{fill:url(#radial-gradient-7);}.cls-26{fill:url(#linear-gradient-15);}.cls-27{fill:url(#linear-gradient-16);}.cls-28{fill:url(#linear-gradient-17);}.cls-29{fill:url(#linear-gradient-18);}</style><linearGradient id="linear-gradient" x1="295.68" y1="212.04" x2="295.68" y2="100.4" gradientUnits="userSpaceOnUse"><stop offset="0" stop-color="#39b54a"></stop><stop offset="0.7" stop-color="#009444"></stop><stop offset="1" stop-color="#006838"></stop></linearGradient><linearGradient id="linear-gradient-2" x1="416.29" y1="212.04" x2="416.29" y2="100.4" xlink:href="#linear-gradient"></linearGradient><linearGradient id="linear-gradient-3" x1="542.6" y1="212.04" x2="542.6" y2="100.4" xlink:href="#linear-gradient"></linearGradient><linearGradient id="linear-gradient-4" x1="661.87" y1="212.03" x2="661.87" y2="100.4" xlink:href="#linear-gradient"></linearGradient><linearGradient id="linear-gradient-5" x1="246.19" y1="239.94" x2="246.19" y2="264.42" gradientUnits="userSpaceOnUse"><stop offset="0" stop-color="#1fc5ff"></stop><stop offset="1" stop-color="#1c75bc"></stop></linearGradient><linearGradient id="linear-gradient-6" x1="300.8" y1="239.94" x2="300.8" y2="264.42" xlink:href="#linear-gradient-5"></linearGradient><linearGradient id="linear-gradient-7" x1="353.77" y1="239.94" x2="353.77" y2="264.41" xlink:href="#linear-gradient-5"></linearGradient><linearGradient id="linear-gradient-8" x1="406.69" y1="239.94" x2="406.69" y2="264.41" xlink:href="#linear-gradient-5"></linearGradient><linearGradient id="linear-gradient-9" x1="459.65" y1="239.94" x2="459.65" y2="264.41" xlink:href="#linear-gradient-5"></linearGradient><linearGradient id="linear-gradient-10" x1="508.18" y1="239.94" x2="508.18" y2="264.42" xlink:href="#linear-gradient-5"></linearGradient><linearGradient id="linear-gradient-11" x1="559.31" y1="239.94" x2="559.31" y2="264.42" xlink:href="#linear-gradient-5"></linearGradient><linearGradient id="linear-gradient-12" x1="612.29" y1="239.94" x2="612.29" y2="264.41" xlink:href="#linear-gradient-5"></linearGradient><linearGradient id="linear-gradient-13" x1="660.31" y1="239.94" x2="660.31" y2="264.41" xlink:href="#linear-gradient-5"></linearGradient><linearGradient id="linear-gradient-14" x1="711.68" y1="239.95" x2="711.68" y2="264.42" xlink:href="#linear-gradient-5"></linearGradient><clipPath id="clip-path" transform="translate(50.3)"><polygon class="cls-1" points="236.8 134.89 252.28 120.86 251.92 120.15 242.07 121.2 242 100.68 224.59 105.03 223.01 96.73 213.52 96.73 202.85 85.14 190.18 80.11 173.68 78.07 170 95.53 154.97 99.49 129.26 86.83 129.65 81.69 119.01 71.33 107.36 69.89 98.4 73.38 91.42 67.92 65.17 64.68 48.1 95.76 55.28 108.19 43.81 110.17 46.97 122.83 35.5 123.62 24.82 143.01 22.75 141.9 3.46 177.03 12.37 182.95 14.54 199.57 1.88 217.38 14.92 222.01 15.34 231.39 21.23 237.52 25.98 234.35 32.36 235.2 34.06 237.05 41.44 236.76 49.35 225.68 68.79 220.45 69.69 221.05 67.94 228.06 73.48 253.37 90.49 255.75 109.24 247.34 115.73 251.66 114.22 253.77 118.97 257.33 114.62 262.87 118.58 265.64 133.49 263.46 139.15 267.22 143.29 264.06 164.86 264.06 181.48 255.75 177.52 250.6 182.35 234.25 184.24 232.8 181.07 225.87 177.91 225.29 176.73 220.15 168.42 218.57 165.25 200.37 168.78 199.01 165.6 192.06 162.09 192.06 155.36 182.96 159.75 179.26 156.55 172.28 171.58 160.02 171.89 160.01 171.89 164.59 185.5 164.59 185.5 159.73 209.96 159.22 211.36 157.96 213.09 148.29 215.89 148.55 218.66 133.51 215.94 132.38 217.08 126 236.8 134.89"></polygon></clipPath><radialGradient id="radial-gradient" cx="296.78" cy="116.25" r="241.64" gradientUnits="userSpaceOnUse"><stop offset="0" stop-color="#fff"></stop><stop offset="0.87" stop-color="#1fc5ff"></stop><stop offset="1" stop-color="#1c75bc"></stop></radialGradient><radialGradient id="radial-gradient-2" cx="265.9" cy="145.96" r="46.66" gradientTransform="matrix(-0.89, -0.46, -0.46, 0.89, 546.87, 105.26)" gradientUnits="userSpaceOnUse"><stop offset="0" stop-color="#f99232"></stop><stop offset="1" stop-color="#f9ed32"></stop></radialGradient><radialGradient id="radial-gradient-3" cx="79.16" cy="178.51" r="74.71" gradientTransform="translate(0 48.02) scale(1 0.73)" gradientUnits="userSpaceOnUse"><stop offset="0" stop-color="#8b5e3c"></stop><stop offset="0.7" stop-color="#603913"></stop><stop offset="1" stop-color="#3c2415"></stop></radialGradient><radialGradient id="radial-gradient-4" cx="31.39" cy="189.48" r="63.79" gradientUnits="userSpaceOnUse"><stop offset="0" stop-color="#ffdbb8"></stop><stop offset="0.27" stop-color="#fdd9b5"></stop><stop offset="0.43" stop-color="#f6d2ad"></stop><stop offset="0.57" stop-color="#ebc59e"></stop><stop offset="0.69" stop-color="#dbb48a"></stop><stop offset="0.8" stop-color="#c79d70"></stop><stop offset="0.81" stop-color="#c49a6c"></stop><stop offset="1" stop-color="#a97c50"></stop></radialGradient><radialGradient id="radial-gradient-5" cx="165.99" cy="188.5" r="64.25" xlink:href="#radial-gradient-4"></radialGradient><radialGradient id="radial-gradient-6" cx="286.4" cy="156.67" r="46.66" gradientTransform="matrix(-0.85, -0.53, -0.53, 0.85, 571.32, 134)" xlink:href="#radial-gradient-2"></radialGradient><radialGradient id="radial-gradient-7" cx="120.46" cy="49.3" r="87.02" xlink:href="#linear-gradient"></radialGradient><linearGradient id="linear-gradient-15" x1="87.85" y1="138.24" x2="109.92" y2="138.24" gradientUnits="userSpaceOnUse"><stop offset="0" stop-color="#006838"></stop><stop offset="1" stop-color="#39b54a"></stop></linearGradient><linearGradient id="linear-gradient-16" x1="70.99" y1="25.45" x2="66.38" y2="35" gradientUnits="userSpaceOnUse"><stop offset="0" stop-color="#52ef61"></stop><stop offset="1" stop-color="#39b54a"></stop></linearGradient><linearGradient id="linear-gradient-17" x1="168.34" y1="60.44" x2="158.47" y2="79.53" xlink:href="#linear-gradient-16"></linearGradient><linearGradient id="linear-gradient-18" x1="105.63" y1="177.42" x2="104.46" y2="163.06" gradientUnits="userSpaceOnUse"><stop offset="0" stop-color="#39b54a"></stop><stop offset="1" stop-color="#006838"></stop></linearGradient></defs><g id="Capa_2" data-name="Capa 2"><g id="Layer_2" data-name="Layer 2"><path class="cls-2" d="M233.74,219.72,276,101.62h39.39l42.24,118.1H319l-4.47-15.46H276l-4.4,15.46Zm61.54-82.61L283.15,180h24.66Z" transform="translate(50.3)"></path><path class="cls-3" d="M474.37,142.16H437.74a20.18,20.18,0,0,0-7.16-10.75,19.84,19.84,0,0,0-12.13-3.74q-9.93,0-16.56,8.06t-6.64,25.64q0,17.17,6.6,24.94a21.36,21.36,0,0,0,17.09,7.77,22.89,22.89,0,0,0,14-4.31q5.82-4.32,6.88-9.6h-17V154.69h53.06v65H450.84l-1.54-11.55a48.21,48.21,0,0,1-8.14,7.73,37.66,37.66,0,0,1-11.07,5,55.71,55.71,0,0,1-15.46,2,62.92,62.92,0,0,1-29.35-6.72q-13-6.72-20.79-21t-7.82-33.37a76.32,76.32,0,0,1,4.81-27.43,55.76,55.76,0,0,1,30.19-30.84,72.69,72.69,0,0,1,27.43-5q16.61,0,29.1,6.59A48.47,48.47,0,0,1,467.53,123Q472.33,130.67,474.37,142.16Z" transform="translate(50.3)"></path><path class="cls-4" d="M486.44,219.72V101.62h57.71a132.83,132.83,0,0,1,20.35,1.31A44.73,44.73,0,0,1,578.05,107a30.81,30.81,0,0,1,14.57,16.11,33.84,33.84,0,0,1,1.83,12,35.21,35.21,0,0,1-2.81,14.9,26.16,26.16,0,0,1-7.94,9.93,25.07,25.07,0,0,1-9.11,4.23q11.4,4.32,15.47,9.57t4.39,17.7L595,210c.11,2.71.38,4.31.82,4.8a3.92,3.92,0,0,0,2.93,1.22v3.66H559.53q-1.63-4.8-1.87-16.36l-.24-8.71c-.06-4-.69-7.12-1.91-9.32a11.87,11.87,0,0,0-5.5-5c-2.45-1.14-6.13-1.71-11.07-1.71H523.88v41.1Zm37.44-67h18.48q9,0,12.61-3.09a11.46,11.46,0,0,0,.17-16.65q-3.51-3-12.29-3h-19Z" transform="translate(50.3)"></path><path class="cls-5" d="M662.11,222.81q-28.32,0-45.25-17.05t-16.93-45.29a70.7,70.7,0,0,1,3.91-24.25,54.28,54.28,0,0,1,10.54-18.11,53.71,53.71,0,0,1,13.79-11.32,66.47,66.47,0,0,1,15.59-6.1,73.86,73.86,0,0,1,49.81,5.17A51.24,51.24,0,0,1,716,127.14q7.76,14,7.77,32.11,0,17.75-6.84,31.86A55.09,55.09,0,0,1,696.18,214Q682.22,222.81,662.11,222.81Zm-.48-29.13a22.56,22.56,0,0,0,12-3.34q5.46-3.33,8.71-11t3.25-18.76a57.57,57.57,0,0,0-1.58-14.2,30.67,30.67,0,0,0-4.27-10,22.1,22.1,0,0,0-7.21-6.43,20,20,0,0,0-10.21-2.61,22,22,0,0,0-12,3.58q-5.61,3.58-8.91,11.11t-3.29,18.6q0,16.6,7.56,26Q651.71,193.68,661.63,193.68Z" transform="translate(50.3)"></path><path class="cls-6" d="M253.05,245.33a5.27,5.27,0,0,0-3.11-3.83,7.61,7.61,0,0,0-3.07-.6,6.67,6.67,0,0,0-5.32,2.44q-2.09,2.43-2.08,7.34t2.25,7a7.41,7.41,0,0,0,5.13,2,6.64,6.64,0,0,0,4.62-1.62,6.93,6.93,0,0,0,2.21-4.23h-6.19v-4.48h11.16v14.38h-3.71l-.56-3.34a12.74,12.74,0,0,1-2.91,2.67,10.24,10.24,0,0,1-5.46,1.36,11.34,11.34,0,0,1-8.72-3.68q-3.54-3.7-3.55-10.14t3.59-10.43a12.17,12.17,0,0,1,9.47-3.92,12.34,12.34,0,0,1,8.2,2.59,9.6,9.6,0,0,1,3.55,6.46Z" transform="translate(50.3)"></path><path class="cls-7" d="M290.05,237h5.68v16.46a9.21,9.21,0,0,0,.66,4c.67,1.5,2.15,2.25,4.42,2.25s3.72-.75,4.4-2.25a9.39,9.39,0,0,0,.65-4V237h5.69v16.46a13.76,13.76,0,0,1-1.33,6.66q-2.46,4.37-9.41,4.36t-9.44-4.36a13.89,13.89,0,0,1-1.32-6.66Z" transform="translate(50.3)"></path><path class="cls-8" d="M350.65,237H357l9.48,26.79h-6.07l-1.77-5.51h-9.86l-1.82,5.51h-5.86Zm-.37,16.67h6.86l-3.38-10.54Z" transform="translate(50.3)"></path><path class="cls-9" d="M395.83,237h5.87l10.64,18.68V237h5.21v26.79H412l-10.91-19v19h-5.22Z" transform="translate(50.3)"></path><path class="cls-10" d="M456.53,237h6.33l9.48,26.79h-6.07l-1.77-5.51h-9.87l-1.81,5.51H447Zm-.37,16.67H463l-3.39-10.54Z" transform="translate(50.3)"></path><path class="cls-11" d="M505.08,253.6v.62a12,12,0,0,0,.64,4.37,2.94,2.94,0,0,0,4.91-.12,7.5,7.5,0,0,0,.35-2.76V237h5.6v18.65a10.86,10.86,0,0,1-1.15,5.42q-2,3.38-7.06,3.38t-6.84-2.74a13.8,13.8,0,0,1-1.74-7.46v-.62Z" transform="translate(50.3)"></path><path class="cls-12" d="M548.56,237h5.69v16.46a9.39,9.39,0,0,0,.65,4q1,2.25,4.42,2.25t4.4-2.25a9.21,9.21,0,0,0,.66-4V237h5.69v16.46a13.76,13.76,0,0,1-1.33,6.66c-1.65,2.91-4.78,4.36-9.42,4.36s-7.77-1.45-9.43-4.36a13.88,13.88,0,0,1-1.33-6.66Z" transform="translate(50.3)"></path><path class="cls-13" d="M609.16,237h6.34L625,263.76H618.9l-1.76-5.51h-9.87l-1.81,5.51H599.6Zm-.36,16.67h6.86l-3.39-10.54Z" transform="translate(50.3)"></path><path class="cls-14" d="M671.16,237v4.75h-8v22h-5.64v-22h-8V237Z" transform="translate(50.3)"></path><path class="cls-15" d="M720.47,261.38c-2,2.08-5,3.13-8.78,3.13s-6.76-1.05-8.78-3.13q-4.08-3.84-4.07-11,0-7.37,4.07-11.05,3-3.14,8.78-3.13t8.78,3.13q4,3.69,4,11.05T720.47,261.38Zm-3.5-4.07c1.3-1.64,1.95-4,1.95-7s-.65-5.33-1.95-7a6.38,6.38,0,0,0-5.28-2.46,6.48,6.48,0,0,0-5.31,2.45c-1.32,1.64-2,4-2,7s.66,5.34,2,7a6.48,6.48,0,0,0,5.31,2.45A6.4,6.4,0,0,0,717,257.31Z" transform="translate(50.3)"></path><g class="cls-16"><polygon class="cls-17" points="323.17 237.02 167.78 303.18 32.39 204.71 79.69 64.42 284.46 64.42 323.17 237.02"></polygon><path class="cls-18" d="M211.54,91.68a28,28,0,0,0-9.48,7.51,29.63,29.63,0,0,0-2.38,3.34,30.71,30.71,0,0,0-3.38,8.25,30.41,30.41,0,0,0,.72,16.37,30.18,30.18,0,0,0,8.13,12.6,30.49,30.49,0,0,0,4.38,3.4c.91.56,1.84,1.08,2.79,1.55a28.87,28.87,0,0,0,6.66,2.35l.57.11a28.59,28.59,0,0,0,7.09.5,27,27,0,0,0,8.44-1.78,27.6,27.6,0,0,0,6-3.13c7.61-4.5,17.74-18,9.68-35.67C242.53,88.92,223.62,85.81,211.54,91.68Z" transform="translate(50.3)"></path><path class="cls-19" d="M160.87,179.82C144.36,174.36,115,166,110.2,166.05c0,0-6.74-2.18-17.61-.76,0,0-27.5,3.35-46.55,14.7-.71.42-48,3-48.85,3.18C-99.3,200.49-19,248.56-18.19,248.56L99.5,287.79,218,253.17c.9,0-56-70.49-55.87-71.36A1.78,1.78,0,0,0,160.87,179.82Z" transform="translate(50.3)"></path><path class="cls-20" d="M96.73,215.82,67.57,176.6l-1.24-1.41a.51.51,0,0,1-.13-.09c-.25-.25-25.35-24.86-42.6-27.85a.78.78,0,0,1-.64-.9.77.77,0,0,1,.9-.63c12.24,2.1,27.75,14.25,36.55,21.93a27.45,27.45,0,0,0,7.79.91,28.14,28.14,0,0,0,4.19-.47A24.84,24.84,0,0,0,78,164.72c2.18-1.73,6.54-6.89-.87-9.73-8.33-3.2-21.69-10.1-30.64-19-.64-1.51-29.21,1.6-30.35,1.39.05,0,.09.12.11.31l-4.53-.34a19.25,19.25,0,0,0-8.86,1.45L-3,132.33a8.17,8.17,0,0,0-11.54-.64l-18.84,16.87A8.2,8.2,0,0,0-34,160.11l6,6.68a8,8,0,0,0,.62.56,23.41,23.41,0,0,0-1.68,5.2L-31.42,184a11.86,11.86,0,0,0,5.3,12.36l13,8.16a0,0,0,0,0,0,0l26.91,17.31,17.11,23.83a7,7,0,0,0,9.77,1.6,6.91,6.91,0,0,0,2.43-3.14l-18-25.34-1-1.47a1.34,1.34,0,0,1,.12-1.68,1.08,1.08,0,0,1,.21-.22,1.32,1.32,0,0,1,.54-.22,1.41,1.41,0,0,1,.41,0,1.32,1.32,0,0,1,.95.56l.3.42,16.67,23.5,5.37,7.57a8.86,8.86,0,0,0,10-.53,9.56,9.56,0,0,0,3.52-4.81L40.42,212.33l-4.21-5.7a1.36,1.36,0,0,1,.19-1.74c.05,0,.09-.11.15-.15a1.08,1.08,0,0,1,.24-.12,1.36,1.36,0,0,1,1.66.44l.43.58,3.62,4.91,20,27L70.17,248a10.83,10.83,0,0,0,16-8.87L64,209.43,52.51,194a1.32,1.32,0,0,1,.08-1.73,1.24,1.24,0,0,1,.14-.18.32.32,0,0,1,.15-.06,1.32,1.32,0,0,1,.87-.23,1.41,1.41,0,0,1,.91.51l.71,1L65.7,207.13,83.16,230.5a10.12,10.12,0,0,0,13.57-14.68Z" transform="translate(50.3)"></path><path class="cls-21" d="M100.65,215.82l29.16-39.22s.57-.64,1.23-1.41a.42.42,0,0,0,.14-.09c.25-.25,25.34-24.86,42.6-27.85a.78.78,0,0,0,.64-.9.77.77,0,0,0-.9-.63c-12.24,2.1-27.75,14.25-36.55,21.93a27.45,27.45,0,0,1-7.79.91,28.14,28.14,0,0,1-4.19-.47,24.84,24.84,0,0,1-5.58-3.37c-2.18-1.73-6.54-6.89.86-9.73,8.33-3.2,21.7-10.1,30.65-19,.64-1.51,29.21,1.6,30.35,1.39-.05,0-.09.12-.12.31l4.54-.34a19.25,19.25,0,0,1,8.86,1.45l5.83-6.51c3-3.37,15.63-6.47,19-3.46l11.38,19.69a8.2,8.2,0,0,1,.64,11.55l-6,6.68a8,8,0,0,1-.62.56,24,24,0,0,1,1.69,5.2L228.8,184a11.86,11.86,0,0,1-5.3,12.36l-13,8.16a0,0,0,0,1,0,0l-26.92,17.31-17.1,23.83a7,7,0,0,1-9.77,1.6,6.91,6.91,0,0,1-2.43-3.14l18-25.34,1-1.47a1.36,1.36,0,0,0-.12-1.68,1.45,1.45,0,0,0-.21-.22,1.32,1.32,0,0,0-.54-.22,1.41,1.41,0,0,0-.41,0,1.32,1.32,0,0,0-.95.56l-.3.42-16.67,23.5-5.37,7.57a8.86,8.86,0,0,1-10-.53,9.56,9.56,0,0,1-3.52-4.81L157,212.33l4.21-5.7a1.36,1.36,0,0,0-.19-1.74s-.08-.11-.15-.15a1.08,1.08,0,0,0-.24-.12,1.36,1.36,0,0,0-1.66.44l-.43.58-3.62,4.91-19.95,27L127.21,248a10.83,10.83,0,0,1-16-8.87l22.2-29.71L144.87,194a1.33,1.33,0,0,0-.08-1.73,1.24,1.24,0,0,0-.14-.18.32.32,0,0,0-.15-.06,1.32,1.32,0,0,0-.87-.23,1.41,1.41,0,0,0-.91.51l-.71,1-10.33,13.81L114.22,230.5a10.12,10.12,0,0,1-13.57-14.68Z" transform="translate(50.3)"></path><path class="cls-22" d="M177.33,124a.74.74,0,0,1-.57-.62.7.7,0,0,1,.42-.72l14.08-5.89a35.71,35.71,0,0,0,1,10Z" transform="translate(50.3)"></path></g><path class="cls-23" d="M65.17,64.68l26.25,3.24,7,5.46,9-3.49L119,71.33l10.64,10.36-.39,5.14L155,99.49l15-3.95,3.68-17.47,16.5,2,12.67,5,10.67,11.59H223l1.58,8.3L242,100.68l.07,20.52,9.85-1,.36.7-15.48,14L217.08,126l-1.14,6.38,2.72,1.14-2.77,15-2.8-.26L211.36,158l-1.4,1.26-24.46.51v4.86H171.89V160h-.31l-15,12.26,3.2,7-4.39,3.7,6.73,9.1h3.51l3.18,7-3.53,1.35,3.17,18.2,8.31,1.58,1.18,5.14,3.16.58,3.17,6.93-1.89,1.45-4.83,16.35,4,5.15-16.62,8.31H143.29l-4.14,3.16-5.66-3.76-14.91,2.18-4-2.77,4.35-5.54-4.75-3.56,1.51-2.11-6.49-4.32-18.75,8.41-17-2.38-5.54-25.31,1.75-7-.9-.6-19.44,5.23-7.91,11.08-7.38.29-1.7-1.85L26,234.35l-4.76,3.17-5.89-6.13L14.92,222l-13-4.63,12.66-17.81L12.37,183,3.46,177,22.75,141.9,24.82,143,35.5,123.62,47,122.83l-3.16-12.66,11.47-2L48.1,95.76,65.17,64.68m-.65-1.28-.39.71L47.06,95.19l-.32.59.33.58,6.34,11L43.61,109l-1.26.22.31,1.24,2.82,11.28-10.06.7-.64,0-.32.57L24.35,141.41l-1-.55-1-.55-.57,1L2.42,176.45l-.52,1,.91.6,8.45,5.63,2,15.63L.91,216.69,0,218l1.48.52,12.29,4.37.39,8.59,0,.44.31.33,5.89,6.12.68.72.83-.55,4.38-2.93,5.51.74,1.41,1.53.37.41.55,0,7.37-.29.58,0,.34-.48,7.67-10.73,18.21-4.9-1.49,6-.07.27.06.27,5.54,25.32.18.8.82.12,17,2.37.34.05.31-.14,18.16-8.14,4.93,3.28-.8,1.11-.67.94.92.7,3.78,2.83-3.6,4.59-.78,1,1,.72,4,2.77.39.27.46-.07,14.46-2.11,5.28,3.51.71.47.67-.52,3.82-2.92h21.45l.25-.12L182,256.81l1.28-.64-.87-1.14-3.59-4.67,4.55-15.4,1.59-1.22.75-.57-.4-.86-3.17-6.93-.25-.56-.61-.11-2.4-.45-1-4.38-.17-.75L177,219l-7.5-1.43-2.86-16.42,2.62-1,1.18-.45-.53-1.15-3.18-7-.32-.69h-3.67L157,183.15l3.53-3,.69-.58-.38-.82L158,172.62l12.69-10.35v3.5h16v-4.88l23.29-.48h.45l.32-.3,1.4-1.26.3-.27.08-.4,1.53-8.6,1.72.16,1.08.1.2-1.07,2.77-15,.17-.94-.88-.37-1.85-.77.71-4L236.31,136l.71.32.58-.52,15.48-14,.67-.61-.41-.8-.36-.71-.37-.73-.81.09-8.55.91-.07-19.2V99.16l-1.47.37-16.19,4-1.34-7.08-.19-1H214L203.72,84.33l-.19-.2-.25-.1-12.66-5-.15-.06-.15,0-16.49-2-1.09-.13-.22,1.07L169,94.57l-13.9,3.66L130.5,86.12l.33-4.34,0-.55-.4-.39L119.84,70.48l-.29-.28-.4,0-11.64-1.44-.3,0-.28.11L98.6,72l-6.45-5-.26-.2-.32,0L65.32,63.5l-.8-.1Z" transform="translate(50.3)"></path><path class="cls-24" d="M142.87,106.23a86.1,86.1,0,0,1-3.23-13.38c-1.15-7.39,24.92-32.08,32.77-26.77s16.84,15,10.38,21.69S142.87,106.23,142.87,106.23Z" transform="translate(50.3)"></path><path class="cls-24" d="M108,97.26s-13,10.16-40.63,3.39,4-51.35,11.29-48S124.92,72.43,108,97.26Z" transform="translate(50.3)"></path><path class="cls-25" d="M191.6,41s-4.27,10-17.92,15.32C156.63,63,133.8,65.27,139.92,94.44c0,0,15.41-2.07,24.05-9.92a.71.71,0,0,1,.93,0,.67.67,0,0,1,.17.89c-10.94,18.66-42.56,28.51-50.7,36.08a62.49,62.49,0,0,0-1.53-26s15.59-18,10.62-37c-4.83-18.56-20.24-28.35-44.83-32.89C59.14,21.93,44.06,8.81,40,0c0,0-13.24,33.07-7.91,58.78S51,107,94.92,102.33c0,0-.72-20.71-9.2-37.52a.5.5,0,0,1,.2-.66.51.51,0,0,1,.68.14c6.31,8.52,17.05,24.13,18.26,33.15,5.23,39.13-16.47,44.79-17.21,71.67l-.18,0a9.41,9.41,0,0,1,2.37,4c1,3.75,5.76,10.32,11,5.63s5.75-4.22,8.63-4.22c1.89,0,.68-2.22-.38-4.55H109s-4.76-9.59-1.75-19.68c7.39-24.67,32.72-34.11,37.56-38,0,0,21.64,4.78,36.72-7C197.84,92.58,204.13,68.52,191.6,41Z" transform="translate(50.3)"></path><path class="cls-24" d="M145.54,110.24c-4,1.8-5.78,2.89-9.4,4.7-13.18,6.59-20.22,13-20.22,10.47a5.61,5.61,0,0,0-1.55-4s.1,8.65-5.32,19.13c0,0-3.6,12.68-2.77,18.56a25.16,25.16,0,0,1,.94-8.81c7.39-24.67,32.72-34.11,37.56-38a8.59,8.59,0,0,1,1.47.26c-.91-.14-1.47-.26-1.47-.26s21.64,4.78,36.72-7c.9-.7,1.76-1.46,2.6-2.24.23-.2.45-.41.67-.62.74-.72,1.47-1.46,2.16-2.23l.25-.27c.72-.81,1.4-1.67,2.06-2.55l.68-.94c.48-.67.94-1.37,1.39-2.08.23-.39.47-.77.7-1.15.44-.77.86-1.55,1.27-2.35.23-.47.46-1,.68-1.43s.49-1.12.72-1.68c.35-.87.68-1.76,1-2.66q.27-.77.51-1.56c.2-.66.37-1.33.54-2,.1-.4.19-.8.28-1.2.32-1.42.57-2.87.76-4.36,0-.18.06-.36.08-.54.1-.82.17-1.65.23-2.48,0-.32,0-.63.05-.94.09-1.77.1-3.57,0-5.41v0c-.51,7.69-5.36,32.18-23.7,40.38C160.71,113.13,152.75,113.84,145.54,110.24Z" transform="translate(50.3)"></path><path class="cls-26" d="M107.65,99.31c2,4.31,3.12,19.15,1.43,27.61-2.07,10.38-9.49,21-14.23,33.5-4.35,11.43-1.47,17.85-1,18.83a11.89,11.89,0,0,1-4-6.08,8.94,8.94,0,0,0-2-3.6c1.75-12.44,8.67-24.52,15.6-37.31C111.16,118,105.21,99,105.21,99a34,34,0,0,0,3.33-1.77S107.34,98.66,107.65,99.31Z" transform="translate(50.3)"></path><path class="cls-27" d="M40.66,3.41S53.05,29,71.43,37.85s41.78,4.13,31.68-2.76C92.56,27.9,60.41,32.34,40.66,3.41Z" transform="translate(50.3)"></path><path class="cls-28" d="M187.87,52.18s-18.94,33.28-35,34.44c-18.4,1.32-6.07-20.06,7.46-21.81C178.11,62.51,187.87,52.18,187.87,52.18Z" transform="translate(50.3)"></path><path class="cls-29" d="M100.92,178.67a70.62,70.62,0,0,0,0-8.27c-.29-3-1.48-9.46,1.48-6.8s9.46,10.34,7.39,11.82S106.54,173.65,100.92,178.67Z" transform="translate(50.3)"></path></g></g></svg>