<?xml version="1.0" encoding="utf-8"?>
<!-- Generator: Adobe Illustrator 24.0.1, SVG Export Plug-In . SVG Version: 6.00 Build 0)  -->
<svg version="1.1" id="Layer_1" xmlns="http://www.w3.org/2000/svg" xmlns:xlink="http://www.w3.org/1999/xlink" x="0px" y="0px"
	 viewBox="0 0 120.5 63.9" style="enable-background:new 0 0 120.5 63.9;" xml:space="preserve">
<style type="text/css">
	.st0{fill:#1C1B1A;}
	.st1{fill:#3A3B3A;}
	.st2{fill-rule:evenodd;clip-rule:evenodd;fill:url(#SVGID_1_);}
	.st3{fill-rule:evenodd;clip-rule:evenodd;fill:url(#SVGID_2_);stroke:#1C1B1A;stroke-width:0.75;stroke-miterlimit:22.9256;}
	.st4{fill-rule:evenodd;clip-rule:evenodd;fill:url(#SVGID_3_);stroke:#A6C839;stroke-width:0.25;stroke-miterlimit:22.9256;}
	.st5{fill-rule:evenodd;clip-rule:evenodd;fill:url(#SVGID_4_);stroke:#A6C839;stroke-width:0.25;stroke-miterlimit:22.9256;}
</style>
<g>
	<path class="st0" d="M69.3,29h1.9v11.4c0,2-0.2,3.5-0.5,4.4c-0.5,1.3-1.3,2.3-2.5,3c-1.2,0.7-2.6,1.1-4.3,1.1
		c-1.2,0-2.3-0.2-3.3-0.5c-1-0.3-1.8-0.8-2.4-1.4c-0.6-0.6-1.2-1.4-1.7-2.6h2c0.5,0.9,1.2,1.6,2.1,2.1c0.9,0.5,1.9,0.7,3.2,0.7
		c1.3,0,2.3-0.2,3.2-0.7c0.9-0.5,1.5-1.1,1.8-1.8c0.4-0.7,0.6-1.9,0.6-3.4v-0.7c-0.7,0.9-1.5,1.5-2.5,2c-1,0.5-2.1,0.7-3.2,0.7
		c-1.3,0-2.6-0.3-3.7-1c-1.2-0.7-2-1.5-2.7-2.6c-0.6-1.1-0.9-2.3-0.9-3.6c0-1.3,0.3-2.6,1-3.7c0.7-1.1,1.6-2,2.7-2.7
		c1.2-0.7,2.4-1,3.7-1c1.1,0,2.1,0.2,3,0.7c0.9,0.4,1.8,1.2,2.7,2.2V29L69.3,29z M63.9,30.4c-1,0-2,0.3-2.9,0.8
		c-0.9,0.5-1.6,1.2-2.1,2.1c-0.5,0.9-0.8,1.9-0.8,2.9c0,1.6,0.5,2.9,1.6,3.9c1,1,2.4,1.5,4.1,1.5c1.7,0,3-0.5,4.1-1.5
		c1-1,1.5-2.3,1.5-4c0-1.1-0.2-2-0.7-2.9c-0.5-0.8-1.1-1.5-2-2C65.8,30.6,64.9,30.4,63.9,30.4z"/>
	<path class="st1" d="M35.8,54.9l2-5.5h0.7l2.2,5.5h-0.8l-0.6-1.7h-2.2l-0.6,1.7H35.8L35.8,54.9z M37.3,52.6h1.8l-0.5-1.5
		c-0.2-0.5-0.3-0.8-0.4-1.1c-0.1,0.4-0.2,0.7-0.3,1L37.3,52.6z"/>
	<path class="st1" d="M41,55.2l0.6,0.1c0,0.2,0.1,0.3,0.2,0.4c0.2,0.1,0.4,0.2,0.7,0.2c0.3,0,0.5-0.1,0.7-0.2
		c0.2-0.1,0.3-0.3,0.3-0.5c0-0.1,0-0.4,0-0.9c-0.3,0.3-0.6,0.5-1.1,0.5c-0.5,0-0.9-0.2-1.2-0.6c-0.3-0.4-0.4-0.9-0.4-1.4
		c0-0.4,0.1-0.7,0.2-1c0.1-0.3,0.3-0.6,0.6-0.7c0.2-0.2,0.5-0.3,0.9-0.3c0.4,0,0.8,0.2,1.1,0.6v-0.5h0.6v3.4c0,0.6-0.1,1.1-0.2,1.3
		c-0.1,0.3-0.3,0.5-0.6,0.6c-0.3,0.1-0.6,0.2-1,0.2c-0.5,0-0.8-0.1-1.1-0.3C41.2,55.9,41,55.6,41,55.2L41,55.2z M41.6,52.8
		c0,0.5,0.1,0.9,0.3,1.1c0.2,0.2,0.4,0.4,0.7,0.4c0.3,0,0.5-0.1,0.7-0.4c0.2-0.2,0.3-0.6,0.3-1.1c0-0.5-0.1-0.9-0.3-1.1
		c-0.2-0.2-0.5-0.4-0.7-0.4c-0.3,0-0.5,0.1-0.7,0.4C41.7,52,41.6,52.3,41.6,52.8z"/>
	<path class="st1" d="M45.2,54.9v-4h0.6v0.6c0.1-0.3,0.3-0.5,0.4-0.6c0.1-0.1,0.3-0.1,0.4-0.1c0.2,0,0.4,0.1,0.7,0.2l-0.2,0.6
		c-0.2-0.1-0.3-0.1-0.5-0.1c-0.1,0-0.3,0-0.4,0.1C46.1,51.7,46,51.8,46,52c-0.1,0.2-0.1,0.5-0.1,0.8v2.1H45.2z"/>
	<path class="st1" d="M47.4,52.9c0-0.7,0.2-1.3,0.6-1.6c0.3-0.3,0.7-0.4,1.2-0.4c0.5,0,1,0.2,1.3,0.5c0.3,0.4,0.5,0.9,0.5,1.5
		c0,0.5-0.1,0.9-0.2,1.2c-0.1,0.3-0.4,0.5-0.6,0.7c-0.3,0.2-0.6,0.2-0.9,0.2c-0.5,0-1-0.2-1.3-0.5C47.6,54.1,47.4,53.5,47.4,52.9
		L47.4,52.9z M48.1,52.9c0,0.5,0.1,0.9,0.3,1.1c0.2,0.3,0.5,0.4,0.8,0.4c0.3,0,0.6-0.1,0.8-0.4c0.2-0.3,0.3-0.6,0.3-1.2
		c0-0.5-0.1-0.9-0.3-1.1c-0.2-0.3-0.5-0.4-0.8-0.4c-0.3,0-0.6,0.1-0.8,0.4C48.2,52,48.1,52.4,48.1,52.9z"/>
	<path class="st1" d="M51.8,50.2v-0.8h0.6v0.8H51.8L51.8,50.2z M51.8,54.9v-4h0.6v4H51.8z"/>
	<path class="st1" d="M53.4,54.9v-4H54v0.6c0.3-0.4,0.7-0.7,1.2-0.7c0.2,0,0.4,0,0.6,0.1c0.2,0.1,0.3,0.2,0.4,0.3
		c0.1,0.1,0.2,0.3,0.2,0.5c0,0.1,0,0.3,0,0.7v2.4h-0.6v-2.4c0-0.3,0-0.5-0.1-0.6c-0.1-0.1-0.1-0.2-0.3-0.3c-0.1-0.1-0.3-0.1-0.4-0.1
		c-0.3,0-0.5,0.1-0.7,0.3c-0.2,0.2-0.3,0.5-0.3,1v2.2H53.4z"/>
	<path class="st1" d="M59.9,54.9v-0.5c-0.2,0.4-0.6,0.6-1.1,0.6c-0.3,0-0.6-0.1-0.8-0.3c-0.3-0.2-0.5-0.4-0.6-0.7
		c-0.1-0.3-0.2-0.7-0.2-1.1c0-0.4,0.1-0.8,0.2-1.1c0.1-0.3,0.3-0.6,0.6-0.7c0.3-0.2,0.5-0.3,0.9-0.3c0.2,0,0.4,0.1,0.6,0.2
		c0.2,0.1,0.3,0.2,0.4,0.4v-2h0.6v5.5H59.9L59.9,54.9z M57.9,52.9c0,0.5,0.1,0.9,0.3,1.1c0.2,0.3,0.4,0.4,0.7,0.4
		c0.3,0,0.5-0.1,0.7-0.4c0.2-0.2,0.3-0.6,0.3-1.1c0-0.5-0.1-0.9-0.3-1.2c-0.2-0.3-0.4-0.4-0.7-0.4c-0.3,0-0.5,0.1-0.7,0.4
		C58,52,57.9,52.4,57.9,52.9z"/>
	<path class="st1" d="M64.1,54.9v-0.6c-0.3,0.4-0.7,0.7-1.2,0.7c-0.2,0-0.4,0-0.6-0.1c-0.2-0.1-0.3-0.2-0.4-0.3
		c-0.1-0.1-0.2-0.3-0.2-0.5c0-0.1,0-0.3,0-0.6v-2.5h0.6v2.2c0,0.4,0,0.6,0,0.7c0,0.2,0.1,0.3,0.3,0.4c0.1,0.1,0.3,0.2,0.5,0.2
		c0.2,0,0.4-0.1,0.5-0.2c0.2-0.1,0.3-0.2,0.4-0.4C64,53.6,64,53.4,64,53v-2.1h0.6v4H64.1z"/>
	<path class="st1" d="M65.4,53.7l0.6-0.1c0,0.3,0.1,0.5,0.3,0.6c0.2,0.1,0.4,0.2,0.7,0.2c0.3,0,0.5-0.1,0.7-0.2
		c0.1-0.1,0.2-0.3,0.2-0.4c0-0.2-0.1-0.3-0.2-0.4c-0.1-0.1-0.3-0.1-0.7-0.2c-0.5-0.1-0.8-0.2-1-0.3c-0.2-0.1-0.3-0.2-0.4-0.4
		c-0.1-0.2-0.1-0.3-0.1-0.5c0-0.2,0-0.3,0.1-0.5c0.1-0.2,0.2-0.3,0.3-0.4c0.1-0.1,0.2-0.1,0.4-0.2c0.2-0.1,0.4-0.1,0.6-0.1
		c0.3,0,0.6,0,0.8,0.1c0.2,0.1,0.4,0.2,0.5,0.4c0.1,0.2,0.2,0.4,0.2,0.6L67.8,52c0-0.2-0.1-0.4-0.2-0.5c-0.1-0.1-0.3-0.2-0.6-0.2
		c-0.3,0-0.5,0.1-0.6,0.2c-0.1,0.1-0.2,0.2-0.2,0.4c0,0.1,0,0.2,0.1,0.2c0.1,0.1,0.1,0.1,0.2,0.2c0.1,0,0.3,0.1,0.6,0.2
		c0.5,0.1,0.8,0.2,1,0.3c0.2,0.1,0.3,0.2,0.4,0.4c0.1,0.2,0.2,0.3,0.2,0.6c0,0.2-0.1,0.4-0.2,0.6c-0.1,0.2-0.3,0.4-0.5,0.5
		C67.6,54.9,67.3,55,67,55c-0.5,0-0.9-0.1-1.1-0.3C65.6,54.4,65.5,54.1,65.4,53.7z"/>
	<path class="st1" d="M70.7,54.3l0.1,0.6c-0.2,0-0.3,0.1-0.5,0.1c-0.2,0-0.4,0-0.5-0.1c-0.1-0.1-0.2-0.2-0.3-0.3
		c-0.1-0.1-0.1-0.4-0.1-0.8v-2.3H69v-0.5h0.5v-1l0.6-0.4v1.4h0.6v0.5h-0.6v2.3c0,0.2,0,0.3,0,0.4c0,0.1,0.1,0.1,0.1,0.1
		c0.1,0,0.1,0,0.2,0C70.5,54.3,70.6,54.3,70.7,54.3z"/>
	<path class="st1" d="M71.3,54.9v-4h0.6v0.6c0.1-0.3,0.3-0.5,0.4-0.6c0.1-0.1,0.3-0.1,0.4-0.1c0.2,0,0.4,0.1,0.7,0.2l-0.2,0.6
		c-0.2-0.1-0.3-0.1-0.5-0.1c-0.1,0-0.3,0-0.4,0.1c-0.1,0.1-0.2,0.2-0.2,0.4C72,52.2,72,52.5,72,52.8v2.1H71.3z"/>
	<path class="st1" d="M73.8,50.2v-0.8h0.6v0.8H73.8L73.8,50.2z M73.8,54.9v-4h0.6v4H73.8z"/>
	<path class="st1" d="M77.9,54.4c-0.2,0.2-0.5,0.4-0.7,0.4C77,54.9,76.8,55,76.5,55c-0.4,0-0.7-0.1-1-0.3c-0.2-0.2-0.3-0.5-0.3-0.8
		c0-0.2,0-0.4,0.1-0.5c0.1-0.2,0.2-0.3,0.3-0.4c0.1-0.1,0.3-0.2,0.5-0.2c0.1,0,0.3-0.1,0.6-0.1c0.5-0.1,0.9-0.1,1.2-0.2
		c0-0.1,0-0.2,0-0.2c0-0.3-0.1-0.5-0.2-0.6c-0.2-0.2-0.4-0.2-0.7-0.2c-0.3,0-0.5,0.1-0.7,0.2c-0.1,0.1-0.3,0.3-0.3,0.6L75.3,52
		c0.1-0.3,0.2-0.5,0.3-0.7c0.1-0.2,0.3-0.3,0.6-0.4c0.2-0.1,0.5-0.1,0.9-0.1c0.3,0,0.6,0,0.8,0.1c0.2,0.1,0.4,0.2,0.4,0.3
		c0.1,0.1,0.2,0.3,0.2,0.5c0,0.1,0,0.3,0,0.6v0.9c0,0.6,0,1,0,1.2c0,0.2,0.1,0.3,0.2,0.5H78C78,54.7,77.9,54.6,77.9,54.4L77.9,54.4z
		 M77.9,52.9c-0.2,0.1-0.6,0.2-1.1,0.3c-0.3,0-0.5,0.1-0.6,0.1c-0.1,0-0.2,0.1-0.3,0.2c-0.1,0.1-0.1,0.2-0.1,0.3
		c0,0.2,0.1,0.3,0.2,0.4c0.1,0.1,0.3,0.2,0.6,0.2c0.2,0,0.5-0.1,0.7-0.2c0.2-0.1,0.3-0.3,0.4-0.5c0.1-0.2,0.1-0.4,0.1-0.7V52.9z"/>
	<path class="st1" d="M84,54.9v-0.5C83.8,54.8,83.4,55,83,55c-0.3,0-0.6-0.1-0.8-0.3c-0.3-0.2-0.5-0.4-0.6-0.7
		c-0.1-0.3-0.2-0.7-0.2-1.1c0-0.4,0.1-0.8,0.2-1.1c0.1-0.3,0.3-0.6,0.6-0.7c0.3-0.2,0.5-0.3,0.9-0.3c0.2,0,0.4,0.1,0.6,0.2
		c0.2,0.1,0.3,0.2,0.4,0.4v-2h0.6v5.5H84L84,54.9z M82,52.9c0,0.5,0.1,0.9,0.3,1.1c0.2,0.3,0.4,0.4,0.7,0.4c0.3,0,0.5-0.1,0.7-0.4
		c0.2-0.2,0.3-0.6,0.3-1.1c0-0.5-0.1-0.9-0.3-1.2c-0.2-0.3-0.4-0.4-0.7-0.4c-0.3,0-0.5,0.1-0.7,0.4C82.1,52,82,52.4,82,52.9z"/>
	<path class="st1" d="M88.2,53.6l0.7,0.1c-0.1,0.4-0.3,0.7-0.6,0.9C88,54.8,87.7,55,87.2,55c-0.6,0-1-0.2-1.3-0.5
		c-0.3-0.4-0.5-0.9-0.5-1.5c0-0.7,0.2-1.2,0.5-1.6c0.3-0.4,0.8-0.6,1.3-0.6c0.5,0,0.9,0.2,1.2,0.5c0.3,0.4,0.5,0.9,0.5,1.5
		c0,0,0,0.1,0,0.2h-2.8c0,0.4,0.1,0.8,0.4,1c0.2,0.2,0.5,0.3,0.8,0.3c0.2,0,0.4-0.1,0.6-0.2C88,54.1,88.1,53.9,88.2,53.6L88.2,53.6z
		 M86.1,52.5h2.1c0-0.3-0.1-0.6-0.2-0.7c-0.2-0.3-0.5-0.4-0.8-0.4c-0.3,0-0.5,0.1-0.7,0.3C86.2,51.9,86.1,52.2,86.1,52.5z"/>
	<path class="st1" d="M28.9,62.3l2-5.5h0.7l2.1,5.5h-0.8l-0.6-1.7h-2.1l-0.6,1.7H28.9L28.9,62.3z M30.4,60.1h1.7l-0.5-1.5
		c-0.2-0.5-0.3-0.8-0.4-1.1c-0.1,0.4-0.2,0.7-0.3,1L30.4,60.1z"/>
	<path class="st1" d="M34,62.6l0.6,0.1c0,0.2,0.1,0.3,0.2,0.4c0.2,0.1,0.4,0.2,0.6,0.2c0.3,0,0.5-0.1,0.7-0.2
		c0.2-0.1,0.3-0.3,0.3-0.5c0-0.1,0-0.4,0-0.9c-0.3,0.3-0.6,0.5-1,0.5c-0.5,0-0.9-0.2-1.2-0.6c-0.3-0.4-0.4-0.9-0.4-1.4
		c0-0.4,0.1-0.7,0.2-1c0.1-0.3,0.3-0.6,0.6-0.7c0.2-0.2,0.5-0.3,0.9-0.3c0.4,0,0.8,0.2,1.1,0.6v-0.5h0.6v3.4c0,0.6-0.1,1.1-0.2,1.3
		c-0.1,0.3-0.3,0.5-0.6,0.6c-0.3,0.1-0.6,0.2-0.9,0.2c-0.4,0-0.8-0.1-1.1-0.3C34.1,63.4,34,63.1,34,62.6L34,62.6z M34.5,60.2
		c0,0.5,0.1,0.9,0.3,1.1c0.2,0.2,0.4,0.4,0.7,0.4c0.3,0,0.5-0.1,0.7-0.4c0.2-0.2,0.3-0.6,0.3-1.1c0-0.5-0.1-0.9-0.3-1.1
		c-0.2-0.2-0.4-0.4-0.7-0.4c-0.3,0-0.5,0.1-0.7,0.4C34.6,59.4,34.5,59.8,34.5,60.2z"/>
	<path class="st1" d="M40.6,62.3v-0.6c-0.3,0.4-0.7,0.7-1.2,0.7c-0.2,0-0.4,0-0.6-0.1c-0.2-0.1-0.3-0.2-0.4-0.3
		c-0.1-0.1-0.2-0.3-0.2-0.5c0-0.1,0-0.3,0-0.6v-2.5h0.6v2.2c0,0.4,0,0.6,0,0.7c0,0.2,0.1,0.3,0.3,0.4c0.1,0.1,0.3,0.2,0.5,0.2
		c0.2,0,0.4-0.1,0.5-0.2c0.2-0.1,0.3-0.2,0.4-0.4c0.1-0.2,0.1-0.4,0.1-0.8v-2.1h0.6v4H40.6z"/>
	<path class="st1" d="M44.6,61.8c-0.2,0.2-0.5,0.4-0.7,0.4c-0.2,0.1-0.4,0.1-0.7,0.1c-0.4,0-0.7-0.1-0.9-0.3
		c-0.2-0.2-0.3-0.5-0.3-0.8c0-0.2,0-0.4,0.1-0.5c0.1-0.2,0.2-0.3,0.3-0.4c0.1-0.1,0.3-0.2,0.5-0.2c0.1,0,0.3-0.1,0.6-0.1
		c0.5-0.1,0.9-0.1,1.1-0.2c0-0.1,0-0.2,0-0.2c0-0.3-0.1-0.5-0.2-0.6c-0.2-0.2-0.4-0.2-0.7-0.2c-0.3,0-0.5,0.1-0.7,0.2
		c-0.1,0.1-0.2,0.3-0.3,0.6L42,59.5c0.1-0.3,0.1-0.5,0.3-0.7c0.1-0.2,0.3-0.3,0.6-0.4c0.2-0.1,0.5-0.1,0.8-0.1c0.3,0,0.6,0,0.8,0.1
		c0.2,0.1,0.3,0.2,0.4,0.3c0.1,0.1,0.2,0.3,0.2,0.5c0,0.1,0,0.3,0,0.6v0.9c0,0.6,0,1,0,1.2c0,0.2,0.1,0.3,0.2,0.5h-0.7
		C44.6,62.2,44.6,62,44.6,61.8L44.6,61.8z M44.5,60.3c-0.2,0.1-0.6,0.2-1,0.3c-0.3,0-0.4,0.1-0.6,0.1c-0.1,0.1-0.2,0.1-0.2,0.2
		c-0.1,0.1-0.1,0.2-0.1,0.3c0,0.2,0.1,0.3,0.2,0.4c0.1,0.1,0.3,0.2,0.6,0.2c0.2,0,0.5-0.1,0.6-0.2c0.2-0.1,0.3-0.3,0.4-0.5
		c0.1-0.2,0.1-0.4,0.1-0.7V60.3z"/>
	<path class="st1" d="M45.9,61.1l0.6-0.1c0,0.3,0.1,0.5,0.3,0.6c0.2,0.1,0.4,0.2,0.7,0.2c0.3,0,0.5-0.1,0.6-0.2
		c0.1-0.1,0.2-0.3,0.2-0.4c0-0.2-0.1-0.3-0.2-0.4c-0.1-0.1-0.3-0.1-0.6-0.2c-0.5-0.1-0.8-0.2-1-0.3c-0.2-0.1-0.3-0.2-0.4-0.4
		C46,59.8,46,59.6,46,59.4c0-0.2,0-0.3,0.1-0.5c0.1-0.2,0.2-0.3,0.3-0.4c0.1-0.1,0.2-0.1,0.4-0.2c0.2-0.1,0.4-0.1,0.5-0.1
		c0.3,0,0.5,0,0.8,0.1c0.2,0.1,0.4,0.2,0.5,0.4c0.1,0.2,0.2,0.4,0.2,0.6l-0.6,0.1c0-0.2-0.1-0.4-0.2-0.5c-0.1-0.1-0.3-0.2-0.6-0.2
		c-0.3,0-0.5,0.1-0.6,0.2c-0.1,0.1-0.2,0.2-0.2,0.4c0,0.1,0,0.2,0.1,0.2c0.1,0.1,0.1,0.1,0.2,0.2c0.1,0,0.2,0.1,0.6,0.2
		c0.4,0.1,0.8,0.2,0.9,0.3c0.2,0.1,0.3,0.2,0.4,0.4c0.1,0.2,0.2,0.3,0.2,0.6c0,0.2-0.1,0.4-0.2,0.6c-0.1,0.2-0.3,0.4-0.5,0.5
		c-0.2,0.1-0.5,0.2-0.8,0.2c-0.5,0-0.9-0.1-1.1-0.3C46.1,61.9,45.9,61.5,45.9,61.1z"/>
	<path class="st1" d="M52.1,60.8l0.6,0.1c-0.1,0.5-0.2,0.8-0.5,1.1c-0.3,0.3-0.6,0.4-1,0.4c-0.5,0-0.9-0.2-1.2-0.5
		c-0.3-0.4-0.5-0.9-0.5-1.5c0-0.4,0.1-0.8,0.2-1.1c0.1-0.3,0.3-0.6,0.6-0.7c0.3-0.2,0.6-0.2,0.9-0.2c0.4,0,0.7,0.1,1,0.3
		c0.3,0.2,0.4,0.5,0.5,0.9l-0.6,0.1c-0.1-0.3-0.2-0.5-0.3-0.6c-0.1-0.1-0.3-0.2-0.5-0.2c-0.3,0-0.6,0.1-0.8,0.4
		c-0.2,0.2-0.3,0.6-0.3,1.2c0,0.5,0.1,0.9,0.3,1.2c0.2,0.2,0.4,0.4,0.7,0.4c0.2,0,0.5-0.1,0.6-0.2C52,61.4,52.1,61.2,52.1,60.8z"/>
	<path class="st1" d="M55.7,61.8c-0.2,0.2-0.5,0.4-0.7,0.4c-0.2,0.1-0.4,0.1-0.7,0.1c-0.4,0-0.7-0.1-0.9-0.3
		c-0.2-0.2-0.3-0.5-0.3-0.8c0-0.2,0-0.4,0.1-0.5c0.1-0.2,0.2-0.3,0.3-0.4c0.1-0.1,0.3-0.2,0.5-0.2c0.1,0,0.3-0.1,0.6-0.1
		c0.5-0.1,0.9-0.1,1.1-0.2c0-0.1,0-0.2,0-0.2c0-0.3-0.1-0.5-0.2-0.6c-0.2-0.2-0.4-0.2-0.7-0.2c-0.3,0-0.5,0.1-0.7,0.2
		c-0.1,0.1-0.2,0.3-0.3,0.6l-0.6-0.1c0.1-0.3,0.1-0.5,0.3-0.7c0.1-0.2,0.3-0.3,0.6-0.4c0.2-0.1,0.5-0.1,0.8-0.1c0.3,0,0.6,0,0.8,0.1
		c0.2,0.1,0.3,0.2,0.4,0.3c0.1,0.1,0.2,0.3,0.2,0.5c0,0.1,0,0.3,0,0.6v0.9c0,0.6,0,1,0,1.2c0,0.2,0.1,0.3,0.2,0.5h-0.7
		C55.8,62.2,55.7,62,55.7,61.8L55.7,61.8z M55.7,60.3c-0.2,0.1-0.6,0.2-1,0.3c-0.3,0-0.4,0.1-0.6,0.1c-0.1,0.1-0.2,0.1-0.2,0.2
		c-0.1,0.1-0.1,0.2-0.1,0.3c0,0.2,0.1,0.3,0.2,0.4c0.1,0.1,0.3,0.2,0.6,0.2c0.2,0,0.5-0.1,0.6-0.2c0.2-0.1,0.3-0.3,0.4-0.5
		c0.1-0.2,0.1-0.4,0.1-0.7V60.3z"/>
	<rect x="57.3" y="56.8" class="st1" width="0.6" height="5.5"/>
	<path class="st1" d="M58.9,57.6v-0.8h0.6v0.8H58.9L58.9,57.6z M58.9,62.3v-4h0.6v4H58.9z"/>
	<path class="st1" d="M63,61l0.7,0.1c-0.1,0.4-0.3,0.7-0.6,0.9c-0.3,0.2-0.6,0.3-1.1,0.3c-0.5,0-1-0.2-1.3-0.5
		c-0.3-0.4-0.5-0.9-0.5-1.5c0-0.7,0.2-1.2,0.5-1.6c0.3-0.4,0.7-0.6,1.3-0.6c0.5,0,0.9,0.2,1.2,0.5c0.3,0.4,0.5,0.9,0.5,1.5
		c0,0,0,0.1,0,0.2h-2.8c0,0.4,0.1,0.8,0.3,1c0.2,0.2,0.5,0.3,0.8,0.3c0.2,0,0.4-0.1,0.6-0.2C62.8,61.5,62.9,61.3,63,61L63,61z
		 M60.9,59.9H63c0-0.3-0.1-0.6-0.2-0.8c-0.2-0.3-0.5-0.4-0.8-0.4c-0.3,0-0.5,0.1-0.7,0.3C61.1,59.3,61,59.6,60.9,59.9z"/>
	<path class="st1" d="M64.5,62.3v-4H65v0.6c0.3-0.4,0.7-0.7,1.2-0.7c0.2,0,0.4,0,0.6,0.1c0.2,0.1,0.3,0.2,0.4,0.3
		c0.1,0.1,0.2,0.3,0.2,0.5c0,0.1,0,0.3,0,0.7v2.4h-0.6v-2.4c0-0.3,0-0.5-0.1-0.6c0-0.1-0.1-0.2-0.3-0.3c-0.1-0.1-0.3-0.1-0.4-0.1
		c-0.3,0-0.5,0.1-0.7,0.3c-0.2,0.2-0.3,0.5-0.3,1v2.2H64.5z"/>
	<path class="st1" d="M69.8,61.7l0.1,0.6c-0.2,0-0.3,0.1-0.5,0.1c-0.2,0-0.4,0-0.5-0.1c-0.1-0.1-0.2-0.2-0.3-0.3
		c-0.1-0.1-0.1-0.4-0.1-0.8v-2.3h-0.5v-0.5h0.5v-1l0.6-0.4v1.4h0.6v0.5h-0.6v2.3c0,0.2,0,0.3,0,0.4c0,0.1,0.1,0.1,0.1,0.1
		c0,0,0.1,0,0.2,0C69.6,61.7,69.7,61.7,69.8,61.7z"/>
	<path class="st1" d="M73,61l0.7,0.1c-0.1,0.4-0.3,0.7-0.6,0.9c-0.3,0.2-0.6,0.3-1.1,0.3c-0.5,0-1-0.2-1.3-0.5
		c-0.3-0.4-0.5-0.9-0.5-1.5c0-0.7,0.2-1.2,0.5-1.6c0.3-0.4,0.7-0.6,1.3-0.6c0.5,0,0.9,0.2,1.2,0.5c0.3,0.4,0.5,0.9,0.5,1.5
		c0,0,0,0.1,0,0.2h-2.8c0,0.4,0.1,0.8,0.3,1c0.2,0.2,0.5,0.3,0.8,0.3c0.2,0,0.4-0.1,0.6-0.2C72.8,61.5,72.9,61.3,73,61L73,61z
		 M70.9,59.9H73c0-0.3-0.1-0.6-0.2-0.8c-0.2-0.3-0.5-0.4-0.8-0.4c-0.3,0-0.5,0.1-0.7,0.3C71.1,59.3,70.9,59.6,70.9,59.9z"/>
	<path class="st1" d="M74.2,61.1l0.6-0.1c0,0.3,0.1,0.5,0.3,0.6c0.2,0.1,0.4,0.2,0.7,0.2c0.3,0,0.5-0.1,0.6-0.2
		c0.1-0.1,0.2-0.3,0.2-0.4c0-0.2-0.1-0.3-0.2-0.4c-0.1-0.1-0.3-0.1-0.6-0.2c-0.5-0.1-0.8-0.2-1-0.3c-0.2-0.1-0.3-0.2-0.4-0.4
		c-0.1-0.2-0.1-0.3-0.1-0.5c0-0.2,0-0.3,0.1-0.5c0.1-0.2,0.2-0.3,0.3-0.4c0.1-0.1,0.2-0.1,0.4-0.2c0.2-0.1,0.4-0.1,0.5-0.1
		c0.3,0,0.5,0,0.8,0.1c0.2,0.1,0.4,0.2,0.5,0.4c0.1,0.2,0.2,0.4,0.2,0.6l-0.6,0.1c0-0.2-0.1-0.4-0.2-0.5c-0.1-0.1-0.3-0.2-0.6-0.2
		c-0.3,0-0.5,0.1-0.6,0.2c-0.1,0.1-0.2,0.2-0.2,0.4c0,0.1,0,0.2,0.1,0.2c0.1,0.1,0.1,0.1,0.2,0.2c0.1,0,0.2,0.1,0.6,0.2
		c0.4,0.1,0.8,0.2,0.9,0.3c0.2,0.1,0.3,0.2,0.4,0.4c0.1,0.2,0.2,0.3,0.2,0.6c0,0.2-0.1,0.4-0.2,0.6c-0.1,0.2-0.3,0.4-0.5,0.5
		c-0.2,0.1-0.5,0.2-0.8,0.2c-0.5,0-0.9-0.1-1.1-0.3C74.4,61.9,74.3,61.5,74.2,61.1z"/>
	<path class="st1" d="M79.9,60.5l0.6-0.1c0,0.3,0.1,0.5,0.2,0.7c0.1,0.2,0.3,0.3,0.5,0.4c0.2,0.1,0.5,0.2,0.8,0.2
		c0.3,0,0.5,0,0.7-0.1c0.2-0.1,0.3-0.2,0.4-0.3c0.1-0.1,0.1-0.3,0.1-0.5c0-0.2,0-0.3-0.1-0.5c-0.1-0.1-0.2-0.2-0.5-0.3
		c-0.1-0.1-0.4-0.1-0.9-0.3c-0.5-0.1-0.8-0.2-1-0.3c-0.2-0.1-0.4-0.3-0.5-0.5c-0.1-0.2-0.2-0.4-0.2-0.7c0-0.3,0.1-0.5,0.2-0.8
		c0.1-0.2,0.4-0.4,0.6-0.5c0.3-0.1,0.6-0.2,0.9-0.2c0.4,0,0.7,0.1,1,0.2c0.3,0.1,0.5,0.3,0.7,0.6c0.2,0.3,0.2,0.5,0.3,0.9l-0.7,0.1
		c0-0.3-0.2-0.6-0.4-0.8c-0.2-0.2-0.5-0.3-0.9-0.3c-0.4,0-0.7,0.1-0.9,0.2c-0.2,0.2-0.3,0.4-0.3,0.6c0,0.2,0.1,0.4,0.2,0.5
		c0.1,0.1,0.5,0.3,1,0.4c0.6,0.1,0.9,0.2,1.1,0.3c0.3,0.1,0.5,0.3,0.7,0.6c0.1,0.2,0.2,0.5,0.2,0.8c0,0.3-0.1,0.6-0.2,0.8
		c-0.2,0.3-0.4,0.5-0.7,0.6c-0.3,0.1-0.6,0.2-1,0.2c-0.5,0-0.9-0.1-1.2-0.2c-0.3-0.1-0.6-0.4-0.7-0.7C80,61.2,79.9,60.9,79.9,60.5z"
		/>
	<rect x="85" y="61.5" class="st1" width="0.7" height="0.8"/>
	<path class="st1" d="M86.3,62.3l2-5.5H89l2.1,5.5h-0.8l-0.6-1.7h-2.1L87,62.3H86.3L86.3,62.3z M87.8,60.1h1.7L89,58.5
		c-0.2-0.5-0.3-0.8-0.4-1.1c-0.1,0.4-0.2,0.7-0.3,1L87.8,60.1z"/>
	<rect x="91.8" y="61.5" class="st1" width="0.7" height="0.8"/>
	<path class="st1" d="M98,62.3v-0.5c-0.2,0.4-0.6,0.6-1,0.6c-0.3,0-0.6-0.1-0.8-0.3c-0.2-0.2-0.4-0.4-0.6-0.7
		c-0.1-0.3-0.2-0.7-0.2-1.1c0-0.4,0.1-0.8,0.2-1.1c0.1-0.3,0.3-0.6,0.6-0.7c0.2-0.2,0.5-0.3,0.8-0.3c0.2,0,0.4,0.1,0.6,0.2
		c0.2,0.1,0.3,0.2,0.4,0.4v-2h0.6v5.5H98L98,62.3z M96,60.3c0,0.5,0.1,0.9,0.3,1.1c0.2,0.3,0.4,0.4,0.7,0.4c0.3,0,0.5-0.1,0.7-0.4
		c0.2-0.2,0.3-0.6,0.3-1.1c0-0.5-0.1-0.9-0.3-1.2c-0.2-0.3-0.4-0.4-0.7-0.4c-0.3,0-0.5,0.1-0.7,0.4C96.1,59.4,96,59.8,96,60.3z"/>
	<path class="st1" d="M102.1,61l0.7,0.1c-0.1,0.4-0.3,0.7-0.6,0.9c-0.3,0.2-0.6,0.3-1.1,0.3c-0.5,0-1-0.2-1.3-0.5
		c-0.3-0.4-0.5-0.9-0.5-1.5c0-0.7,0.2-1.2,0.5-1.6c0.3-0.4,0.7-0.6,1.3-0.6c0.5,0,0.9,0.2,1.2,0.5c0.3,0.4,0.5,0.9,0.5,1.5
		c0,0,0,0.1,0,0.2H100c0,0.4,0.1,0.8,0.3,1c0.2,0.2,0.5,0.3,0.8,0.3c0.2,0,0.4-0.1,0.6-0.2C101.9,61.5,102,61.3,102.1,61L102.1,61z
		 M100,59.9h2.1c0-0.3-0.1-0.6-0.2-0.8c-0.2-0.3-0.5-0.4-0.8-0.4c-0.3,0-0.5,0.1-0.7,0.3C100.2,59.3,100.1,59.6,100,59.9z"/>
	<path class="st1" d="M109.3,60.4l0.7,0.2c-0.1,0.6-0.4,1-0.8,1.4c-0.4,0.3-0.8,0.5-1.4,0.5c-0.6,0-1-0.1-1.4-0.4
		c-0.3-0.2-0.6-0.6-0.8-1c-0.2-0.5-0.3-0.9-0.3-1.5c0-0.6,0.1-1.1,0.3-1.5c0.2-0.4,0.5-0.7,0.9-1c0.4-0.2,0.8-0.3,1.2-0.3
		c0.5,0,0.9,0.1,1.3,0.4c0.4,0.3,0.6,0.7,0.7,1.2l-0.7,0.2c-0.1-0.4-0.3-0.7-0.5-0.9c-0.2-0.2-0.5-0.3-0.9-0.3c-0.4,0-0.7,0.1-1,0.3
		c-0.3,0.2-0.5,0.5-0.6,0.8c-0.1,0.3-0.2,0.7-0.2,1.1c0,0.5,0.1,0.9,0.2,1.2c0.1,0.3,0.3,0.6,0.6,0.8c0.3,0.2,0.6,0.3,0.9,0.3
		c0.4,0,0.7-0.1,1-0.4C109,61.2,109.2,60.8,109.3,60.4z"/>
	<rect x="110.9" y="61.5" class="st1" width="0.7" height="0.8"/>
	<path class="st1" d="M114.3,62.3l-2-5.5h0.7l1.3,4c0.1,0.3,0.2,0.6,0.3,0.9c0.1-0.3,0.2-0.6,0.3-0.9l1.4-4h0.7l-2,5.5H114.3z"/>
	<rect x="117" y="61.5" class="st1" width="0.7" height="0.8"/>
	<path class="st0" d="M106.9,29.1h2v2.6c0.8-1,1.7-1.7,2.7-2.2c1-0.5,2-0.7,3.2-0.7c1.2,0,2.2,0.3,3.1,0.8c0.9,0.5,1.6,1.3,2,2.2
		c0.4,0.9,0.6,2.4,0.6,4.3v7.4h-2v-6.8c0-1.6-0.1-2.7-0.2-3.3c-0.2-0.9-0.7-1.7-1.3-2.1c-0.7-0.5-1.5-0.7-2.6-0.7
		c-1.2,0-2.3,0.4-3.3,1.1c-1,0.7-1.6,1.6-1.9,2.7c-0.2,0.7-0.3,2-0.3,3.9v5.2h-2V29.1z"/>
	<rect x="99.8" y="29.1" class="st0" width="4" height="14.4"/>
	<radialGradient id="SVGID_1_" cx="101.737" cy="23.9525" r="4.9631" gradientUnits="userSpaceOnUse">
		<stop  offset="0" style="stop-color:#FEF382"/>
		<stop  offset="1" style="stop-color:#F9A841"/>
	</radialGradient>
	<path class="st2" d="M101.7,27.5c1.9,0,3.5-1.6,3.5-3.5c0-1.9-1.6-3.5-3.5-3.5c-1.9,0-3.5,1.6-3.5,3.5
		C98.2,25.9,99.8,27.5,101.7,27.5z"/>
	<path class="st0" d="M74.2,29H76v2.1c0.6-0.8,1.2-1.4,1.8-1.8c0.6-0.4,1.3-0.6,1.9-0.6c0.5,0,1,0.2,1.6,0.5l-1,1.6
		c-0.4-0.2-0.7-0.3-1-0.3c-0.6,0-1.2,0.3-1.8,0.8c-0.6,0.5-1,1.3-1.3,2.3C76.1,34.3,76,36,76,38.4v4.8h-1.9V29L74.2,29z M89.7,28.6
		c2.2,0,4,0.8,5.5,2.4c1.3,1.5,2,3.2,2,5.2c0,2-0.7,3.7-2.1,5.2c-1.4,1.5-3.2,2.2-5.4,2.2c-2.2,0-4-0.7-5.4-2.2
		c-1.4-1.5-2.1-3.2-2.1-5.2c0-2,0.7-3.7,2-5.1C85.7,29.4,87.5,28.6,89.7,28.6L89.7,28.6z M89.7,30.4c-1.5,0-2.8,0.6-3.9,1.7
		c-1.1,1.1-1.6,2.5-1.6,4.1c0,1,0.2,2,0.7,2.9c0.5,0.9,1.2,1.6,2,2.1c0.8,0.5,1.8,0.7,2.8,0.7c1,0,1.9-0.2,2.8-0.7
		c0.8-0.5,1.5-1.2,2-2.1c0.5-0.9,0.7-1.9,0.7-2.9c0-1.6-0.6-3-1.7-4.1C92.5,31,91.2,30.4,89.7,30.4z"/>
	<radialGradient id="SVGID_2_" cx="28.0513" cy="22.0221" r="31.1047" gradientUnits="userSpaceOnUse">
		<stop  offset="0" style="stop-color:#555656"/>
		<stop  offset="1" style="stop-color:#1C1B1A"/>
	</radialGradient>
	<polygon class="st3" points="0.7,43.4 7.4,43.4 28,11.1 48.5,43.2 55.4,43.2 27.9,0.7 	"/>
	<radialGradient id="SVGID_3_" cx="26.4814" cy="52.597" r="10.5737" gradientUnits="userSpaceOnUse">
		<stop  offset="0" style="stop-color:#D8E182"/>
		<stop  offset="1" style="stop-color:#A6C839"/>
	</radialGradient>
	<polygon class="st4" points="29.5,43.2 33.7,43.2 33.7,44 33.6,44.7 33.4,45.7 33.3,46.2 33,47.5 32.8,48.2 32.4,49.3 32,50.5 
		31.6,51.4 31,52.7 30.2,54.1 29.3,55.7 28.7,56.8 28,57.9 27.3,58.9 26.5,60 25.6,61.2 24.9,62 19.3,62 20.4,60.8 21.5,59.6 
		22.6,58.3 23.4,57.2 24.1,56.3 25.2,54.4 25.8,53.4 26.5,52.2 27.1,50.9 27.7,49.7 28.3,48.1 28.8,46.5 29,45.7 29.3,44.8 	"/>
	<radialGradient id="SVGID_4_" cx="44.846" cy="30.9381" r="30.1559" gradientUnits="userSpaceOnUse">
		<stop  offset="0" style="stop-color:#D8E182"/>
		<stop  offset="1" style="stop-color:#A6C839"/>
	</radialGradient>
	<path class="st5" d="M25.1,50.6l-1.7,0l-1.6-0.2l-2-0.4l-1.3-0.5l-1.2-0.7l-1-1l-0.6-1l-0.4-1.4l-0.1-1.3l0.3-1.6l0.8-2.2l1-1.9
		l0.8-1.3l0.8-1.1l1-1.3l1-1.2l0.8-0.9l0.9-0.9l1.1-1.1l1.1-1l1.4-1.2l1-0.9l1.6-1.3l1.4-1l1.6-1.2l1.4-1l1.2-0.8l5.4-3.2l1.1-0.6
		l1.7-0.9l1.9-0.9l1.5-0.7l1.2-0.5l1.5-0.6l1.6-0.6l1.6-0.6l1.7-0.5l2.4-0.7l1.5-0.4l1.8-0.4l1.2-0.2c0,0-0.4,0,1.1-0.2
		c1.6-0.2,1.6-0.2,1.6-0.2l1.3-0.1l1.3,0c0,0,0.1-0.1,1.5,0.1c1.3,0.2,1.3,0.2,1.3,0.2s0.2-0.1,1.2,0.3c1,0.3,1,0.3,1,0.3l1.4,0.7
		l0.7,0.6l0.7,0.8c0,0,0.1-0.2,0.4,0.8c0.3,1,0.3,1,0.3,1l0.1,1.1l0,1c0,0,0,0.4-0.2,1.3C74,20.2,74,20.2,74,20.2l-0.5,1.2l-0.6,1.3
		c0,0,0.1,0-0.7,1.3c-0.9,1.3-0.9,1.3-0.9,1.3l-0.8,1.1l-1,1.2c0,0,0.2-0.4,0.4-1.6c0.2-1.3,0.2-1.3,0.2-1.3s0.1,0,0.1-0.9
		c0-1,0.1,0,0-1C70,21.8,70,21.8,70,21.8l-0.3-1c0,0,0.2-0.1-0.5-1C68.6,19,68.6,19,68.6,19s-0.1-0.2-0.8-0.8
		c-0.7-0.6-0.7-0.6-0.7-0.6s0.1-0.1-0.9-0.5c-1-0.4,0.1-0.1-1-0.4c-1.1-0.4-1.1-0.4-1.1-0.4L63.2,16l-0.8-0.1c0,0-0.6-0.1-1-0.1
		c-0.5,0-0.8-0.1-0.8-0.1s0.1,0-0.8,0c-0.9,0-0.9,0-0.9,0l-1,0L57,15.8l-1,0.1l-1,0.2l-1,0.2c0,0-0.6,0.1-1.4,0.3
		c-0.8,0.2-0.8,0.2-0.8,0.2l-1.1,0.3l-1,0.3l-1,0.3l-0.9,0.3l-1.4,0.6l-1.1,0.4c0,0-0.4,0.2-1.1,0.5c-0.8,0.4-0.8,0.4-0.8,0.4
		s0.4-0.2-0.9,0.5c-1.3,0.7-1.3,0.7-1.3,0.7l-4.8,3l-0.8,0.5l-0.8,0.6L34,25.7l-0.7,0.5l-1,0.8l-1,0.8l-1.1,1l-1,1L28,31.2l-1.2,1.3
		l-0.9,1.1l-1,1.4L24,36.4l-0.6,1.1l-0.6,1.3l-0.5,1.2l-0.4,1.3l-0.3,1.3l-0.1,1.5l0.1,1.4c0,0-0.1,0,0.2,1c0.4,1,0.4,1,0.4,1
		s0,0.4,0.8,1.3c0.8,0.9,0.8,0.9,0.8,0.9L25.1,50.6z"/>
</g>
</svg>
