<svg width="137" height="47" viewBox="0 0 137 47" fill="none" xmlns="http://www.w3.org/2000/svg">
<rect width="136.945" height="46.9821" fill="#0097CE"/>
<g clip-path="url(#clip0_453_536)">
<path d="M77.5569 26.7878L77.5722 26.7638L77.5896 26.7878H77.5569ZM120.681 21.6463C120.407 20.733 119.884 19.931 119.14 19.2749C117.998 18.2505 116.49 17.7318 114.662 17.7318H98.7421H98.4239H81.6348C80.5625 17.7318 79.6079 17.965 78.7905 18.4227C77.6768 19.057 76.9074 19.9702 76.5107 21.1144V17.7296H62.1279C59.798 17.7296 57.9541 18.4445 56.642 19.8481C56.1167 20.4105 55.7004 21.0556 55.3931 21.7836C55.3844 21.7378 55.3713 21.692 55.3561 21.6463C55.0814 20.733 54.5627 19.931 53.8195 19.2727C52.6796 18.2483 51.167 17.7296 49.3362 17.7296H22.9636V13H16V17.7296V23.9261V27.725C16 28.5336 16.0567 29.1308 16.1787 29.5951C16.3662 30.3492 16.7454 31.027 17.3121 31.6199C18.1992 32.5244 19.52 32.9821 21.2374 32.9821H33.6805V31.0793C33.8134 31.245 33.9595 31.4019 34.1142 31.5523C35.1081 32.5004 36.4289 32.9821 38.0396 32.9821H55.622V29.4229C55.8988 29.959 56.241 30.4516 56.6485 30.8919C57.9563 32.2781 59.8002 32.9821 62.1279 32.9821H93.6311C94.7165 32.9821 95.6668 32.7619 96.4514 32.3304C97.1663 31.9403 97.9662 31.306 98.4893 30.2773C98.729 30.7546 99.0451 31.1796 99.4374 31.5523C100.433 32.5004 101.752 32.9821 103.365 32.9821H120.945V24.059C120.945 23.0673 120.862 22.2914 120.681 21.6463Z" fill="white"/>
<path d="M115.682 28.4901V26.6789H104.3C103.553 26.6789 103.173 26.984 103.173 27.5921C103.173 28.1915 103.553 28.4901 104.3 28.4901H115.682ZM100.442 22.2239V19.4319H114.659C116.067 19.4319 117.181 19.8024 118.005 20.5413C118.517 20.9946 118.868 21.5308 119.051 22.141C119.178 22.5944 119.243 23.233 119.243 24.059V31.2842H103.363C102.199 31.2842 101.284 30.9617 100.617 30.3231C99.9454 29.6844 99.6119 28.7887 99.6119 27.6379C99.6119 26.4871 99.9454 25.5956 100.617 24.9745C101.297 24.3337 102.212 24.0155 103.363 24.0155H115.682V23.9087C115.682 23.0281 115.357 22.4941 114.703 22.3089C114.505 22.2522 114.197 22.2239 113.788 22.2239H100.442V22.2239ZM81.6328 26.6789C80.5256 26.6789 79.6233 26.3585 78.928 25.7199C78.2458 25.0638 77.9058 24.1833 77.9058 23.0761C77.9058 21.6114 78.479 20.5543 79.6298 19.9005C80.1856 19.5866 80.8504 19.4297 81.6328 19.4297H96.7262V22.2239H82.339C81.5544 22.2239 81.1664 22.5203 81.1664 23.1197C81.1664 23.7169 81.5544 24.0155 82.339 24.0155L93.6312 24.0351C94.7406 24.0351 95.6386 24.362 96.3164 25.0159C97.0139 25.6697 97.3604 26.5503 97.3604 27.6575C97.3604 29.1526 96.785 30.2097 95.6364 30.8352C95.0937 31.1338 94.4246 31.2842 93.629 31.2842H77.9014V28.4901L92.9272 28.5097C93.7053 28.5097 94.0976 28.2067 94.0976 27.5921C94.0976 26.9992 93.7053 26.7007 92.9272 26.7007L81.6328 26.6789ZM74.8087 19.4319V22.396H62.5967C61.7728 22.396 61.1494 22.6925 60.7201 23.2918C60.3495 23.8019 60.1686 24.4928 60.1686 25.3581C60.1686 26.2255 60.3495 26.9142 60.7201 27.4243C61.1473 28.0236 61.7728 28.3201 62.5967 28.3201H74.8087V31.2821H62.1281C60.2798 31.2821 58.8675 30.7611 57.8888 29.7259C56.9189 28.6753 56.4373 27.2216 56.4373 25.3559C56.4373 23.4945 56.9189 22.0451 57.8888 21.0077C58.8675 19.9571 60.2798 19.4297 62.1281 19.4297H74.8087V19.4319ZM50.3607 28.4901V26.6789H38.9791C38.225 26.6789 37.8479 26.984 37.8479 27.5921C37.8479 28.1915 38.225 28.4901 38.9791 28.4901H50.3607ZM35.1213 22.2239V19.4319H49.3363C50.7421 19.4319 51.8602 19.8024 52.6819 20.5413C53.1941 20.9946 53.545 21.5308 53.7259 22.141C53.8545 22.5944 53.9177 23.233 53.9177 24.059V31.2842H38.0397C36.8758 31.2842 35.9583 30.9617 35.2891 30.3231C34.6222 29.6844 34.2909 28.7887 34.2909 27.6379C34.2909 26.4871 34.6222 25.5956 35.2891 24.9745C35.9713 24.3337 36.8889 24.0155 38.0397 24.0155H50.3585V23.9087C50.3585 23.0281 50.0338 22.4941 49.3799 22.3089C49.1794 22.2522 48.8764 22.2239 48.4623 22.2239H35.1213V22.2239ZM31.9806 31.2842H21.2398C19.9865 31.2842 19.0864 30.9987 18.5328 30.4299C18.1775 30.0615 17.9443 29.6409 17.8288 29.1723C17.7438 28.8584 17.7002 28.3767 17.7002 27.7229V22.2239V19.4319V14.7001H21.2616V19.4297H31.9828V22.2239H21.2594V26.8467C21.2594 27.5005 21.4076 27.9474 21.7084 28.1893C21.9481 28.3898 22.3535 28.4879 22.9224 28.4879H31.9806V31.2842Z" fill="#0097CE"/>
</g>
<defs>
<clipPath id="clip0_453_536">
<rect x="16" y="13" width="104.945" height="19.9821" fill="white"/>
</clipPath>
</defs>
</svg>
