<svg xmlns="http://www.w3.org/2000/svg" width="159" height="39.072" viewBox="0 0 159 39.072">
  <g id="Grupo_9922" data-name="Grupo 9922" transform="translate(-16.325 -178.271)">
    <path id="Trazado_426" data-name="Trazado 426" d="M65,264.095c-.009-.027-.048-.063-.029-.087-.027-.009-.009-.035-.012-.057-.027-.065-.059.012-.1-.015-.018-.009-.015-.027-.015-.042-.036-.015-.048.029-.072.042-.032-.021-.107,0-.1-.071-.033.012-.083,0-.087.044l.015.015a.053.053,0,0,1-.015.084c-.161-.08.027-.238-.116-.342-.048,0-.086-.069-.128-.042-.042-.071-.158-.107-.214-.173l-.057.057-.015-.013-.057.057-.029-.03c-.009-.027.015-.041.029-.056-.015-.024-.041-.024-.056-.042,0-.018,0-.036.015-.044l-.03-.027c-.006-.015.006-.021.015-.03h-.015v.015c-.009.026-.048.048,0,.071l-.03.027c-.027-.018-.027-.048-.042-.072a.2.2,0,0,0-.072.016c.033.038-.048.077.015.116-.021.027-.066,0-.086.027.006.021-.012.048.015.057l-.045.045c-.059,0-.119,0-.155-.057,0-.018-.006-.035.012-.045l.015.015V263.5c.021-.039.057-.094.116-.071,0-.036-.035-.071,0-.1-.1-.018-.125-.1-.214-.127-.063.029.053.1-.045.127-.122-.012.053.068.015.128-.015.027-.048.009-.071.015-.134-.007-.021-.122-.042-.173l.012-.012a.118.118,0,0,1-.026-.059.461.461,0,0,0-.271-.113c-.116-.1-.241-.042-.372-.1-.021.143.175,0,.229.085-.006.021.012.048-.015.057s-.03-.018-.045-.027c-.009.006-.015.018-.027.015.014.036.062.039.086.071l.012-.014c.018,0,.036,0,.045.014s0,.033-.015.042c-.03-.015-.065.03-.1-.015v.015c-.021.059,0,.176-.113.128-.036-.035-.015-.06,0-.1-.021,0-.048-.015-.057.012-.006-.026-.053-.056-.015-.083-.063-.051-.074.027-.128.042l-.03-.03c-.008.018-.027.015-.042.015-.014-.018-.045-.033-.045-.056a.045.045,0,0,0-.012.071c-.024.053-.077.015-.1-.015l.015-.015-.045-.057.1-.1c.047.009.057.063.072.1.068-.026.16-.057.184-.128-.08-.083-.136.03-.226-.029-.068.071-.116-.075-.173.014a.288.288,0,0,0-.229-.014c-.036.068.015.116-.042.172-.009-.009-.02-.015-.015-.03-.021.006-.042-.032-.056,0a.32.32,0,0,0-.271-.128c-.036.074-.143.018-.172.086-.048.018-.039-.038-.057-.056-.021,0-.042-.036-.056,0l-.015-.015-.029.03c-.006.012.009.018.014.026-.047.1-.1-.077-.142.045a.186.186,0,0,0,.113.128c-.009.006-.015.018-.027.015-.027.012-.054.012-.045.056-.041.033-.054.107-.127.1-.006-.009-.018-.015-.016-.027l-.011.015c-.009.018-.054.045-.072,0,.015-.044.063-.015.083-.044s-.026-.048-.041-.072c-.009.009-.015.021-.03.015l.015.015c.006.012-.006.018-.015.026s-.027-.017-.042-.026l.042-.045-.012-.012a.137.137,0,0,1,.155-.03c.045-.09-.057.006-.084-.042-.012.027-.039.009-.06.012-.039-.057-.17-.054-.128-.143h-.027c0,.015-.009.021-.015.03-.071-.03-.077.107-.127,0-.042,0-.039.048-.06.072.03.042-.005.149.087.128-.035.063-.095.063-.158.056l-.042-.127c-.039.021-.057-.041-.086,0-.018-.015-.033-.041-.056-.041-.024.041.042.08.042.127l.044-.015c.018.009.015.027.015.045a.235.235,0,0,1-.229.083c.038-.021.059-.089.1-.113l-.071.015c-.054-.035.041-.045.015-.086-.015.1-.143.044-.2.1-.006.035.077.048.03.083l-.015-.012c-.077-.05-.155.021-.2.057.012.041-.026.089,0,.143a.193.193,0,0,1-.086.057.429.429,0,0,1-.056-.172c-.1-.036-.173.059-.259.086-.027.009-.083,0-.071.045h.015c.009.021.042.038.029.071a.441.441,0,0,1-.229.056c-.021.069.045.166-.044.214.027,0,.039.027.059.041l.042-.071c.021.006.047-.012.056.015-.009.03-.042.048-.027.087-.05.024-.042.092-.1.086a.086.086,0,0,1-.057-.015l-.014.015c.03.018.006.048,0,.071a.069.069,0,0,0-.03-.071.029.029,0,0,1,.03-.015h.013c-.038-.031.008-.105-.029-.158L59.1,264c-.017-.017-.039-.033-.029-.059.015-.009.021-.033.042-.027-.051-.062-.033-.14-.128-.157-.033.056-.113.056-.113.128.056.044.178.021.17.128-.015.045-.062.015-.084.045-.19-.134-.259.107-.386.184-.057.025-.146.006-.173.071-.062,0-.113.072-.17.045-.027.012-.024.039-.044.056-.027-.045-.041.018-.072.015l.045.041c-.045.081-.047-.026-.086-.03a.089.089,0,0,0,0,.1,2.185,2.185,0,0,0-.271.245l.026.026c.009.027-.011.042-.026.057-.137-.134-.155.113-.245.158l.015.015-.03.03c-.047-.035-.021-.1-.057-.143.074-.009.027-.175.128-.1l-.042-.03c-.006-.02-.03-.053,0-.071.039,0,.03.06.071.045.015-.038.072-.077.042-.116l-.1.059c-.027-.021-.009-.059-.015-.087.015-.048.039-.1.1-.1a.045.045,0,0,1,.012-.07c.008.009.018.021.03.014a.055.055,0,0,0,.042-.071c-.018-.006-.045.012-.056-.015l-.015.015c-.027.009-.039-.012-.057-.03.071-.084-.072-.113-.042-.2a.26.26,0,0,1,.071-.056c.045.018.024.066.027.1.044.009.044-.018.059-.045-.018,0-.036,0-.045-.015s.021-.026.029-.041.012-.057-.015-.071a.289.289,0,0,0,0-.256,1.116,1.116,0,0,1-.03-.2c.15-.057.02-.146.014-.241-.009.018-.027.015-.041.015s-.021-.018-.015-.03c-.029-.045-.068-.14,0-.172.021.009.042.009.057.03a.282.282,0,0,0,0-.244c.059-.071-.051-.122-.015-.185l.015.015c.045-.057-.021-.107,0-.173.077-.068.029-.187.071-.271,0-.053-.059-.078-.1-.087l.042-.042a.249.249,0,0,0,.015-.229.113.113,0,0,1,.018-.026.589.589,0,0,1-.188-.027,2.619,2.619,0,0,0-.447-.06c-.029-.03-.059-.089-.089-.089a4.356,4.356,0,0,0-.646,0,.215.215,0,0,0,.052.031l.015-.012c.024.027.066.009.1.012.051.042.027.131.03.173l.015.014-.015.015c.042.081.116-.018.143.072a.214.214,0,0,1-.1.1c.018.051.006.11.03.158a.09.09,0,0,1,.1,0c.048.057-.051.087-.072.128-.071-.044-.033.075-.1.072l-.015-.015v.015c-.009.008-.015.021-.027.015-.024.077.036.137.056.184.015.01.042.045.057.015.027.057-.045.083-.057.128.021,0,.027.02.042.03.012.089-.054-.009-.086.042a.118.118,0,0,1,.06.071.072.072,0,0,1,.07-.027c.009.015.033.021.027.042s-.015.021-.027.015v.042c-.018.036-.038,0-.059,0-.009.027.015.042.03.06l-.03.026c-.071.149.087-.047.131.057,0,.018,0,.036-.015.045s-.045.041-.057.015c-.059.045-.131.074-.1.169.077.009.128.09.184.116.081.057-.023.084-.026.129-.015.023-.042.023-.057.041.006.009.018.018.012.03s-.039.077-.084.057c0,.02-.035.042,0,.057-.1.1.054.113.084.187a.279.279,0,0,0-.071.1h.03l.128-.128c-.009-.023-.041-.039-.027-.072.03-.053-.068-.155.027-.184a.046.046,0,0,1,.072.012c.018.054-.054.047-.057.087.209.047-.106.178.072.259l-.086.071c-.033.026,0,.078.03.083,0,.107-.089-.021-.128.03l.042.03c-.03.109.122.083.128.169a.206.206,0,0,1-.042.129.334.334,0,0,1-.173.014c-.024.134.155.042.215.087.128.1-.122.149-.072.244.012,0,.021-.009.03-.015-.039-.024.009-.048.015-.071l.027.056.045-.071c.012-.006.017.006.026.015s0,.033-.015.042l.015.015c-.006.066.021.145-.041.185l-.03-.027c.018-.009.015-.027.015-.044-.012.005-.021-.007-.029-.012l-.012.012c-.026.009-.035-.015-.06-.012-.009.015-.041.041-.012.057a.091.091,0,0,1,.012.113c.024.006.03-.019.045-.027l.027.027-.012.015.012.015c0,.054-.072.02-.072.072l-.041-.045.015-.013h-.015c-.024.036-.024.048,0,.084-.075.039-.006.1-.03.143-.015,0-.033.006-.042-.012-.074.041.021.076.015.127.035-.009.1.024.113-.029l.015.015c-.015.065.033.148.015.214-.012.006-.021-.006-.03-.015-.1.1.1.092.03.214-.009.026-.036.068-.071.057l.041.059c-.027.012-.009.048-.015.072-.089.047-.009.134-.012.2-.128.024.006.128-.072.185.077.071-.035.172.042.243,0,.075.068.152.015.214-.009-.018-.027-.015-.045-.015.1.05-.065.119.045.158l.015-.015c.113.1-.086.193-.044.3.012-.006.02.006.03.015-.006.021.012.057-.015.071.015.009.021.033.041.027,0-.012.009-.018.015-.027l.03.027c0,.021.033.042,0,.056-.021,0-.047.015-.056-.012-.039.018-.1.015-.116.057-.119-.03-.169-.164-.256-.244-.033-.069-.128-.09-.173-.17-.1.035-.084-.122-.184-.086-.093-.089-.161-.188-.259-.271.018-.009.015-.027.015-.045-.06,0-.086-.083-.158-.057-.062-.075-.128-.009-.214-.03-.045-.071-.155-.048-.215-.113.006-.021-.011-.048.015-.057-.044-.1-.178-.045-.256-.1l.026-.027c-.009,0-.035.054-.056.012l.015-.012c-.012-.033-.03-.033-.056-.045v.045c-.036.036-.063-.026-.1-.015-.033-.142-.22-.092-.313-.187-.065.095-.077-.051-.131-.042-.107.026-.11-.1-.214-.087-.068.054-.125-.1-.184-.027-.021-.006-.048.012-.057-.014l-.015.014-.015-.014c-.033.041-.074-.021-.1,0-.024-.006-.06.011-.072-.015-.012.026-.039.009-.06.015-.015-.018-.059-.021-.042-.057.009-.009.015-.021.03-.015a.06.06,0,0,0-.045-.072l.045-.03c-.083-.077-.206-.054-.3-.1-.09.092-.155-.051-.244-.045v.015c-.131.089-.188-.086-.313-.1-.045.044-.1-.021-.131,0-.071-.032-.215.02-.215-.1-.056-.047-.13.033-.169-.015l.086-.072c-.036.015-.051-.026-.086-.014l-.03.1c-.006.027.057.045.015.071l-.03-.029c-.021-.006-.027.021-.042.029l-.015-.015c.068-.086-.057-.092-.086-.157-.084.033-.17-.119-.214.014-.009-.006-.015-.021-.027-.014v.029c-.015.027-.042-.006-.057-.015-.045.093-.122-.021-.172.057-.03.017-.1.035-.113-.015s.03-.1.072-.143c.014,0,.033,0,.042.015a.471.471,0,0,0,.071-.086l-.015-.012c-.021-.006-.027.018-.042.027s-.045.045-.056.015c-.018.018-.054,0-.072-.015-.092-.009-.146.006-.187.086-.015,0-.033,0-.042-.015l-.015.015c-.087.039-.051-.06-.1-.086l-.012.015-.015-.015-.015.015c-.089-.074-.1.068-.158.086l-.015-.015c-.024-.009-.036.015-.057.015-.08-.051-.068.075-.128.1a.045.045,0,0,1-.071-.012c0-.018,0-.036.015-.044-.039-.015-.069-.093-.117-.042-.009-.017-.026-.015-.042-.015-.039.083-.14.068-.2.129-.05-.054.062-.039.042-.1-.071-.018-.092.092-.158.012.006.015-.006.02-.012.029s.018.015.012.03c.068-.006.062.072.116.1l-.015.015c-.009.027.012.042.03.057l-.045.045c.116-.009.063.119.158.156-.021.032.006.094-.042.1-.009-.033-.041-.075-.029-.1-.015,0-.033,0-.042-.013-.021.013-.033.042-.059.042a.268.268,0,0,1,.015.158l.071.041c-.006.093.081.164.03.259.1.026.161-.116.241-.045-.015.009-.042.045-.057.014l-.027.042c.077.1-.083.074-.06.158.009.009.018.021.03.015-.006-.012.006-.021.015-.03.045.036.026.1.071.13-.015.021-.059.036-.045.072.045.018.051.09.087.113-.006-.021.021-.029.03-.042a.093.093,0,0,1,.1.042c-.012.071.086.13.03.184-.03-.071-.134-.03-.113-.113l-.044.042c-.006.054.056.009.071.045-.009.1.086.155.072.256-.078.086-.152-.042-.229,0a.141.141,0,0,0,.015.086l.072-.015c.009.015.036.021.03.045.086.038.142.261.255.1.071.05-.071.122,0,.173.024-.006.056.012.071-.015.027.042.045-.021.072-.015l.03.128c.045,0,.09-.053.128,0-.015.045-.065.015-.087.045-.035.154.17.2.2.3.069-.036.214-.06.259.012-.006.029.012.068-.015.086a1.18,1.18,0,0,1,.157.172c-.074.1.077.1.113.158.027-.072.093-.021.143-.015.041.041,0,.122.015.184h.042c.068.071.119-.077.172,0,.024.071-.059.06-.086.1.1.1.25.086.342.2.035.03.125-.006.116.071.027.009.042.042.071.015-.006-.021.012-.048-.015-.057l.03-.03.026.03c-.018.057.033.119.071.17.054-.027,0-.1.057-.128.009.015.036.021.03.042h.056l-.014-.012a.069.069,0,0,1,.071-.03c-.015.059.059.151-.027.184-.036-.015-.018-.05-.045-.071l-.027.029c-.009.021-.03.053,0,.072.059-.1.086.059.157.03.063.056.039-.045.084-.06.015,0,.021.009.029.015l.042-.042-.012-.015c-.006-.02.018-.029.027-.041l.029.027c.012.006.018-.006.027-.015.045.023-.021.042,0,.071.015.071.065.089.131.1,0,.015,0,.033-.015.042s-.056.033-.071.015v.029c.024.027.036.087.071.087v-.044c.015-.016.03-.036.057-.027s.009.057.015.084c.042.017.081.086.128.045a.211.211,0,0,0,.128.041c.027-.074.078.021.128,0a.187.187,0,0,0,.059-.086.046.046,0,0,1,.072.015c.02.045.027.151-.06.127,0,.015.009.022.015.03l.015-.015a.141.141,0,0,1,.086.015c.036-.009.107.023.113-.03-.019,0-.045.015-.057-.012l.071-.03c.1.086-.035.149-.03.244.045.021.018-.039.06-.03.053.1.164.093.256.128l-.057.057c0,.036.057.05.086.071,0-.015,0-.033-.015-.041.006-.03.05-.057.015-.087.03-.033.08-.018.113-.041.036.035.006.05.015.1.074.015.143-.092.184.015a.525.525,0,0,1,.143-.158c.03.051.056-.032.086.015.009.026-.015.036-.015.057.1-.006.072.1.158.116.032.009.095.032.071.086.015,0,.033,0,.042-.015a.115.115,0,0,0,.116.042c.032-.024-.012-.083.042-.1.033,0,.069-.009.086.026s-.03.048-.042.072c.051.121.173.065.286.1.054.006.092-.072.143-.03.047,0,.032-.059.056-.086a.321.321,0,0,1,.113.06c-.023.048.039.062.045.1.045,0,.089.056.128,0-.009-.009-.021-.015-.015-.027.024-.015.035-.059.071-.045,0-.015,0-.033-.015-.042l.045-.045c.009.016.033.025.027.045.009-.017.027-.015.044-.015s.018.015.013.03-.024.062-.072.057l.015.015c-.084.081,0,.158.015.241-.077.045.021.086.029.127l.013-.011c-.081-.045.044-.081-.013-.132.089-.145.051.093.143.072-.033.077,0,.125-.03.2-.048.015-.086-.033-.113-.015a.072.072,0,0,1,.027.071c-.027.042-.042-.021-.072-.015-.006.024-.051.047-.015.071l.015-.015c.044.059-.06.092-.042.158.051.044.089-.009.143.03l.042-.045c.063.036.08-.1.128-.015a.548.548,0,0,1,.03.187l.015.014-.015.012c.015.045-.048.059-.057.071l.042.045c.066.024.1-.039.143-.057.042.053,0,.143.072.185.009.027-.012.041-.027.057-.009-.018-.026-.015-.045-.015-.048.069.035.134-.015.2.021.027.018.078.06.084a.421.421,0,0,1-.116.158c-.134-.009.012-.1-.015-.158h-.042c-.015-.015-.039-.03-.03-.056a.233.233,0,0,1-.226.044l.027.027c-.009.06,0,.14-.072.158.063.062-.072.116.015.173.015,0,.032,0,.042-.015.008.033.041.056.029.1-.042.036-.1.054-.128.087a.6.6,0,0,1,.027.2c.009.009.021.018.015.03.1-.035,0,.128.03.113a.154.154,0,0,0-.03.087c.024.006.057-.012.072.015a.071.071,0,0,1-.027.071c-.015.006-.021-.006-.029-.015l-.03.03.03.027c.021,0,.042.035.057,0,.137.128-.084,0-.072.1.152-.006-.06.116.072.143-.072.03.023.078-.027.113.03.078.075,0,.113.029.015.045.095.1.03.144-.033.041-.071-.024-.1.015-.039-.033-.042-.081-.071-.116l-.071.059c.015.015.038.03.029.057-.051.072-.1-.039-.143-.045l-.015.015-.015-.015a.108.108,0,0,0-.015.087c-.059.053-.142.048-.214.071-.063-.018-.059-.083-.026-.128-.009-.018-.027-.016-.045-.016.009.09-.131.137-.071.188-.036.009-.086.039-.113.026l-.015.015c-.012.006-.021-.006-.03-.015-.03.039-.071-.074-.1,0-.009-.015-.045-.042-.015-.057l-.015-.015.015-.015c.006-.012-.006-.018-.015-.026.012-.054.092-.007.071-.072-.071,0-.042.056-.1.086-.03.032-.065-.006-.086-.03-.065,0-.092.039-.128.087.032.1-.1.086-.1.17a.062.062,0,0,1-.086,0v-.128l-.015-.015c.176-.1-.081-.057-.057-.169l-.042.072c-.033.005-.021-.033-.045-.046-.071,0-.122.051-.184.072a.244.244,0,0,0-.173,0c0,.015.009.021.015.029l-.042.057-.014-.015c-.012-.071-.054-.009-.1-.027-.053.015-.066.077-.1.113-.027.009-.042-.012-.057-.027l.012-.015-.042-.015c-.014.036-.021.086-.071.086-.056-.071-.074.03-.142.015-.11-.08-.22.092-.328.012-.032.087-.119.1-.2.087-.075.095-.182-.087-.214.056-.069-.027-.137.119-.214.029l.015-.014c-.1-.078-.033.074-.113.086l-.015-.015c-.056-.078-.113.02-.172.029-.1-.024-.2.035-.3.057-.051.038-.119-.009-.158,0-.071-.033-.143.062-.214.03,0,.023-.03.035-.045.057-.176.041-.372-.039-.47.128a.065.065,0,0,1-.086-.057c-.033.024-.083.009-.113.041-.027-.041-.045.022-.071.015-.066.048-.155.023-.215.057-.163-.018-.253.145-.414.128-.053-.047-.137.03-.187.045a1.849,1.849,0,0,1-.342.129c-.1-.019-.188.047-.286.085.039.06.03.152.071.2v-.042c.077-.09.137.048.214.042v-.03c.009-.018.026-.012.042-.012.024-.062.1-.06.158-.06.006-.018-.012-.045.015-.056s.021.009.029.015c.03-.024.078-.012.113-.029.068-.107.19.038.256-.071.018.008.015.026.015.044a.162.162,0,0,1-.128.143c-.033-.017-.1.03-.128.015l-.071.072c-.092.065-.2-.027-.271.1l-.015-.015a.284.284,0,0,0,.086.316c.015-.021.036-.021.057-.03.018.095.1.035.158.045.009.015.033.021.027.042h.045c.066.021-.009.074.027.1.072-.152.309-.039.342-.214.066.062.1-.063.158.015.048-.059.092-.059.116-.131.014,0,.032,0,.041.015.027.075.084-.015.128-.015.006-.041-.044-.012-.057-.041-.006-.012.006-.021.015-.03.074.051.133-.026.2-.042.05-.03.16-.068.184,0a.044.044,0,0,0,.015-.071c.029-.075.077.023.116-.03l.012.015.015-.015c.045.024.116.007.128.071l.015-.012.015.012.015-.012a.09.09,0,0,0,0-.1c.009-.06.074-.05.113-.071.006-.037-.078-.051-.027-.087.009.009.015.02.027.015.041-.048.071.024.1.042.083.152.024-.1.143-.042a.031.031,0,0,1,.042.042c.059,0,.057-.1.116-.113.033.021.036.057.057.086l.241-.044c-.036-.119-.113.059-.17-.042.027-.021,0-.068.042-.086.029.036.081.018.116.045a.1.1,0,0,0,.012-.087c.012-.026.039-.008.059-.015.006.009.018.015.012.029l.116-.059c.021.009.054.03.072,0-.11-.14.119-.062.142-.185.069,0,.072.084.128.113.06-.057-.048-.044-.041-.1.035-.03.074.026.113.041.024.066-.036.1-.057.143-.021-.015-.056-.033-.071-.015l-.015-.012c-.068,0,.015.06-.029.084-.024.009-.036-.015-.056-.012.026.036-.009.081.015.113.059-.065.16-.1.184-.185.054.1.152-.026.214.057l-.042.027c0,.018,0,.036.015.044l.015-.014a.1.1,0,0,0,.012-.087c.036-.009.069-.062.1-.027-.006-.015.006-.02.015-.029l-.015-.015.015-.015h-.03c-.116.072-.032-.083-.113-.128a.138.138,0,0,1,.128-.1c.042.053-.089.068-.042.143-.006.021.021.032.042.026-.015-.036.03-.047.042-.071.021.015.059.009.059.045l-.045.042c.039.051.116.014.158.057a.2.2,0,0,1,.072-.113c.051-.018.032.045.071.056-.012.062-.1-.006-.086.071.035.048.065-.033.1.015,0-.027.026-.038.042-.056.009.018.026.012.044.012-.018-.128.077-.047.128-.128.009.015.032.021.026.045h.03c.006-.036-.018-.084.03-.1.008.007.015.021.026.015V274.3c-.021.006-.026-.018-.042-.026l.015-.015c0-.012-.009-.021-.015-.03a.067.067,0,0,1,.071-.027c.027.042.131.024.071.1.012-.006.018.009.027.015a.077.077,0,0,1,.071-.03c.015-.018.033-.054.015-.071s.021-.026.03-.042c.027,0,.044.033.071.042-.009.009-.018.021-.03.015.081.075-.027.107-.027.173.045.065.122.047.185.07.048-.009.1-.041.142-.029l.015-.015.015.015c.032-.068.1-.045.154-.071.009.009.021.019.015.03.086-.045.065.08.143.056-.006-.051.077-.078.03-.128.015-.018.03-.039.056-.031.006.009.021.018.015.031.015,0,.033,0,.042-.015l-.027-.03c-.039-.033-.086,0-.116.03-.068.021-.084-.03-.113-.071,0-.021.032-.042,0-.056l.042-.045c.047,0,.056.05.071.071.03-.012.057-.092.116-.071.057.045.152-.072.184.029.015,0,.033,0,.042-.015l.03.03c.039-.063.128-.039.173-.045l.011.015.015-.015.015.015c.065.012.155-.078.185.015-.015.051-.083.021-.1.029v.012c-.081.027-.024.116-.1.143-.065-.024.012-.057-.015-.1-.038-.024-.074-.057-.128-.045.027.045-.05.078.015.1-.042.054-.107-.012-.143.071l-.015-.015-.015.015c-.009-.006-.015-.021-.027-.015-.024-.03-.062,0-.071.015.024.051.087.02.128.03s.087-.095.128-.015l.071-.071.056.056.015-.015.015.015c.039-.077.14-.006.173-.1.035.007.048.053.083.06,0-.116.1-.007.143-.06.033.086.122.036.173.03-.084-.012-.1-.113-.128-.158a.212.212,0,0,1,.128-.113c.039.051.065,0,.1-.029.042.009.1-.024.129.029,0,.024-.03.035-.045.057,0,.077-.065.08-.113.128.045.018.015.065.042.086l.045-.03c.035-.042.068.024.113,0,.06-.012.021-.081.072-.113.011-.006.021.006.03.015l.015-.015.012.015.015-.015c.021-.006.03.021.045.029-.018.015-.033.036-.06.027v.03c.051.006.071-.062.116-.071.068.131.071-.065.157-.03.036.047.093-.018.143-.026.068.021.071.116.155.1.071,0,.015-.081.071-.1.026,0,.039.026.059.041l.012-.015.015.015c.051.009.11.051.128-.029.036.033.042.077.1.059.06-.044.143.021.229,0a.426.426,0,0,0,.128.1c.015-.008.021-.032.041-.026l-.012-.015c-.005-.012.006-.021.012-.03.024-.006.03.021.045.03l.086-.071c.036.029.039.074.1.056.039.027.048.065.071.1.018-.036.038,0,.057,0s.009-.051.015-.071c.024-.021.041-.054.071-.06s.016.027.016.045l.072-.057.029.027-.015.015c-.009.03-.054.065,0,.087l.015-.015c.062-.03.048.048.071.071l.027-.03c-.024-.012-.024-.038-.042-.057a.067.067,0,0,1,.071-.026.1.1,0,0,1,.042-.1c.026,0,.039.029.056.042-.039.1.086.045.116.1l-.015.015.086.056c.054.006.1-.041.128-.071a.455.455,0,0,1,.1.143c.009-.031.039-.048.027-.086a.14.14,0,0,1,.157-.086c.057.018.009.077.042.1l.015-.015.015.015.057-.056c.021-.006.029.017.045.026l-.015.015.015.015.071-.056c.018.035.054.026.084.026.035.086.167,0,.2.115l-.015.016a.064.064,0,0,0,0,.081l0-.01c.045-.065.057.027.113,0-.006-.023.02-.029.03-.044l.026.029c-.009.006-.015.018-.026.015-.03.066.054.1.014.156.039.047.063,0,.113.015v-.027l-.015.012c-.053-.006-.036-.057-.015-.084.05,0,.086.066.116.084l.015-.012c.033.027.06.072.1.083.039-.1.107,0,.158-.071.02.023.054.041.056.071a.073.073,0,0,1,.071.029.067.067,0,0,0,.086,0c.077.021.146.158.229.086l.056.072a.092.092,0,0,0,.1,0c-.024-.021-.071-.019-.071-.057l.027-.029c.142.014.193.207.33.2.039-.1.131.033.155-.072l.015.015c.03.032.027.074-.015.086.03.125.05-.057.116-.03-.006-.018.012-.045-.015-.056.021-.054.077-.015.1.015l-.014.015a.217.217,0,0,0,.041.227c.06.006.107-.047.143-.072.078.018.063.137.158.143-.015.035-.051.018-.072.045l.1.072.012-.016a.108.108,0,0,1-.026-.056c.062-.021.077-.071.143-.086.006.009.018.015.015.029.048-.042.14.027.17-.059.012-.134.116-.209.044-.342.03-.027.075-.027.113-.042a.074.074,0,0,1,.03.072h.042c.045-.038.036-.075.029-.128a.089.089,0,0,1,.057-.03c.012.039.071.074.027.113.054.027.069-.038.117-.071l.014.015c.012.006.018-.006.027-.015l-.072-.083a.128.128,0,0,1,.086-.046l-.014-.013c.048-.03.023-.093.029-.143-.071-.092-.045.059-.1.059l-.027-.029c-.035-.03,0-.071.012-.1-.012.007-.018-.005-.027-.012-.048.035-.095-.009-.143-.016a.07.07,0,0,1,.027-.07c.059-.018.066.026.1.056s.057-.042.087,0l.026-.031c.006-.021-.018-.026-.026-.041-.021,0-.042-.033-.057,0l-.03-.056a.136.136,0,0,0-.1-.031.8.8,0,0,0-.083-.1c-.021,0-.042-.036-.059,0-.078-.059-.125.042-.2.042-.009-.024-.042-.039-.027-.072-.039-.107-.1.024-.158-.057-.009-.027.012-.041.027-.057-.015-.044-.062-.015-.083-.044v.015c-.027.009-.051.048-.071,0l-.132.113c.03.023.08.027.087.071-.062.03-.113-.048-.184-.042-.071-.048.042-.1,0-.157-.089-.044-.1.074-.188.086-.009-.03-.041-.071-.012-.1-.074.035-.074-.062-.131-.027-.036-.045.015-.125-.041-.157.006.032-.033.02-.042.041-.048-.021-.009-.045,0-.072l.012.015c.009-.009.021-.015.015-.027a.393.393,0,0,0-.229.012l.014.015a.073.073,0,0,1-.026.072c-.164.038-.271-.149-.417-.072-.044-.062-.139.006-.184-.056-.03-.033-.015-.11.041-.1-.024-.124-.208-.021-.241-.155-.1-.029-.089.1-.187.072-.187.044-.116-.163-.3-.132,0,.069.042.081.084.132-.024.068-.116.035-.155.1-.024-.035-.068-.083-.03-.128H60.06c-.012.051-.066.057-.1.087-.074-.062.039-.08.042-.142.033.042.084.008.113.026-.006.009-.018.019-.012.03h.027v-.086c-.018.007-.045-.011-.056.016l-.015-.016c-.015,0-.032,0-.042.016-.029-.007-.057-.051-.086-.016a.115.115,0,0,0-.057-.026c-.018.015-.039.03-.03.057s.039.008.056.014.039.031.03.057a.274.274,0,0,1-.229-.016c.146-.1-.1-.044-.1-.142l-.015.015c-.047,0-.107.062-.142,0l-.045.057-.013-.016-.014.016-.015-.016v.016h-.214l-.015.015c-.032-.018-.018-.053-.041-.071-.051-.024-.068.036-.1.057-.015,0-.033,0-.042-.016l-.044.045c-.048.007-.11.027-.155,0l.012-.071c-.036-.009-.063.035-.083-.015l.012-.015c.006-.013-.006-.021-.012-.03-.089.071-.193,0-.274-.042l-.027.042c-.038.015-.063-.018-.086-.042l-.042.042.012.015-.027.03c-.077-.03-.056.083-.128.071-.054-.03-.158.008-.158-.086-.006.021.012.048-.015.056-.012.007-.021-.005-.029-.015s-.012-.044.014-.056c-.006-.009-.018-.015-.014-.027-.06.021-.019.087-.072.113-.071-.125-.08.06-.169.015,0,.062-.092.047-.1.113-.026-.018-.026-.048-.041-.071.066-.042-.009-.09.027-.143-.047-.054-.092.071-.128-.027-.015-.021-.032-.057-.015-.071.131-.086.051-.25.071-.372.053-.057-.045-.125.03-.172.021.009.042.009.056.03.039-.084-.006-.132-.041-.2.009-.009.015-.021.027-.015v-.056c-.063-.068.066-.108,0-.173-.018,0-.039-.033-.057,0-.077-.066-.03.065-.1.057-.027-.024-.009-.065-.014-.1.006-.057.065-.042.1-.03.021-.036-.033-.041-.027-.071.072-.048-.03-.093,0-.158.018-.035.076-.107.112-.079a.029.029,0,0,1,0,0c.01-.009.019-.021.031-.015l-.015-.015.015-.015c-.03-.048.051-.086.042-.143-.012-.039-.072-.074-.027-.113,0-.047.057-.1-.015-.131l-.03.03-.014-.015-.012.015c-.027.009-.042-.013-.059-.03s.021-.027.03-.042l.015.015c.006-.075.1-.092.128-.143-.032.012-.048-.021-.071-.03l.03-.027c-.08-.068-.009-.142-.071-.214.015-.036.051-.018.071-.044-.059-.081.057-.179-.045-.241a.493.493,0,0,0-.113-.03l-.071-.057-.015.015a.087.087,0,0,1-.1-.059l.045-.057c.027-.009.042.012.057.03.056-.042.065-.125.1-.187.039.03.018.107.084.1.014-.038.059-.066.045-.113h-.015a.088.088,0,0,1-.086-.1c.03-.024.071-.024.1-.042-.036-.051,0-.081-.03-.131.006.015-.006.021-.014.03-.045.018-.036-.039-.057-.056.03-.006.057-.053.086-.015.03-.1-.05-.182-.042-.286.033-.03,0-.077-.029-.087-.051.012-.057.067-.087.1l-.041-.057c-.018-.056.041-.08.041-.131.119,0,.054-.173.188-.143.018-.068-.062-.02-.086-.056.018-.009.015-.027.015-.042h-.015c-.107-.074.071-.119.086-.2-.042-.14-.027-.3-.131-.417.017-.015.032-.035.059-.027v-.03c-.08-.038-.029-.151-.045-.2-.012.006-.018-.006-.027-.015s-.006-.032.012-.042l-.042-.044c-.018-.039-.03-.11.014-.143l-.071.045c-.006.018.012.045-.015.057l-.03-.029c.006-.072.1-.108.1-.185.024.024.056.048.042.087.092-.009-.018-.074.059-.1.009-.048.048-.105-.015-.129l.057-.03c.012-.065-.021-.112-.03-.169.059-.077.009-.217.045-.285.015-.057-.03-.143-.015-.2-.021,0-.03-.021-.042-.03-.018-.06.051-.029.071-.056-.036-.054.012-.143-.045-.188a.085.085,0,0,1,0-.1c.009-.018.045-.045.015-.057l.057-.072a.172.172,0,0,0-.027-.116c.036-.062-.015-.161.042-.214.054-.018.077.036.113.057l.015-.012.015.012c.015-.027.047-.009.071-.012a.287.287,0,0,0,.143.042c.042.03.113.021.128.086l.015-.015c.006.009.02.015.014.029.036.021.057-.044.086,0,.054-.059.093.048.143,0,.042.084.155.024.185.114v-.03c.009-.018.026-.012.041-.012-.012.075.077.084.116.129.006-.024-.012-.057.015-.072.006-.06-.071-.065-.086-.1.071.021.131-.071.2-.1a.08.08,0,0,1,.1,0c-.053.029-.044.077-.086.128a.092.092,0,0,1,.071.071l.057-.1c.1.033.217-.009.3.057.053-.021.116-.134.2-.071.047-.045.122.015.184.015.039-.023-.009-.047-.011-.071.053-.051.142-.024.2,0,.039-.042.054,0,.1,0l-.012-.015c0-.015-.006-.033.012-.042a.219.219,0,0,0,.157.042c-.045-.06.03-.1-.042-.143l-.015.015a.073.073,0,0,1-.113-.042l.012-.014c.062,0,.125-.059.172.014.03-.062.125.007.143-.055a.18.18,0,0,1,.114.071c-.027.009-.01.036-.013.057.081-.045.152.015.215.057-.009-.054.015-.092.011-.143.074-.072.152.011.229.014.033.007.084-.008.071-.044a.234.234,0,0,1,.158-.143c.065.089.107-.048.172-.042.009.015.033.021.027.042.038.027.113.008.143.015l.03.03a.13.13,0,0,0-.057.1c.086-.044.048-.128.143-.155l.027.057c-.015-.038.02-.063.044-.086.012-.006.018.006.027.015.048-.039-.033-.077.015-.116.047,0,.11-.068.142.015-.012.075-.047-.018-.086,0,0,.018,0,.036-.015.045.051.035.1-.009.143-.016.038.075.1.006.142.027l.015-.012c.02.032.056.035.086.056.006-.024-.012-.056.015-.071-.036-.03-.089-.036-.1-.085l.015-.015-.015-.015c-.054-.083.074-.05.1-.1.053.009.053.077.071.1-.018-.036.027-.048.042-.072.084-.018.065.077.1.116.024-.054.11,0,.113-.072.1.054.074-.1.172-.056l-.015-.015c.11-.02-.038-.1.042-.142.1.032.009.115.06.184a.217.217,0,0,1,.113-.042c.038.015.059-.02.086-.044l.015.014.012-.086c.012-.033-.015-.018-.026-.041l-.015.015-.015-.015c.024.051-.036.068-.056.1-.015-.045-.066-.015-.087-.045-.027-.078.054-.086.087-.128a.084.084,0,0,0,.113-.015c.024.057.1.071.143.071-.036-.036-.021-.086-.084-.086-.009-.024.015-.036.012-.057.03-.009.066-.045.086-.027l.015-.044c-.021-.015-.06-.007-.056-.042l.027-.029a.074.074,0,0,1,.1,0c-.005.021.013.047-.015.056l.015.015-.015.015c.054.074.187.121.116.244h.011c0-.041.051-.039.071-.059-.042-.039.018-.074.03-.113l.015.015.015-.015c0-.032-.009-.065-.045-.071l.057-.03-.057-.071.03-.027c.021-.006.027.018.042.027.018-.057-.059-.036-.056-.084l.03-.029c.032.05.122.021.155.029l-.012-.015c.134-.035.232-.155.357-.214.054-.051.11.023.128.057.042-.036-.024-.092.056-.128.063-.126.226.009.315-.116L64.374,265c-.009-.027.015-.036.015-.059-.11-.081.065-.11.027-.215.048-.071.149-.048.187-.113l.012.014c.018-.008.015-.027.015-.044H64.6c0,.024-.021.03-.029.044-.024-.027-.056-.048-.042-.086.009-.006.015-.021.026-.016-.062-.1.134-.044.087-.142l.03-.027c0-.143.137-.128.226-.188.1.054-.063.089,0,.143-.018.03-.089,0-.072.057.051.053.08-.036.131-.027l-.03-.057C65.07,264.246,64.88,264.136,65,264.095Zm-8.241,4.855.045.143c-.053.03-.012.113-.071.128,0-.036.062-.083,0-.113-.03.021-.081.015-.087.056l-.015-.014c-.015-.01-.1.023-.1-.027a.757.757,0,0,0,.155-.057.342.342,0,0,1-.071-.143c.03-.041.077-.038.116-.06-.107-.011-.075-.253-.215-.154,0,.056-.056.116-.045.185l-.042.041c.047-.072-.065-.081-.1-.112h-.072c.018-.036-.026-.048-.041-.072-.122.018-.158.289-.3.157a.1.1,0,0,1-.113-.014v-.057a.148.148,0,0,0,.113.026c.045-.026.1-.053.057-.113a.024.024,0,0,0,.03-.03c.024-.062-.039-.09-.042-.143l-.071.015c0-.012-.009-.017-.015-.026a.252.252,0,0,1-.056.071.139.139,0,0,0-.1-.03c-.021.015-.021.038-.03.056l-.027-.056c-.042-.024-.051.068-.086.015a.087.087,0,0,1,.03-.057c-.012-.027-.039-.009-.06-.015,0-.03.015-.066-.012-.087H55.52c-.006-.012.006-.021.015-.029s.033,0,.042.014c.027-.009.009-.035.015-.056l-.015-.016c-.009.009-.015.021-.03.016v-.029l.015.014.03-.027c-.045,0-.1-.065-.128,0-.006.018.012.045-.015.057l.042.056c-.039,0-.1.009-.1-.042-.051-.053-.113.048-.143-.045l-.06.03c.027-.077-.125-.095-.056-.172-.009-.018-.027-.015-.042-.015l-.029.03c.026.012.009.039.015.057-.119-.078-.235-.217-.4-.215a.19.19,0,0,0-.229-.072.154.154,0,0,1-.086.03c-.03-.036-.065-.066-.113-.03-.024-.06.086-.041.027-.1-.027.012-.069.048-.1.012-.018-.009-.015-.027-.015-.041.018-.031.068-.045.056-.087-.056-.021-.065-.078-.127-.086-.021-.051.042-.084,0-.128a.162.162,0,0,0,.142-.041c0-.027-.029-.039-.044-.057-.17-.1-.072.181-.241.083-.048-.026-.018-.125-.1-.1a.252.252,0,0,0-.057-.071.129.129,0,0,1-.128-.03l-.014.015c-.063-.029.006-.112-.057-.142-.1.071-.128-.083-.172-.113v-.03c.021.006.03-.021.045-.03,0-.056-.06-.054-.06-.113-.027-.008-.039.013-.056.03a.127.127,0,0,1,.029.1l-.015.014c-.063,0-.045-.143-.128-.071-.02.015-.033.041-.056.041-.059-.02-.024-.091-.086-.1-.036.023.012.1-.057.086-.05-.027-.042-.1-.116-.072-.053-.032-.035-.113-.113-.116l-.057.056c.036.062.125.052.128.131-.092-.015-.057.1-.086.154.154.1.283.285.428.372.053.108.16.116.2.229.045-.015.032.045.071.041l.015-.012c0,.018.033.039,0,.057-.036,0-.042-.077-.087-.03-.006-.018.012-.045-.015-.056a.13.13,0,0,0-.1.029c.027.009.009.036.015.057h-.045c.006-.012-.006-.02-.015-.03h-.027c-.009-.027.012-.042.027-.056-.018-.036-.054-.027-.084-.03l-.045.071-.042-.041-.045.041-.042-.041c.012.006.02-.006.029-.015l.027.029c.035-.018.027-.053.03-.086-.045-.087-.069.041-.128,0-.045.036-.027.11-.1.1l-.056-.06-.015.015c-.015-.027-.048-.009-.072-.015-.006.009-.02.018-.015.03l.015.015c-.038.151-.211-.074-.158.113.119.116.244.087.372.173.1-.045.146.131.214.027h.03c.012.1.134.059.2.086a.812.812,0,0,1,.357.087c.086.032.22-.021.256.1a.5.5,0,0,1,.056.185c.06-.018.063-.083.087-.128.071,0,.127.066.187.042l.012.015c.054-.012.006-.083.071-.057s.012.135.087.072h-.015v-.015h.015c-.006.012.009.021.015.03l.014-.015c.009.006.015.018.027.015l.015-.015.015.015.015-.015c-.006.012.006.018.014.026h.012c0,.054-.054.013-.071.046.027.089.116.008.173.015v-.015h.015c.006.02-.021.026-.03.041.057.116.1-.054.173.015.113.027,0,.238.158.158l.012.015c.089-.048.11.071.188.1.122.1.285.1.4.214l-.015.015c.024.043.069.039.1.057.015-.018.041-.018.056-.041.039.009.063.062.1.071l.015-.015c.023.006.092-.012.128.015s.08.033.113.071l-.015.015c.015.044.116.02.059.083-.017.063.1.1.012.158a.068.068,0,0,0-.071.03.188.188,0,0,0-.083-.057l-.015.012-.015-.012c-.066.054.065.113,0,.184l.015.015c-.015.027-.048.009-.071.015.015-.021.042-.018.056-.044,0-.053-.1-.044-.056-.1a.109.109,0,0,0-.087-.131c-.036,0-.059.078-.1.03l.03-.03a.664.664,0,0,0-.214-.012c0,.015,0,.033.015.042l-.015.015-.015-.015.015-.015c-.065-.024-.128-.1-.2-.072-.039-.065-.11-.045-.158-.087-.009.015-.033.023-.03.045l.015.015-.026.027c-.116-.015-.164-.2-.286-.113,0-.092-.1-.054-.143-.1l-.086.045c-.024-.069-.134-.042-.187-.1-.039-.015-.06.021-.083.043,0,.017-.006.035.012.045-.023.012-.077-.021-.1-.03.009-.077-.066-.1-.1-.143-.006.009-.018.018-.015.03l.015.015c-.024.036-.048-.009-.071-.015,0-.021.023-.033.014-.057-.059-.021-.116-.09-.184-.045-.045-.054-.107-.131-.2-.1-.015-.092-.113-.05-.17-.071.015-.128-.128-.1-.187-.173-.015.009-.042.042-.056.015.009-.015.036-.021.029-.045s-.029-.035-.056-.026l-.015.015c-.051-.018-.081-.083-.128-.1-.015-.036.027-.051.012-.087l-.027-.026c-.071.113-.146-.1-.229,0-.042-.024.021-.042,0-.071-.137-.048-.211-.158-.342-.214-.006-.039.012-.086-.015-.116-.071.078-.143-.018-.214-.027a1.921,1.921,0,0,0-.3-.315c.036-.015,0-.039,0-.057-.045-.02-.14-.009-.142-.1-.083-.03-.122-.1-.185-.158-.012-.068-.1-.107-.128-.17a3.473,3.473,0,0,0-.2-.414c-.017-.045-.077-.027-.084-.072.077-.094-.1-.169.012-.243.06-.009.125-.042.173-.03.021-.012.056-.029.071-.012.038-.027.074.044.128.026.045-.042.1-.095.158-.071.039-.072.042.017.086.014l.015-.014c.063.119.134-.1.185.056.032-.039-.056-.083.042-.071-.035.039.006.089.045.1.086-.03.169.122.229-.015.027.084.116.084.184.1-.006.021.021.027.03.042.018-.015.056-.006.056-.042s-.062,0-.056-.045l.012-.012c-.006-.009-.018-.018-.012-.029.056-.042.11.011.155.041a.059.059,0,0,0,.1.015c.021-.006.03.021.042.03s-.006.018-.012.027-.021-.006-.03-.012l-.03.027.045.045c.015-.03.042,0,.057.012.11.074.208-.087.3.029.062.006.152-.077.184.015.045,0,.11.1.128,0,.006-.056.081-.062.116-.1.032-.013.048.021.071.029v.027c-.012,0-.021.009-.029.015.009.041.05.053.086.056.009.027-.012.041-.03.059.077.036.077.161.187.113.039.026.074.066.128.056l.042-.056c.009.009.021.015.015.03l-.015.012c.062.042.077.1.158.087l.029.029c-.048.018-.1-.062-.143.015-.009.027.012.039.027.057s.06-.013.071.015c-.026.03-.006.077,0,.113.03.021.057.057.1.057.047-.063-.042-.17.071-.17,0-.018,0-.036-.015-.044s-.018.008-.027.014l-.015-.014c.08-.084.1.065.169.071.039.056.045.124.1.173.086-.009.095-.206.2-.071.071-.012.11.08.143.127.077.113.223.063.3.173.036-.006.081,0,.086.042l.027-.03a.345.345,0,0,0,.059.214c.128-.05.181.09.286.1.062.035-.018.225.1.142.1.172.3.2.342.387.137.03.125.152.244.226.053-.012.059-.086.113-.057-.05.063.026.116.071.143.053,0,.024-.071.03-.086s.021-.015.015-.026c.006.026.05.056.015.086l.012.012c-.018.018,0,.054.015.071l.03.03C56.758,268.87,56.847,268.917,56.761,268.95Zm6.885-4.611c-.03-.006-.066.012-.087-.015a.09.09,0,0,0-.015-.087c-.015,0-.033,0-.042-.015-.078.086-.206.113-.158.244l.045.042.012-.011.015.011c-.018,0-.044.015-.056-.011-.006.009-.021.015-.015.026-.05.025-.068-.035-.1-.056l-.015.015c-.083-.039-.137.08-.214.1,0,.017,0,.036.015.044-.024.063-.069,0-.1,0-.142-.023-.083.173-.229.143-.062.09-.155-.009-.214.1-.042-.009-.056.039-.086.06.045.047-.018.054-.026.1a.046.046,0,0,1,.015.071l-.086.045c-.036-.027.012-.086-.045-.1-.092.1-.357.122-.286.315.015.015-.068.068-.113.027-.042.006-.015-.045-.042-.057-.05.039-.14.033-.143.113-.045-.065-.074.015-.116.03-.057.042-.152.024-.185.1.015.016.036.03.027.057a.585.585,0,0,1-.342.056c-.042.042-.1.039-.158.057a3.137,3.137,0,0,1-1.725.173c-.018.044-.077.033-.1.015-.021-.072-.095-.068-.143-.1-.056,0-.122-.057-.184-.086h-.015l1.3-.485c.2-.078.416.035.613-.042.244-.063.485,0,.728-.059l-.015-.012.113-.045c-.009-.018-.027-.015-.042-.015.059-.027.128.056.158-.012l-.3-.03c0-.015,0-.033.015-.042l-.015-.015a1.778,1.778,0,0,1-.47-.015c.068-.018.14,0,.155-.086.11.075.131-.143.214-.042.03-.012.066-.11.116-.055.015-.018.051,0,.071.011.06-.119.223-.107.271-.226l-.015-.015c.042.018.062,0,.1-.015a.067.067,0,0,0,0-.086c-.048-.11-.11.033-.172-.027-.036.033.008.066.015.1-.072.016-.11.11-.185.117l-.045-.045c-.015.018-.03.039-.057.03l.015-.071a.125.125,0,0,0,.184-.056l.03-.03a.076.076,0,0,0-.071-.03c-.083.066-.182-.128-.271,0-.039-.042-.068.024-.116,0-.039.018-.033.071-.027.086s-.021.018-.015.03c-.122-.05-.167.092-.286.087l-.014-.015c.092-.023-.122-.095-.042.027-.062-.015-.107.095-.158.014-.018.018-.03.039-.056.03,0-.018-.006-.035.012-.044-.012-.01-.021-.033-.042-.027s-.009.037-.015.057a.123.123,0,0,0-.184-.042c-.01.008-.021.015-.015.026l.057.03a.076.076,0,0,1-.072.026l-.026-.026c-.054.1-.222-.078-.229.087-.012-.007-.021.005-.03.011.006-.011-.006-.018-.015-.027-.22.1-.506.054-.7.229a1.779,1.779,0,0,0-.586.128c-.054.089-.161.056-.226.113v-.027c.024,0,.036-.03.057-.044-.027-.036-.027-.057.014-.086h.1a3.39,3.39,0,0,0,.286-.3l.015.011a8.051,8.051,0,0,1,.857-.455c.077-.021.152-.039.229-.057l.015-.015c-.013-.007-.015-.019-.015-.032a.016.016,0,0,1,0-.013s0,.008,0,.013a.086.086,0,0,0,.015.017c.057.018.027-.051.057-.071a.351.351,0,0,0,.1-.086h.03c0,.044-.065.1,0,.128a2.3,2.3,0,0,0,.53-.154c.089.071.143-.078.226-.015.25-.045.5-.087.744-.128l.014.013.015-.013.012.013.015-.013c.032.027.08.006.116,0,.145.006.348.057.47-.044a.869.869,0,0,0,.387.056c.023.023.045.059.083.044.1-.1.212.077.3-.044.045.033.11.155.172.086.036-.011.056.021.086.03l.012-.015.015.015.015-.015c.027.121.095-.057.143.041.02,0,.047.015.056-.012.053.045.134.021.173.1C63.749,264.255,63.619,264.246,63.645,264.338Z" transform="translate(-25.759 -64.113)" fill="#529222"/>
    <path id="Trazado_427" data-name="Trazado 427" d="M43.745,179.935c-.626.059-3.5-.244-3.887-.71-.675.222-2.063-.281-2.967-.2-.888.725-8.151.3-9.751.444a26.619,26.619,0,0,1-4.987.318c-.534.044-4.252,1.206-4.274.843.544,1.309-4.307.777.828-1.087.86,1.45,2.728.126,3.7-.622.436-.192,1.372.422,1.6.4.762.089,1.852-.925,2.662-.91,1.323.311,8.488.592,9.386-.14,1.819-.015,5.053.732,6.855.562,1.432.436,4.644.57,3.647.969-1.867.828-2.428-1.28-2.091,1.317.071.547.642,2.433-.326,1.309-1.585.754.016,5.547.092,7.085.055,1.08-.3,2.966.234,3.839a2.531,2.531,0,0,0,.289,1.368c.321,3.927.5-.866.109-2.33.392-1.967-.387-5.214-.175-5.34-.326-3.225-.392-4.807.115-.37.07.6.517,4.348.239,4.756,1.231,1.6.539,5.983.637,7.973l-.038,12.979c.142,2.767.245,4.9-3.239,3.987-.441.215-.447.044-.909.089-.512.451-1.17-.03-1.8.162a16.14,16.14,0,0,0-3.86.052c-.474-.1-1.138-.037-1.612-.155a21.82,21.82,0,0,1-5.434.2,15.124,15.124,0,0,1-3.62.5c-.441.185-.67.059-1.133-.052-1.067.466-7.742-.052-2.536-.851,3.152-.443,6.506-1.531,10.349-1.893,1.813-.163,3.882.274,5.461.126l.223-.178c2.27-.051,3.441.754,5.287,1.213,2.662-1.183-.43-4.2-.327-2.145-.539.925-1.628.614-2.722.251-.555.452-1.808.023-2.5.089-.077-1.538-5.891.081-6.582-.008-1.144-.214-2.494.229-3.642.015a50.585,50.585,0,0,1-7.965-.17,2.417,2.417,0,0,0-.588,1.59c-1.366.126-.485-4.9-.534-5.969-.049-.917.338-2.352.294-3.269l-.234-.134c.125-2.019,1.66-7.728.2-9.444.838-1.464-.643-3.949.2-5.414-.245-.436-.055-1.087-.3-1.516.207-.326.212-.171-.022-.459a7.2,7.2,0,0,0,.289-3.12l-.359-2.707c.457-4.246.616,3.306.713,5.3.043.932.37,2.9-.038,3.712a.731.731,0,0,1,.049.932c.234.281.038.755.049,1.058l.235.148c-.147,1.561-.822,6.25.152,7.544-.413.666.076,1.531-.338,2.2.953,1.146-.005,4.622.071,6.161.038.776-.3,2.958,1.486,2.181a14.308,14.308,0,0,0,5.02.015l1.867.333a22.647,22.647,0,0,1,5.417-.081,36.577,36.577,0,0,1,7.067-1.4,23.657,23.657,0,0,1,3.506-.052l.011.155a12.473,12.473,0,0,1-2.254.356,9.7,9.7,0,0,0,2.276.1.855.855,0,0,0,.724.71c.251.156.839-.466.4-1.124l-.245-.126a51.2,51.2,0,0,0,.376-6.22c-.038-.754-.338-2.27.07-3.084-1.443-1.715-.19-6.685-.446-8.919l-.854-7.478c-.071-.614.06-3.868-1.269-3.291.24.3.24.3.033.628-.24.022-.468-.119-.692-.1-.027-.474-2.292-.407-2.765-.666-.664.206-2.51-.385-3.419-.3-.447.363-1.377.11-1.829-.148-.588-.133-1.067-.34-1.258.251-.615-.2-2.03-.466-2.6-.052l-.909.023c-.223.014-2.265.125-2.281-.178l.68-.185a53.825,53.825,0,0,1,15.032.577c-1.878-1.065-6.424-.947-8.711-1.25-.686.066-1.475-.407-2.042.036-2.014.163-2.254-1.138-8.934-.384a1.89,1.89,0,0,1-1.546-.186c.457.111,1.568-.17,2.036-.059,2-.8,10.976.052,13.2.185,1.285.037,5.7.6,6.822.185C44.55,181.755,44.692,179.9,43.745,179.935Z" transform="translate(0 0)" fill="#8d8c91"/>
    <path id="Trazado_428" data-name="Trazado 428" d="M62.579,203.77a.091.091,0,0,0-.06-.113l-.026.029c-.018,0-.036,0-.044-.014s0-.036.014-.045.021.009.03.014l.015-.014-.015-.012c0-.042.048-.039.072-.059-.006-.033.012-.075-.015-.1-.039.012-.074.071-.113.026-.015.039.018.06.027.087-.035.032-.116.044-.1.115a.074.074,0,0,0,.071,0c.006.009.018.015.012.026-.036.01-.081.09-.113.03-.012-.119-.05-.229.056-.315,0-.077-.113-.077-.113-.158.027-.056.009-.092.015-.143l.012-.012c.033-.069,0-.125.03-.173.021.015.059.006.056.042l.015-.012c.056.036-.007.081.015.113l-.015.015.015.015c0,.015,0,.033-.015.042l.015.015a.334.334,0,0,0,.113.241l.015-.012.015.012a.058.058,0,0,0-.045-.071.129.129,0,0,1,.015-.083.22.22,0,0,0-.071-.059.459.459,0,0,0,.03-.286.726.726,0,0,0,.015-.214c-.03-.1-.169-.086-.2-.169.009-.009.018-.021.03-.015-.036-.033-.027-.083-.03-.128.041-.117.095.042.143,0l.014.015c-.05-.071.039-.134,0-.2-.059.015-.063.089-.1.116-.026-.027-.009-.066-.015-.1.006-.068.089-.032.1-.1a.326.326,0,0,0-.072-.172l-.027.03-.029-.03.015-.015c0-.014,0-.033-.015-.042l.015-.014c.009-.027.047-.048,0-.072.009-.05-.024-.1.029-.157l-.044-.027a2.616,2.616,0,0,0-.057-.33c.065-.1-.122-.1-.042-.2-.015.005-.021-.007-.029-.015-.009.009-.015.02-.03.015-.033-.045-.021-.107.03-.113l-.03-.03c.009-.006.018-.021.03-.015.039-.036,0-.089-.042-.1,0,.014,0,.032-.015.041-.066-.006-.047-.095-.072-.143.033-.038.065.01.1.015.009-.035.03-.083,0-.116l.015-.011-.026-.03c-.027-.009-.042.012-.06.03l-.027-.03c.009-.051-.024-.122.027-.157l.015.014.015-.014c0-.015,0-.033-.015-.042l.015-.015a.068.068,0,0,0,0-.087c.1-.077-.009-.184-.015-.256-.051-.054-.086-.152-.158-.157-.083-.048-.187-.137-.184-.244-.164.006-.03-.2-.172-.226l.059-.03-.03-.056c.024-.107-.1-.187-.1-.3-.113-.027,0-.1-.072-.143-.035.007-.048-.077-.083-.029a.074.074,0,0,1-.03.071c-.075-.027-.09-.1-.1-.17.087-.1.033.074.1.071-.006-.011.006-.021.014-.029-.018-.066-.077-.116-.086-.184-.057-.122-.182-.116-.229-.229l-.015.015c-.015,0-.032,0-.042-.015s.027-.042.03-.057a.214.214,0,0,0-.131-.127.274.274,0,0,1-.027.1,1.269,1.269,0,0,0-.1-.27c-.014.026-.048.008-.071.015-.045-.018-.024-.066-.027-.1-.029-.039-.068-.113-.131-.1-.128-.12-.188-.277-.357-.331l.015-.015a1.862,1.862,0,0,0-.229-.2l-.012.014c-.024,0-.06.012-.071-.014-.009.009-.017.021-.03.014a.072.072,0,0,1-.041-.113,3.547,3.547,0,0,0-.586-.429c-.057,0-.1-.11-.158-.03l-.03-.029c-.018.006-.045-.012-.056.015l-.027-.042c-.024-.01-.053-.03-.071,0l-.014-.015a.068.068,0,0,0-.087,0l-.087-.072c.057-.035.009-.092-.015-.127l-.012.015-.015-.015c-.024.017-.072.015-.072.056-.056-.042,0-.1-.056-.128a.293.293,0,0,0-.158-.056,1.3,1.3,0,0,0-.5-.2c-.107-.107-.268-.083-.4-.128a.089.089,0,0,0-.127-.014c-.018-.009-.015-.027-.015-.042-.06,0-.03.092-.1.1l-.03-.03c-.14.086-.217-.083-.313-.158l-.03.057-.015-.012-.042.041c-.048-.005-.1.012-.143-.014.006-.019-.012-.045.015-.057-.018-.009-.015-.027-.015-.042h-.03c-.032-.026-.1-.056-.086-.116-.021.006-.057-.012-.071.015a.331.331,0,0,0-.3-.057c.021-.006.027.018.042.027l-.029.03-.042-.042c-.1.065-.06-.155-.173-.06-.005-.009-.018-.015-.012-.026-.072.021-.131-.05-.173.042.021.018.054.006.071.029s-.02.027-.03.042c-.048,0-.09-.059-.113-.1l.03-.03a.7.7,0,0,0-.214-.029l-.015-.012-.015.012c-.077-.057-.2-.006-.286-.042h-.128c-.014.009-.021.033-.044.03l.015.012-.086.086c-.029-.018-.074-.015-.1-.057.018-.056.089-.02.1-.071a.3.3,0,0,0-.155-.029c.018.054-.045.033-.059.071-.071-.062-.107.071-.169.086-.033,0-.078-.062-.1,0-.051-.024-.116-.006-.158-.057.006-.02-.012-.047.015-.056l-.015-.015.03-.029-.244-.012c-.03.047.069.13-.027.17-.027-.009-.068-.036-.057-.072h-.03c-.072.012-.012.054-.03.1-.021.018-.009.074-.056.057s-.036-.051-.027-.087c-.06-.051-.021.051-.071.057l-.072-.057v.057c-.006.041-.051.047-.086.045-.009-.009-.021-.018-.015-.03l-.015.015c-.017-.015-.017-.06-.056-.042a.069.069,0,0,1-.03.071l-.027-.029c.042-.048.021-.131.087-.158l-.045-.041-.027.027c-.032-.018-.077-.012-.1-.057a7.917,7.917,0,0,0-1.556.33c-.214.027-.36.209-.571.241l-.015-.015c-.074.087.089.071.057.158-.009.018-.027.015-.042.015s-.036-.02-.03-.041h-.027c-.018-.009-.015-.026-.015-.045-.045.009-.027.066-.072.086-.042.048-.071-.023-.1-.041-.018.009-.015.026-.015.041-.065.015-.116.113-.184.087-.033.053-.14.03-.1.128h.06c.1.088-.095.012-.044.113-.051.015-.1.071-.158.029l.015-.014c-.006-.01-.018-.015-.015-.027l-.113.113-.015-.015-.027.072c.027.009.039-.012.056-.027l.027.027-.056.071-.015-.015c-.009.009-.015.021-.027.015.015.023.06.035.042.071-.053.068-.143.16-.229.142a.191.191,0,0,1,.015-.071l-.042-.015c-.042,0-.039.051-.056.071-.048.009-.069-.048-.1-.071.047-.042-.033-.083.015-.128a.144.144,0,0,1,.086.015c-.015-.048.047-.1-.015-.128-.012-.006-.021.006-.029.014.018.009.015.027.015.041s-.042.042-.056.015c-.015.024-.015.054-.045.071-.119.045-.113.2-.2.271.086.039.021.122,0,.173h.029v-.015c.009-.018.027-.015.042-.015s.009.039.015.057a.909.909,0,0,1-.158.014c0-.077-.065-.163.044-.214.01-.027-.015-.041-.029-.056s-.03.018-.042.027c.042.122-.039-.027-.072.059.009.107-.116.128-.172.214l-.015-.015a.229.229,0,0,0-.1.1,1.634,1.634,0,0,0-.187.173c-.051.217-.276.2-.384.371v.057c0,.074-.113.077-.1.142-.086.059-.107.226-.244.229-.063.054,0,.122,0,.185l.015-.016.015.016c.006.011-.006.02-.015.029l.015.015-.029.026c-.036.018-.048-.026-.071-.042.027-.012.009-.039.015-.056-.021-.006-.027.018-.042.027-.027.119-.143.2-.214.3-.015.021-.033.057-.015.072a1.093,1.093,0,0,1-.1.271l-.012-.015c-.045-.012-.027.087-.071.029a.19.19,0,0,0-.072.113l-.015-.011c-.009.035.023.092-.03.113l-.015-.016-.012.016c-.009-.01-.021-.016-.015-.03-.107.035.036.157-.086.188l-.015-.015a.311.311,0,0,0-.056.172c.012-.005.02.007.029.012l.012-.012c-.009.06.032.182-.056.226l-.015-.012c-.11.009-.006.089-.1.128-.039.015-.057-.024-.087-.03-.08.051-.015.122-.056.173-.048-.06-.06.05-.116.015.018.058-.042.115.03.142a.046.046,0,0,1-.015.071c-.015-.018-.036-.033-.027-.06H47.2c-.044,0-.029.054-.014.072-.063.086-.036.152-.042.258.006.027-.056.045-.015.072-.032.045-.1.017-.113.085l.012.012-.012.015a.146.146,0,0,1,.026.1c-.024.042-.039-.021-.071,0l-.015.057c.071,0-.018.053.015.071-.027.039-.009.095-.015.143s-.057.1-.1.056c-.035.021.015.089-.045.086v.029c-.145.021.042.134-.027.185l-.029-.03c-.012,0-.018.009-.027.015l.012.015-.012.015.071.041-.06.045c0,.045.06.027.06.072l-.015.012c-.071.015-.08.078-.071.143.036.062-.018.146.042.214-.015.009-.021.035-.042.03-.006.047.012.1-.015.143-.009-.006-.015-.021-.029-.015,0,.027-.027.039-.042.057a1.392,1.392,0,0,1,.015.274,1.081,1.081,0,0,1-.056.241l-.015-.015a.107.107,0,0,0-.015.087c0,.062.062.134,0,.187l-.042-.029c0,.011-.009.02-.015.029.122.013.033.11.1.17-.015.036-.051.018-.071.045-.018.083-.143.161-.056.256-.015-.038.021-.06.045-.086.018.006.044-.012.056.015s-.045.015-.056.042.006.02.012.03c-.054.015-.009.074-.042.1.077.113-.036.256.042.369-.11.044-.021.134-.027.2-.048.041.033.083-.015.128l.057.071a.235.235,0,0,1,0,.185c.054.065.018.17.116.214l-.06.03c-.009.074.069.113.1.169-.086.081.057.14.03.229l.012-.015.03.03c.006.02-.021.03-.03.042.006.1-.08.238.03.3l.015-.015c.015.172-.053.36.113.487l-.015.012c-.054.065-.018.134,0,.214.015-.027.05-.009.071-.012.08.021.026.1.071.14-.08.059.033.107.015.172.185.06,0,.214.116.3-.006-.012.006-.021.012-.03.026,0,.038.03.059.045s.042.041.012.056c.015.024.042.024.059.042.027.068-.062.062-.071.1.086.068.083.175.17.241.021.006.042-.033.056,0,.009-.018.027-.012.045-.012.057.056-.045.042-.045.084.054.053-.012.149.03.213.03.007.057.054.087.016.023.026.057.047.042.086.125-.047.042.131.158.1l-.016.012c.045.083.137.161.1.259.089.059.05.169.143.229-.045.041-.077-.024-.128,0-.009.027.012.038.027.056s.03-.021.045-.029c.047.044.142.1.113.187.014,0,.032,0,.041-.015l.03.027c-.042.029.021.05,0,.086.032.069.077.023.113,0,.057.021.015.065.015.1.1-.074.054.087.143.071-.015.015-.03.036-.056.027.012.033-.021.051-.03.072.021,0,.042.035.06,0,.047.077.205.086.184.213l.015-.012c.024.039.006.071.056.1.021.164.259.155.215.316.029.035.059-.018.1,0,.033,0,.026.032.026.056.19.027.271.226.429.327.009-.017.027-.012.044-.012.063.116.188.131.2.271l.015-.014.012.014c.032-.026.08.024.116-.014.051.021.006.05.015.086.078.042.179.03.257.071.015.1.122.09.172.158l.012-.015c.077.027.175.081.187.17.048-.024.1,0,.143-.042l.027.184c.051.048.146-.035.158.045l-.072.057c.1.11.206.077.316.157.083-.035.2.012.271-.029l.03.086c.059.078.128.051.2.057l.015.015.012-.015c.053.024.125.006.158.071a.137.137,0,0,0,.128,0,.235.235,0,0,1,.157.087l.015-.015c.006-.012-.006-.018-.015-.027l.03-.03c.1-.062.024.08.087.1l.012-.015c.065.006.2-.041.229.057l.014-.015c.075.078.093-.081.143-.1l.015.012-.015.015.015.015-.045.057.015.015c.039-.069.092.009.116.029l.012-.015c.071-.1.122.054.172.056l.015-.015c.018.007.045-.012.056.015l.042-.042c.077-.023.122.039.187.042.071-.086.187-.021.271,0-.006-.012.006-.021.015-.03.079-.069.155,0,.219.041a4.491,4.491,0,0,1,.647,0c.03,0,.059.06.089.09a2.666,2.666,0,0,1,.446.059.6.6,0,0,0,.187.028c.071-.08.211.01.31-.06l.03.03c.039-.048.14-.11.1-.188.027-.008.045-.041.072-.012a.059.059,0,0,1,.1.012l-.015.015c.039.066-.062.039-.086.087a.1.1,0,0,0,.044.1c.027-.024.051-.063.086-.071l.071.113a.093.093,0,0,0,.1-.042c.1.03.158-.054.214-.087a1.11,1.11,0,0,0,.086-.128c.015.015.029.035.056.026.045.131.179-.012.244.057.023-.038.062-.1.113-.1.018.009.015.026.015.041.048.036.062-.062.1-.015l.1-.083c.009.039.1.03.071.1.03-.006.066.013.086-.015,0-.035-.077-.041-.029-.083l.015.012c.036-.03-.015-.11.056-.113.039.074.107-.03.143.041l-.012.015a.727.727,0,0,0,.155-.1l.015.012c.02,0,.047.015.056-.012-.026-.015.006-.041.015-.059l.015.015c.065-.027,0-.077,0-.113l-.015.015c0,.015,0,.033.015.041l-.041.043-.015-.012c-.03-.033-.01-.081,0-.116a.192.192,0,0,0-.1,0c-.018-.009-.015-.027-.015-.042.006-.062.074-.038.116-.044.009-.045.124-.048.071-.113.015-.009.021-.033.042-.03s.035.024.029.045c.027-.009.048-.048.071,0s-.056.045-.056.086l-.015-.015-.015.057c.012-.006.021.006.03.014l-.015.015c.027.018.009.057.015.083-.015-.074.116-.02.083-.113.009-.023.036-.068.072-.057.009.042.053.093,0,.128a.016.016,0,0,1,.016,0h0l.03-.03c-.036-.116.122-.071.128-.143.014-.009.041-.042.056-.012l.015-.015a.121.121,0,0,1,.071.015c.015-.069.077-.086.128-.116.009-.027-.012-.042-.027-.056.006-.009.018-.016.013-.03.077-.1.089.062.143.071l.116-.057c.015.009.042.045.056.016a.581.581,0,0,0,.184-.215c-.038-.047-.062.027-.1.03.021.155-.119.027-.173.128-.038.015-.059-.021-.086-.045l.044-.042-.044-.041.071-.071c.089.009.074-.069.116-.116.077-.033.077.056.113.086.116-.033.11-.139.187-.2.068,0,.128-.107.169,0,.045-.092.137-.124.187-.214.128.053.179-.057.271-.116.107.033.074-.1.142-.128h-.015c-.021-.027-.068-.045-.057-.086a1.553,1.553,0,0,1,.312-.2c.007-.055.081-.051.1-.057.048.048.119.012.158.015.015-.021.036-.021.057-.029.009-.027-.012-.042-.03-.057.018-.063.087.006.1-.057-.018-.018,0-.053.015-.072-.024-.015-.036-.059-.071-.045,0,.027-.03.039-.045.06-.039-.027-.036-.068-.056-.1a.1.1,0,0,1,.1-.042c-.006-.021.012-.048-.015-.059.11-.03.077-.161.172-.2.024.015.021.041.042.056-.018.081-.1.158-.1.214l.029-.027c.042.057.158,0,.158.1a.489.489,0,0,0,.113-.2c-.021-.026-.068,0-.086-.041.041-.021.032-.065.071-.087.045.027.03.093.087.1a.071.071,0,0,0,.029-.072c.063-.062.018-.119,0-.188.045-.068.1-.133.184-.086.03-.007-.006-.048-.014-.071.05-.01.086-.039.143-.027-.018-.072.009-.11,0-.188.011-.056.077-.05.116-.071.006-.158.152-.215.229-.328l-.045-.042a.094.094,0,0,1,.056-.116l.03.029-.015.015.056.056a1.732,1.732,0,0,1,.215-.243c.095.006.021-.057.059-.1l-.071.027c-.051-.1.08-.17.083-.27h-.012c-.018-.008-.015-.026-.015-.042.044-.03.107-.066.157-.045-.006-.081-.006-.175.071-.215-.038-.116.164-.036.072-.157a.09.09,0,0,1,.128-.057c.042-.009.1-.033.1-.087-.035-.065-.1-.125-.071-.214.024-.013.035-.057.071-.042s.068.057.03.087c.012-.006.021.006.03.015v-.086c-.009-.042-.06-.039-.087-.056.018-.1.095.011.143-.046.116-.074-.054-.119-.044-.184s.062-.039.086-.087-.027-.051-.015-.087c.086-.071.018-.151.06-.24l-.015-.015c.039-.042.074-.063.086-.113l-.015-.015.015-.015c-.015.006-.021-.006-.029-.015.042-.048-.057-.107,0-.143.014.021.039.021.056.03.072-.03-.014-.063,0-.1.01-.006.018-.019.03-.015l-.015-.012c-.012.027-.039.009-.057.012-.053-.054.054-.077.057-.128s.03-.128-.042-.158l.056-.056.027.03c.018.009.045.041.059.015l.012.011c.134-.127-.139-.255.015-.368.027-.06.021-.152-.056-.172.029-.033.006-.078,0-.113.011-.027.039-.008.056-.015.059-.038.1-.071.1-.142l-.071-.03c0-.054.071-.02.071-.071l-.071-.042a.4.4,0,0,1-.057.128c-.068.009-.05-.066-.071-.1.027-.027.008-.092.012-.113s-.006-.021-.012-.029a.205.205,0,0,1,.155.029.142.142,0,0,0,0-.129l-.012.015c-.018,0-.036,0-.045-.015s.03-.039.045-.056c.036-.024.048-.024.083,0C62.626,203.886,62.492,203.806,62.579,203.77Zm-1.345.3-.045.068-.027-.024a.134.134,0,0,0-.026-.1c-.048-.018-.036.039-.056.057-.015.035.038.059,0,.086l-.045.042c.03.032.089,0,.086.06l-.015.012c.042.072-.054.08-.071.143a.057.057,0,0,0,.071.045l.03-.045c.042.038-.021.068,0,.116-.018.059-.084.007-.116-.014l-.083.1c-.015-.029-.042,0-.06.013s-.009.059-.012.086c.084.048.012.14,0,.2a.255.255,0,0,0-.086.173c.027.084.113.018.158.057l-.045.045.015.012c-.015.021-.042.033-.042.06s.036.009.057.012c-.006.024.018.029.027.045-.048.021-.039.092-.1.087-.024-.027-.009-.083-.057-.087l-.015.015a.206.206,0,0,0-.056-.086c-.027-.009-.042.011-.059.026.006.036-.018.083.029.1.024-.006.056.012.071-.015-.006.035.012.074-.015.1l-.071-.03c-.027.038-.009.112-.015.142h.015v.015c-.009-.005-.015-.02-.027-.015s-.039.03-.029.056c.029.021.065.024.086.06-.084.038-.063.125-.072.2-.039.015-.03-.026-.044-.045s.014-.045-.012-.057c-.08.009-.092.1-.116.158,0,.03.039.047.056.071-.039.026.015.051,0,.086-.045.072-.125.119-.113.229a.089.089,0,0,0-.072.071.131.131,0,0,0,.03.1c-.068.077-.039.164-.131.229a.2.2,0,0,0,.007.064l-.007-.008c-.093.021-.045.137-.143.158a.669.669,0,0,1-.128.256l-.015-.015-.012.015.017.1c-.029.018-.076.015-.1.061s-.049.036-.064.067.02.057,0,.088c-.049.1-.058.093-.154.142-.123.064-.1.087-.189.2,0-.005-.01-.025-.013-.028a.353.353,0,0,1-.083.123c-.005-.012,0-.025,0-.037-.074.045-.062.159-.126.212s-.117.046-.2.066l-.011-.037c-.054.046-.12.11-.166.151.05.187-.355.425-.476.511a.141.141,0,0,0,.017.022v0s0,0,0,0c-.041.161-.251.317-.381.415s-.169.241-.27.287c-.144.065-.278.007-.4.159-.043.055-.028.1-.088.139s-.192.009-.267.027c-.119.03-.2.1-.329.132a1.323,1.323,0,0,0-.341.119c-.016.01-.035.061-.041.063-.046.014-.051-.022-.1-.019-.075,0-.111-.044-.192.029-.1.092-.032.151-.223.146l.014.023c-.065-.006-.143-.116-.2-.014.057.065-.042.1-.059.157H55.5v-.029c.012.006.018-.006.027-.013a.056.056,0,0,0-.042-.071c-.029,0-.048.036-.071.057v.027a.133.133,0,0,0-.025,0c.031-.029.031-.065.01-.114-.062-.053-.1.039-.158.057-.074.012-.181-.033-.214.056-.012.089.1.009.116.071l-.143.142c-.027-.038-.066-.047-.1-.071.021-.047-.006-.113.056-.142-.012-.009-.021-.033-.042-.027l-.015.015c-.078-.068-.14.081-.2.013-.044.065-.122-.051-.172.029l-.012-.015-.015.015c-.039,0-.119.033-.172,0-.027.066-.069.125-.158.1-.024-.035,0-.089-.057-.116a.1.1,0,0,0-.087.045c.01.032.042.056.03.1-.06-.077-.093.047-.158-.015-.027.012-.009.039-.015.059-.018-.005-.045.012-.057-.014-.042.014-.1-.036-.143-.057l-.2-.015c.017-.084-.06-.11-.1-.143l-.012.015c-.042-.029-.077-.11-.131-.059-.021.032-.081.051-.056.1l.014.016h0c.057-.018.066-.093.128-.045.018.041-.024.032-.042.045a.2.2,0,0,0-.087,0h0c-.062.007-.123.015-.127-.072.017.015.033.042.056.042s.039-.03.03-.056c-.05-.072-.143-.036-.2-.086-.036.065-.081-.027-.113.044-.021-.018-.018-.044-.042-.059-.018,0-.035,0-.044.015s-.012.056.015.071l-.015.015c-.051-.033-.015-.116-.086-.128-.012-.009-.086.024-.083-.029-.009-.018-.027-.015-.045-.015-.081.06.066.1.057.158.018-.027.051-.027.071-.042.006.045,0,.059-.042.071-.015-.017-.03-.038-.057-.029-.062.024-.119-.054-.187-.057a.056.056,0,0,1-.071.042c-.027-.027.006-.045.015-.071.017-.009.014-.027.014-.042s-.014-.021-.029-.015l-.012.015c-.027,0-.087-.007-.116.03.018.009.015.027.015.041-.036-.014-.048.03-.072.042-.032-.045.048-.116-.015-.155-.048.083-.131-.051-.17.056-.077.024-.08-.11-.143-.029v.045h-.03c.018-.042-.039-.071,0-.1l.042-.03c-.009-.116-.235-.069-.128-.2a.052.052,0,0,0-.086-.042c-.062-.027-.066-.146-.142-.1-.107-.084-.223-.241-.384-.184a.284.284,0,0,0-.158-.057c-.009.053-.1.06-.071.143-.027-.009-.042.012-.056.027a.063.063,0,0,1,0,.071c-.027-.024-.1-.006-.071-.071l.015-.015c-.027-.039-.053.015-.086,0-.039-.066-.056-.181-.157-.184.021-.057-.116-.06-.03-.113.015-.033-.018-.051-.027-.072h-.015c.015-.045.048-.1.015-.143-.081-.035.036-.095-.045-.131l-.057.03c-.036-.013.015-.084-.042-.1l-.071.059c-.024-.013-.012-.051-.045-.045l-.027.057c-.045-.012-.071-.071-.116-.083-.042.026-.113.071-.155.012-.03-.027,0-.045.012-.072.027.01.042-.012.06-.027l.012.015c.029-.018.009-.051,0-.071-.048-.086-.179,0-.143-.143a.127.127,0,0,0-.1-.03.11.11,0,0,0-.045.1c-.006.009-.018.014-.012.026-.021-.05-.077-.017-.116-.026-.027-.125.051-.2.045-.316-.036-.024-.089-.006-.116-.057v-.029c.018,0,.036,0,.045.015a.087.087,0,0,0,.027-.128c-.024-.042-.065-.039-.1-.057l-.029.026.071.045-.015.012a.242.242,0,0,0-.1-.057c-.032.051-.1.056-.114.117a.131.131,0,0,0-.059-.117c-.021.006-.048-.011-.057.015-.029-.1-.2-.113-.086-.214-.042-.051-.095.045-.128-.029H48.9c0-.057.071-.019.086-.072a.2.2,0,0,0-.086-.2l-.015.014-.012-.014c-.033.014-.071-.033-.1.03-.024-.039-.092-.009-.1-.057l.015.011c.018-.038.083-.08.044-.128.006-.009.018-.015.012-.027-.024-.024-.045-.059-.083-.044-.015.021-.045.033-.045.057-.012.006-.018-.006-.027-.012.045-.107-.154-.095-.143-.214-.071-.006-.024-.083-.059-.116l.015-.015c.024.03.027.08.071.086.057-.086-.086-.2,0-.3.006-.012-.006-.018-.015-.027-.083-.039-.039.107-.113.056-.06.048-.033-.053-.072-.071v-.03c.033,0,.077.042.1-.012.015-.036-.029-.051-.045-.071l.071-.045c-.033-.036-.044-.116-.113-.1l-.015.012a.064.064,0,0,1-.041-.083l.012-.015L48.2,206.6c.03-.015-.006-.042-.015-.059-.015,0-.033,0-.042.015.027.044-.006.074-.015.116l-.057.027c.012-.068-.08-.054-.056-.127.015,0,.033,0,.042-.015.1.107.041-.078.1-.1,0-.081-.06-.113-.1-.158-.015,0-.033,0-.042-.015.006-.05.039-.053.056-.1-.014-.06-.029-.116-.044-.172.021-.024.056-.009.071-.042-.119-.059-.119-.211-.113-.315-.035-.033-.027-.083-.029-.128l.015-.015c-.137-.051.012-.137-.056-.229.021-.059-.03-.128-.056-.184-.045-.057.036-.226-.072-.2v-.03c.036.014.048-.03.072-.042-.021-.068-.006-.152-.072-.2l-.014.015c.05-.054.021-.143.029-.214l-.045-.057.016-.014a1.366,1.366,0,0,0-.072-.414c.086-.2-.054-.384.056-.571-.018-.067.048-.194-.056-.2.027-.015.009-.048.015-.071l-.015-.015c.012.006.021-.006.03-.015l.012.015.045-.041c-.03-.051.057-.122-.014-.173.056-.11.006-.264.041-.386l-.012-.013-.015.013c-.021-.009-.03-.048-.045-.072l.015-.012.016.012.014-.012c-.006.021.018.027.027.042s.03-.021.045-.03c-.006-.018.012-.045-.015-.057.063-.071-.068-.1-.042-.169.125-.033.047-.2.071-.3.081.006.048-.086.072-.128-.006-.014.006-.021.012-.029-.027-.015.006-.042.015-.056s.021.006.03.014l.1-.1-.012-.015c.015-.018.06-.018.042-.056a.164.164,0,0,0,.071-.158c.027.008.042-.012.057-.027.039-.1-.11-.124-.057-.229.021-.006.048.012.057-.015a.056.056,0,0,0-.042-.072c.05-.1.063-.229.158-.3a.939.939,0,0,1,.241-.454l-.057-.045c.021-.006.047.012.057-.015a.124.124,0,0,0-.027-.057l.072-.057c-.009-.009-.021-.015-.015-.03l.015-.011c0-.021-.015-.087.012-.117l.03.117c.093-.027.068-.128.113-.188l-.012-.015c.063.009.083-.039.113-.084l-.015-.015.142-.142c-.008-.018-.026-.015-.041-.015v-.03c.03.006.054.086.086.015-.024-.009-.012-.047-.045-.041-.011.023.021-.057.03-.086.009-.006.015-.021.027-.016.03.013,0,.063.045.057.009-.146.2-.107.185-.256.062-.024.086-.092.116-.142l-.015-.015.015-.015c-.009-.009-.021-.015-.015-.027l.015-.014c.036.051.051-.048.1-.015-.006.012.009.021.015.029.06,0,.107-.05.143-.071-.011-.013-.023-.029-.04-.032l.04-.04c-.006.021.021.027.03.042.033-.063.217-.1.128-.2H49.81c.033-.053-.045-.1.044-.143l.014-.012c.06.015.132.062.2.042.019-.006.03-.041.048-.049s.085-.016.113-.04.038-.083.063-.117c.045-.062.065-.048.132-.081a.478.478,0,0,0,.073-.054c.025-.037,0-.064.016-.09.06-.127.134-.056.236-.106.065-.031.052-.1.107-.137.032-.021.065,0,.1-.014s.057-.055.1-.073.075-.011.1-.031.053-.093.093-.122a.44.44,0,0,1-.009.08c.032-.017.065-.031.1-.046l-.01-.019c.054.018.074-.03.116-.042a.046.046,0,0,1,.019-.061c.03-.023.075-.036.038-.082.059-.021.134-.015.184-.057l.015.012.015-.012c.069.048.113-.051.17-.071.02-.021.011-.078.059-.06,0,.021-.036.042,0,.06.042-.024.116-.006.128-.071.027-.008.042.012.057.027.048-.015.018-.143.086-.057.113-.014.2-.11.313-.113.122-.131.276-.045.416-.131l.042.044.015-.015.015.015c.039,0,.036-.047.057-.071.045.08.1-.036.143.015.1.015.018-.116.113-.1a.221.221,0,0,0,.2.03l.06-.045-.015-.015c.089-.083.2.051.3-.042l.012-.015c.018.018.032.039.059.029l.027-.029c-.027-.009-.009-.036-.015-.056.06.006.1.152.158.056l.015-.014a.069.069,0,0,0,.072.029l.015-.015a1.268,1.268,0,0,0,.27-.026.108.108,0,0,0,.087.042l.015-.015c-.062-.074.045-.056.072-.1.065-.021.116.042.17-.015.012.059-.063.042-.057.1s.062.021.1.014l-.016-.056a.16.16,0,0,0,.158-.015v-.015c.006.06.056.078.083.116.027-.053.018-.116.1-.128l.015-.015.027.027-.012.015c.08.026.062.118.155.116.018-.063.08-.09.116-.116.015.017.035.029.027.057l-.012.014a.146.146,0,0,0,.112.029c.048-.074.1,0,.158-.044l.015.014.012-.014c.068-.01.075.039.131.06,0-.108.133-.039.2-.06.027.012.009.039.015.06-.029.011,0,.038.012.056.059-.119.175-.024.274-.072.018.024.054.045.072.027l.012.015.015-.015c.048.045.048.11.087.158a.265.265,0,0,1,.128-.087c.03.024.051.063.086.072.009.027-.011.041-.029.059l.044.042.015-.015.012.015c.021-.03.068-.045.06-.086-.039-.087-.143-.051-.172-.128.048-.033.077.059.143.03.032.142.175.14.243.256.089-.012.226-.045.3.03h.045a.092.092,0,0,0,.042.1l.015-.015c.021.018.018.045.042.06s.042-.015.06-.03c.021-.039-.045-.057,0-.086.152-.033.006.193.169.127.036.077.092-.029.129.045.012-.027.038-.009.059-.014.018.033.012.077.057.1-.01.071-.057.151.042.184a.139.139,0,0,0,.086.016c.032-.012.077-.14.128-.056.012,0,.021-.01.03-.015.006.059-.071.059-.086.1l-.015-.012c-.018.009-.015.027-.015.042.045.063.128.041.173.071.047-.023.009-.045,0-.071a.954.954,0,0,0,.327.142c0,.057-.048.1-.072.144a.119.119,0,0,0,.158.042c-.005.014.009.02.015.029l.015-.015c.008.009.014.02.026.015l.015-.015c.113.161.276.137.387.271.018.006.045-.013.057.015s-.021.03-.03.045c.009.017.026.012.044.012l.015-.012c0,.091.053.115.128.154a.732.732,0,0,0,.158.142l.042-.042-.071-.042c.029-.006.086-.054.128-.015l.015-.015c.056,0,.006.066.042.087.006.06-.062.1-.027.158.086-.032.1.1.2.1-.006.107.125.119.113.229a.076.076,0,0,0,.071.03c-.018.134.161.2.116.327.018.023.053.048.071.03.024.045.089.1.087.169a.27.27,0,0,1,.1.158.046.046,0,0,0-.071.015c.066.045.039.167.142.158l.057.056c-.021-.005-.027.018-.042.027a.067.067,0,0,0,.029.071c.015-.033.036.006.057,0a.209.209,0,0,1,0,.158c-.021-.006-.03.021-.045.03.113.024.009.2.142.184.006.03-.012.066.015.086-.048.077.1.161-.015.23.036.05.045.124.1.158v.041l-.029-.03c-.018.042-.084.08-.042.131.039,0,.086.063.113,0,.006-.033-.048-.036-.027-.071a.215.215,0,0,0,.056.041c.036,0,.045-.059.087-.041l.042.041c.015-.009.021-.032.045-.029-.006.023.012.059-.015.071a.073.073,0,0,0-.1,0c-.015.018-.036.033-.026.059l.056.042-.015.015c0,.015.012.074-.015.1-.015-.015-.03-.035-.057-.026,0,.035-.065.049-.041.1.017.068.125.023.083.116l-.056.026.045.059c-.018.032-.087.068-.071.128.047.018.032.087.056.128a.088.088,0,0,0-.015.113c.01.009.015.021.03.015s.013-.021.012-.034c0,.007.01.012.015.019-.024.086.119.2-.026.273-.006.021.017.027.026.042.03,0,.045-.032.071-.042l-.015-.015c.071-.012.14.006.131.086a.087.087,0,0,0-.061.083c-.015-.01-.041-.04-.055-.011l-.015-.015c-.107.062-.026.208-.071.3.006.048.06.033.086.056l.056-.071c.077.068-.059.121-.012.214-.054.03-.03.06-.015.1a.837.837,0,0,0-.03.229c-.051.009-.018.074-.056.1.041.018.03.083.086.071l.026-.03c-.014-.015-.03-.036-.056-.026.012-.036.059-.018.056-.06.036.018,0,.039,0,.06a.347.347,0,0,1,.045.2.1.1,0,0,0-.015.113c-.012-.007-.02.008-.03.014v.03a.231.231,0,0,1-.071-.116.692.692,0,0,0-.1.116l.015.012-.015.015c.006.039-.012.125.015.172.035-.03.038-.111.1-.057l.015-.015c.027.039.051-.011.086,0C61.207,203.984,61.285,204.026,61.234,204.071Z" transform="translate(-23.127 -13.213)" fill="#004382"/>
    <g id="Grupo_9920" data-name="Grupo 9920" transform="translate(163.845 200.155)">
      <path id="Trazado_429" data-name="Trazado 429" d="M668.641,286.875h.7a.94.94,0,0,1,.591.137.482.482,0,0,1,.159.389.492.492,0,0,1-.1.3.421.421,0,0,1-.256.162,2.427,2.427,0,0,1-.423.073h-.67Zm0,4.134v-2.1h.142a.686.686,0,0,1,.393.119,1.25,1.25,0,0,1,.288.4l.856,1.579h1.8l-.78-1.5a2.129,2.129,0,0,0-.224-.324,1.806,1.806,0,0,0-.255-.271,1.639,1.639,0,0,0-.413-.19,1.882,1.882,0,0,0,.559-.2,1.418,1.418,0,0,0,.5-.5,1.451,1.451,0,0,0,.184-.742,1.434,1.434,0,0,0-.24-.838,1.192,1.192,0,0,0-.631-.472,3.93,3.93,0,0,0-1.13-.126h-2.662v5.169Z" transform="translate(-663.589 -282.767)" fill="#004382"/>
      <g id="Grupo_9919" data-name="Grupo 9919">
        <path id="Trazado_430" data-name="Trazado 430" d="M657.918,272.6a5.738,5.738,0,1,0,5.742,5.739A5.74,5.74,0,0,0,657.918,272.6Zm0,10.309a4.57,4.57,0,1,1,4.574-4.57A4.571,4.571,0,0,1,657.918,282.9Z" transform="translate(-652.18 -272.596)" fill="#004382"/>
      </g>
    </g>
    <g id="Grupo_9921" data-name="Grupo 9921" transform="translate(27.14 185.22)">
      <path id="Trazado_431" data-name="Trazado 431" d="M64.845,214.764l.023.022.037-.035a5.149,5.149,0,0,1-.012-.517c.117.132.053.371.228.481l-.013.012c.027.064.1.074.157.084l.013-.013c-.007-.007-.018-.012-.013-.024s.013-.015.022-.01.017.013.013.022l-.013.012a.575.575,0,0,0,.372.119c0-.005,0-.012,0-.017.06.073.188.056.265.123.007-.022.03-.008.047-.012l.013.012c.042-.01.055-.051.048-.094s-.038-.007-.06,0l-.013.013c.008.007.017.012.013.022l-.013.012a.158.158,0,0,1-.06-.093c.077.066.1-.078.18-.036.008.047.036.091.046.137a.109.109,0,0,1,0,.023.117.117,0,0,1-.012.063c.008.007.012.017.023.012.045-.007,0-.074.059-.059a1.458,1.458,0,0,0,.108.117l0,0a.074.074,0,0,1,.018-.01.062.062,0,0,0,.027-.021c.047.071-.058.117-.072.165.015.006.012.022.012.034l-.012.012c.017.051.094-.007.094.059l.048.047c.025-.015.087.024.11-.022v-.025a.074.074,0,0,0,.082,0c.008-.008.017-.012.012-.022.025-.012.042.015.047.022l-.022.025c.06.019.017.083.047.118-.017,0-.035-.03-.047,0,.007-.022-.013-.035-.025-.049s-.025.017-.035.025.005.017.01.025h.025c0,.019.025.029.035.046.06-.046.118,0,.17-.071.038,0,.093-.037.108.013v.046c-.017-.005-.025.017-.037.025-.013.029.025.039.037.059a.227.227,0,0,0,.073.177l.13-.024c0,.056.087.056.037.118-.017-.013-.015-.035-.037-.047-.015.005-.037-.01-.048.012a.134.134,0,0,0,.1.069l.01-.009c.043.009.038.1.11.068l.023-.022c.04.044-.02.081-.035.118-.015.008-.037.035-.047.012-.032.01-.095-.029-.1.034.023.071.162.049.1.143l.01.01c.045-.018.047-.1.1-.068-.037.022-.05.129-.132.092-.005.025-.042.047-.013.071-.017,0-.022.015-.035.023.08.048.073.2.2.189h.025a.07.07,0,0,1-.048.083.055.055,0,0,0-.025-.058.077.077,0,0,0-.032,0l0,0a.051.051,0,0,0-.023.017c0,.036.045.071.013.108.022.006.007.029.012.046-.085.025.02.086-.047.118-.032.059.067.034.035.094l.035.046c-.02.023-.055.007-.083.012l-.013-.012c-.025.015-.005.042,0,.059l.025.025.01-.012c.032.017.072-.02.11-.022v-.049c.018.012.045.012.06.037-.038.051.125.13,0,.152,0,.015,0,.029-.012.037-.038.01-.029-.037-.038-.059a.088.088,0,0,0,.012-.058c-.02-.052-.057,0-.082,0l.011.034c0,.027-.053-.005-.048.035l.037.037c-.022.066-.192.13-.06.2-.007.012-.03.019-.025.037.05.007.107-.081.167-.047-.007-.051.06-.071.06-.118a.082.082,0,0,0,.108-.012c-.01-.045.017-.074.037-.106-.055-.142.012-.291-.06-.424l.013-.012c-.037-.042.045-.084-.025-.106a.16.16,0,0,0,.035-.176.055.055,0,0,0,0-.071c-.057-.032.013-.072-.01-.119.013-.012.03-.024.023-.046-.023-.062-.055.026-.082-.013a.152.152,0,0,1,.059-.117c-.131-.023.051-.167-.066-.216.034-.029,0-.068-.006-.1-.015-.014-.037-.014-.048-.033-.015.013-.017.049-.05.033-.022-.053-.1-.1-.107-.152a.5.5,0,0,1-.132-.164l-.01.012c-.055-.02-.038-.106-.11-.106,0-.051-.058-.069-.095-.083-.013.007-.017.027-.035.024-.023-.029-.005-.073-.05-.1-.042.031-.087-.008-.129-.012.048-.059-.058-.093-.073-.128-.01.022-.032.008-.048.01.033-.14-.157-.157-.157-.282-.058-.064-.17-.054-.192-.152-.045-.017-.077-.061-.12-.084-.008.023-.03.008-.048.013a.047.047,0,0,0-.06-.035c0,.025-.04.052-.06.022-.132-.034-.212.163-.335.047-.077.044-.138-.029-.217-.022-.015-.066-.122-.106-.06-.164.052-.02.1.044.132-.012-.065-.023.03-.061-.035-.084-.082.016-.077-.1-.167-.08a.139.139,0,0,1-.17.059l-.022-.025c.05-.02.042-.086.06-.129-.007-.059-.087-.035-.12-.022-.007.015-.023.01-.038.01a.511.511,0,0,0,0-.245c.02,0,.025-.017.038-.024l-.038-.047.06-.059c-.03-.015-.07-.017-.07-.059,0-.017-.017-.024-.025-.037s-.017.007-.025.012c-.008-.022-.03-.008-.048-.012.013.076-.085.108-.082.176-.013,0-.017.008-.025.012s-.018-.027-.035-.022v-.025c.017.005.022-.018.035-.025s-.018-.022-.025-.034c-.025,0-.04.031-.06.047l-.023-.023-.025.023c-.064-.023.03-.086-.035-.118-.012.008-.017.03-.037.024-.077-.088,0-.149-.048-.248-.012-.058.08-.1.013-.151.072-.12-.137-.078-.048-.189l-.047-.047c.067-.027,0-.068-.012-.108l-.038-.023a.133.133,0,0,0,0-.164.147.147,0,0,0-.155.059c.005.01,0,.015-.012.022-.035-.056,0-.083.012-.14.042-.005.072.069.107.011h0c-.03-.028.013-.084-.035-.106l-.038.047-.047-.059c-.008.012-.028.02-.022.037h-.025a.013.013,0,0,0,0-.009c0-.009-.011-.015-.019-.022l-.006-.006c-.025,0-.055.007-.07-.022a.046.046,0,0,0,0-.006v-.013a.053.053,0,0,0,0-.02.063.063,0,0,0,0-.011.067.067,0,0,0-.054-.033l-.017,0c-.056.01-.106-.042-.153-.076-.04-.068-.055-.16-.142-.2.065-.078-.085-.177.035-.213-.01.032.017.049.025.071.007-.022.03-.007.047-.012v.024c-.01,0-.017.005-.025.012s0,.02,0,.029a.045.045,0,0,0,.024.043c.022.006.035-.013.048-.025l-.023-.025,0,0,.006-.006-.01-.012c.008-.017.07-.01.048-.059l.013-.012a.3.3,0,0,1-.158-.283c-.058-.019-.012-.084-.068-.1a.076.076,0,0,0,.009-.013c.04-.1-.085-.142-.022-.236a.2.2,0,0,0-.145.106c-.005.007-.018.013-.013.024-.017-.061-.025-.135.038-.176.025,0,.055,0,.07-.025.047-.105-.077-.078-.082-.164-.03-.014-.04.022-.06.034s.01.035.023.047H63.5c.013.034-.03.032-.048.049a.559.559,0,0,1,.013-.167.176.176,0,0,1,.072-.14c.012-.015.03-.025.022-.047s-.022-.012-.035-.012a.021.021,0,0,0-.011.015c0-.031-.028-.058,0-.086.02.013.045.013.06.034a.128.128,0,0,0,.025-.2l.034-.047-.012-.012c.034-.027.067-.069.038-.106,0-.019-.02-.03-.038-.024h-.035c-.017-.086.185-.066.06-.152-.055-.027-.07.083-.12.035-.012-.047.055-.123-.037-.143-.013-.042.047-.037.05-.068.012.032.063.029.095.046.04-.015.02-.054.026-.083-.02-.023-.055-.049-.085-.012-.018,0-.025-.015-.035-.022a.116.116,0,0,0,.01-.071l-.01-.012c.047-.059.117-.11.095-.211l.035-.036a.076.076,0,0,1-.035-.081c.03-.052.1.017.107-.059v-.036l.013.012c.055-.022.042-.094.095-.13l-.01-.01c.03,0,.023-.032.035-.049l-.025-.022-.035.059c-.047-.059-.055-.061-.047-.143a.3.3,0,0,0,.072-.176c-.03-.02.01-.069-.037-.081-.09.025-.068.137-.155.152-.007.012-.03.017-.025.034.107.022-.005.125.047.189-.045-.01,0-.078-.06-.094-.05.007-.04.064-.06.094-.03-.067.008-.165.013-.248.04-.055-.085-.1-.035-.106a.557.557,0,0,1-.217-.282.187.187,0,0,1,.073-.118c.09-.025.072.079.107.118a.068.068,0,0,1,.022-.015.094.094,0,0,1,.076,0l.012,0c.007.015.022.013.034.013.01-.094.113-.068.168-.047a.182.182,0,0,0,.107-.012l.012.012.013-.012c.01.022.032.007.047.012s.017-.015.013-.025a.1.1,0,0,0,.107,0l.013-.012c-.023-.007-.008-.029-.013-.046s-.01-.057,0-.072l-.012-.01c.007-.007.017-.014.012-.025l-.012-.012.012-.013c-.045.005-.005-.049-.047-.058.007-.006.012-.015.025-.01.023.031.04.031.07.01.063-.04-.027-.165.085-.165-.047-.054-.157.078-.179-.034,0,.03-.048.074.012.081-.005.017.01.04-.012.049s-.04.011-.048-.011l.035-.037c-.02-.047-.087-.042-.132-.059.047-.015.113-.081.192-.105v-.014l-.091-.013s-.163.039-.189.051-.144.051-.144.051l-.013.008-.016.01a.792.792,0,0,0-.134.1c-.033.038-.1.122-.124.148a.939.939,0,0,1-.248.071c-.065.013-.15.154-.163.179s-.019.122-.04.189c.01-.025.032.005.047.012.05.01.08-.069.132-.025a.1.1,0,0,0-.013.059l.035.037.013-.012c-.005.037-.035.063-.025.105.028.044.1.007.11.071-.023.02-.008.054-.012.08.02.008.032.035.06.025a.378.378,0,0,1,.072.176h.01c-.077.064.058.125-.023.189-.012.071-.025.154-.037.211l-.01.012c.01.025-.017.081.023.106-.042.017-.015.064-.023.1.1.047-.05.133.035.2a.3.3,0,0,0-.047.213c-.017.012-.017.029-.025.047l.025.022c-.03,0-.067.014-.073.048-.005.018.017.022.025.035s.048-.01.06.013c-.012.034-.14.076-.06.13.023.025.005.064,0,.093,0,.054.033.116.02.167a.078.078,0,0,1-.018.032.089.089,0,0,1-.015.013c.027.089-.063.206.012.285a.172.172,0,0,0-.02.186l.009.027a.655.655,0,0,1,.046.151.213.213,0,0,1,.025.13c.01.024.02.068.06.059.055-.022.04.047.06.071-.017.012-.015.034-.037.047-.015.056.03.088.047.13.082,0,.067.091.12.118-.025,0-.072.053-.023.083s.048-.037.082-.025c.085.069,0,.159.06.235a.3.3,0,0,0,.132.118l.037-.093.309.282-.047.023c.007.019.035.034.025.058-.018,0-.025.017-.037.024.042.013.082.093.12.047V213.1c.03,0,.025.029.037.047-.057.012-.077.051-.085.105.067.026-.038.172.06.1h.012c-.027.045.025.118-.012.151a3.765,3.765,0,0,0,.457,1.262.085.085,0,0,1,.043.005s.008.007.012,0A.12.12,0,0,1,64.845,214.764Zm-1.111-6.41-.012-.013c.061.036.069-.059.123-.036-.033.026-.033.044-.01.074.035.051-.082.123.035.136.005.01,0,.015-.013.023.008.008.018.015.013.026-.069.046-.077-.047-.136-.062-.039-.01-.054-.054-.061-.087A.076.076,0,0,0,63.734,208.355Zm-.16,3.487c-.013.007-.018.029-.035.025a.556.556,0,0,0,.06-.155c-.013-.032-.065-.014-.05-.058.024.026.084.088.12.054C63.671,211.785,63.562,211.759,63.575,211.842Zm1.05,2.722c-.064-.024-.018-.09-.048-.123-.021-.152,0-.293-.113-.383.054-.077.129.025.162.074-.01.029-.023.08.023.085a.058.058,0,0,1,0,.074c-.01,0-.015.005-.023.013.064.034.031.093.036.16-.013.015-.052.017-.036.049l.049.026C64.66,214.551,64.647,214.572,64.624,214.565Z" transform="translate(-62.94 -208.223)" fill="#9e9ea4"/>
      <path id="Trazado_432" data-name="Trazado 432" d="M68.144,209.217c-.04.037.04.082-.012.106-.052-.012,0-.068-.047-.081-.013.019-.035.019-.048.035-.025.071.057.031.083.058s0,.071.025.1l.048-.012c.037.057.055.12.132.13.062,0,.047-.067.085-.1l.035.037c.025.059-.057.044-.06.093,0,.017.027.034,0,.046H68.4c.02.032.077.047.06.1-.04.044-.06-.032-.085-.036l-.012.013c-.007.048.065.051.1.083.023-.027.03-.071.06-.083.025.071.09.063.133.13a.061.061,0,0,1,.06.022c-.008.008-.015.017-.025.012.032.047-.007.1-.013.143.04.071.065-.037.12,0s-.02.078.025.117c-.032.042.007.086.013.13.04-.037.112-.021.142-.059a.093.093,0,0,0,0-.1.208.208,0,0,1,.145,0v.012l.1-.024-.155-.035c0-.042.05-.076.083-.093l-.01-.013c-.036.04-.055-.022-.085-.025,0-.061-.05-.125.012-.176l.06.071c.027.009.067.064.082.012l-.01-.012-.013.012c-.078-.007,0-.068-.025-.1,0-.015-.01-.036.013-.046s.048-.01.06.013l.013-.013c.022-.007.052-.044.072,0-.015.007-.013.022-.013.036,0,.03.037.069.06.069.005-.01-.007-.015-.013-.022l.013-.013c.012-.03-.025-.039-.038-.058a.078.078,0,0,0,.025-.047c-.032-.051-.095,0-.132-.025l.012-.012c.007-.022-.01-.032-.025-.046.01.169-.175.02-.262.084v.047c-.01.022.02,0,.022.024l.025-.024c.01-.005.017,0,.025.012l-.013.012.013.01a.061.061,0,0,1-.025.059c-.055-.052-.115-.025-.168-.081-.042.11-.09-.029-.145.012-.02-.014-.007-.064-.047-.049a.062.062,0,0,1-.06-.081c.172-.015-.05-.152.107-.2a.1.1,0,0,0-.01-.023.14.14,0,0,0-.039-.046.534.534,0,0,1-.084-.071c.05-.088-.083-.066-.07-.154-.058.024-.045.081-.025.13l.012-.013c.035.035-.018.06-.012.1.025.04.065.04.107.047,0,.037.008.079-.022.106l-.013-.012-.037.047-.048-.034c.032-.14-.1-.223-.12-.329.015-.029.045-.022.073-.025a.056.056,0,0,1,.025-.059c-.013-.022-.042-.007-.06-.012a.157.157,0,0,1-.06-.093c-.038-.013-.045.041-.085.022-.032.071-.085.132-.012.2Z" transform="translate(-66.851 -208.778)" fill="#9e9ea4"/>
      <path id="Trazado_433" data-name="Trazado 433" d="M73.274,212.55c.03.064-.078.084-.025.142,0,.008-.015.012-.01.022l.01-.012c.11.056.122-.15.24-.069-.045.1.112.071.132.152-.06.076.085.066.06.142.01.022.035.061.072.046.043.078.138.116.193.165-.018.022-.048.007-.073.012-.02-.066-.117-.029-.132-.105l-.013.01c0,.012.008.017.013.024-.075.042.042.062.025.106s-.048-.027-.073.013c.035.047-.072.061,0,.106.038,0,.023-.054.06-.071s.035.013.048.025c-.008.019-.035.032-.023.059.04,0,.027.049.048.071.05,0,.1.039.142.022l.013.012a.224.224,0,0,0-.073-.2c.023-.032.068.03.085-.024.04.015.02.054.025.083.067.01.07-.066.142-.049a.15.15,0,0,1,.072.167c.007.071.1,0,.12.059.017-.03.072.009.072-.037l-.013-.012.035-.034c.055.019.035.093.085.093.045.035.013.066.035.108.065.024.037-.049.06-.071.077.057.058.169.145.223l-.013.012.025.022c.017.007.045.024.06,0l.013,0a.187.187,0,0,1,.062.011.532.532,0,0,0,.058.015c.01.017.025.047.01.059l.012.012a.087.087,0,0,0-.022.047c.022.05-.012.106,0,.164.013,0,.028,0,.035.013-.013.017-.032.017-.047.024A.324.324,0,0,0,75,214.2l.013-.013.025.025-.038.034c-.082.012-.1.083-.142.142-.1-.01-.075.125-.157.152l-.012-.013c0-.012,0-.027.012-.035l-.012-.012c-.055-.007-.04.054-.06.084,0,.056.045.137,0,.177l.013.058c-.038.012-.058.059-.095.071l-.025-.037c-.023.029-.06.052-.072.083-.06,0-.028.072-.07.094.042.069-.065.125.022.165-.02.044.052.115-.022.117-.06.063-.008.123.01.177.05-.015.055.022.085.049l-.012.01.012.012c.013.032-.017.051-.035.071l-.013-.013c-.06.081-.045.191-.132.26-.072-.015-.1.071-.18.046-.035.079-.112,0-.18.025a1.025,1.025,0,0,1-.18.058c-.037.008-.055.061-.095.059-.057-.039.02-.081.01-.13h-.022c-.033.01-.04.022-.037.059s-.055.029-.083.046c0,.039-.06.079-.013.106.005.017-.017.024-.025.037-.015-.022-.047-.008-.07-.013-.067-.083-.115.057-.18.013-.025.046,0,.1.01.152.042,0,.087-.01.12.012.018-.03.015-.061.05-.083l.01.012c.017,0,.039.01.05-.012l.01.012c.017,0,.04.01.05-.012s.01-.037-.012-.047l.022-.024a.077.077,0,0,1,.085.036c.005.01,0,.015-.013.022.043.035.093-.052.132.013l.048-.059c.039-.035.087.012.107.037,0-.042.065-.066.026-.108l-.013.013-.013-.013-.01.013-.012-.013c-.005-.017.015-.022.022-.035l.013.012c.01,0,.017-.007.025-.012l.013.012a.7.7,0,0,1,.19-.012c.074.012.144-.024.2-.012.112.024.147-.1.2-.165.007.015.022.013.035.013.035-.047-.045-.037-.06-.071l.013-.013c.042-.029.073,0,.095.025.04-.032-.025-.049-.013-.084.017-.012.048-.026.06-.012l.012-.01c.05-.01.007-.074.025-.1.012-.061.028-.11-.013-.164l-.013.013c-.035-.022.018-.037.013-.059-.043-.066-.022-.17-.095-.213.027-.042.037-.1.082-.128-.023-.022-.008-.056-.012-.083.142-.044.13-.2.239-.27a.077.077,0,0,0,.072-.071c-.03,0-.074.044-.094,0l.119-.1c0-.013,0-.027-.012-.035.107-.049,0-.142.085-.2.092.059.04-.076.12-.094.007-.041.032-.093.022-.13.008.015.023.012.038.012s.028-.017.022-.034c-.01,0-.015-.007-.022-.012.03-.067-.105-.142.01-.165-.035-.027-.03-.1-.095-.108a.06.06,0,0,0,.025-.059c-.032-.01-.049.017-.072.024-.04-.027.027-.054-.013-.084-.013,0-.027,0-.035.012-.142-.081-.2-.251-.35-.341-.022-.022-.037-.079.013-.084l-.023-.022c-.032-.016-.035.022-.049.034-.032.012-.05-.015-.07-.034,0-.025.03-.037.048-.047-.018-.024-.061,0-.073-.037l-.013.013c-.027-.017-.072-.013-.082-.047-.057.03-.035-.053-.085-.036-.019-.03-.077-.047-.059-.093-.041,0-.088-.047-.108-.035l-.012-.013c-.095.067-.025-.083-.095-.071a.125.125,0,0,0-.046.056c0,.009-.008.017-.013.026h0a.079.079,0,0,1-.11-.025l.013-.012c-.013-.029-.057-.037-.083-.059-.05-.049.04-.071.01-.13-.025-.014-.06-.014-.082-.034,0-.078-.073,0-.1-.024a.062.062,0,0,1,.025-.059c-.008-.034.02-.084-.025-.106l-.01.013c-.065-.04-.02-.14-.085-.189-.013.025-.035-.005-.048-.013,0,.045-.045.089-.013.13.01.005.018,0,.025-.012.019.008.055.03.047.058s-.045.023-.073.025c-.055,0-.08,0-.12,0-.023-.007-.035.009-.048.025A.144.144,0,0,0,73.274,212.55Z" transform="translate(-70.842 -211.391)" fill="#9e9ea4"/>
      <path id="Trazado_434" data-name="Trazado 434" d="M78.246,233.3c0,.022-.025.032-.037.049-.033-.022-.03-.056-.048-.083a.082.082,0,0,1,.085-.035c0-.017.01-.039-.013-.049l.007-.021a1.367,1.367,0,0,1,.059-.411c.046-.135.1-.167.085-.282s.013-.154-.019-.167a.859.859,0,0,0-.126-.025.554.554,0,0,1-.107.211l-.013-.012-.01.012-.012-.012-.025.024.037.047c-.015.015-.032.024-.025.046l.013.013c.012-.007.017-.027.035-.022-.09.052-.145.16-.215.211a.211.211,0,0,1-.037-.151l.008,0-.018-.063.056.067c.021,0,.042-.019.064-.021a.077.077,0,0,0,.01-.083c-.017-.047-.06-.013-.083,0s-.017.051-.047.036c.02,0,.03-.024.047-.036-.012-.064-.025-.158-.037-.236.018-.027-.01-.066.025-.093.01-.035-.032-.047-.047-.072-.045.039-.018.11-.025.164-.038.017-.065-.035-.095,0,0,.017.02.027.013.046l-.013.012c-.025-.014-.008-.042,0-.059-.01-.044-.117.01-.06-.059a.236.236,0,0,0-.085-.14c.017-.054-.028-.125-.013-.176.048-.005.1.054.132,0,.013-.057-.067-.081-.048-.118-.025-.029-.027-.069-.06-.1a.289.289,0,0,0-.085.118c-.015,0-.037.009-.048-.01l-.013.01c-.007,0-.012-.015-.022-.01-.008-.045.06-.057.035-.108-.04-.081-.135.019-.132-.094-.037-.044-.06.032-.082.035a.264.264,0,0,0-.158-.118c-.032-.032-.077-.029-.12-.046.018-.012.015-.034.038-.046l-.025-.025c-.038.025-.05.078-.095.108-.036-.042-.1-.036-.12-.082.022-.032.047.007.072.012.008-.012.028-.018.023-.037-.02-.042-.093-.007-.083-.068.018,0,.048.01.06-.013-.017-.037-.1-.017-.1-.083l-.012.012c0-.009-.005-.017-.01-.024-.02.027-.057.052-.085.024s-.007-.046-.035-.059c-.05.045-.1.116-.17.072l-.01-.013c-.05.084-.095.01-.157,0l-.048-.034c.022-.01.007-.032.013-.049-.028-.054-.065-.017-.1,0s-.008.13-.083.071c-.025-.042.065-.074,0-.094v-.012c.012.025.035,0,.047-.012s.018-.012.013-.021-.025-.032-.048-.025a.11.11,0,0,1-.12.046c-.02-.014-.007-.061-.05-.046l-.035.034a.644.644,0,0,0-.132-.08c-.023-.018,0-.059-.035-.071-.068,0,0,.083-.073.083-.072-.073-.2.008-.275-.037-.025.006-.05.045-.072.013-.015-.059.112-.025.06-.093a.6.6,0,0,1-.24.117c-.03.084-.132.067-.157.165a.108.108,0,0,0-.142.046c0,.013,0,.027-.012.035-.025-.01-.048-.022-.073-.035-.055.02.01.047-.013.084.013.015.037.024.037.046-.03-.01-.08-.023-.085.022.03.086-.082.061-.095.118-.073-.019-.1-.113-.18-.14,0-.044,0-.1-.048-.106l-.013.01c-.02-.029-.065-.1-.12-.094l-.025.035c-.017-.054-.147.017-.095-.069l.012.01a.041.041,0,0,0,.011-.068c-.043-.057-.093.015-.143-.025-.025.032-.047-.007-.072-.013v-.022c.028,0,.058.005.072-.024a.224.224,0,0,0-.157-.13l-.01.012c-.032-.093-.182,0-.158-.13.06-.024.055.1.107.025-.065-.046-.062-.149-.12-.2-.022.032-.04.034-.07.012-.005-.019.01-.046-.012-.058.007-.022.03-.007.047-.012l.013.012c.015-.007.012-.022.012-.035l-.012-.012c.055-.027,0-.067-.013-.1.017-.047.075-.1.035-.152-.052-.032,0-.078,0-.118,0,.01.008.017.013.025.045-.015.017-.078.025-.118-.015-.03-.045-.022-.073-.025-.025.025-.055.049-.06.083-.1.01-.14-.164-.24-.118,0,.045.05.086.025.128.011.018,0,.039.018.054l.005,0-.013.012,0,0c-.024-.024.013-.077-.033-.091a.059.059,0,0,0-.059.022c0,.007.017.015.012.025-.02.012-.03.048-.061.035.013-.032-.017-.049-.037-.069a.169.169,0,0,1-.142.081c-.055,0-.08.076-.133.083l-.012-.012c-.013.025-.035,0-.047-.012s.01-.037-.013-.047a.078.078,0,0,0-.082.034c-.005.017.01.039-.013.049-.045-.039.042-.108-.048-.108l-.013.012-.013-.012-.035.071c0-.03,0-.067-.037-.071-.016.007-.035.007-.048.025.007.012.027.017.025.034l-.038-.046c-.022.013-.007.039-.012.059-.033,0-.03-.039-.048-.059.018-.035-.027-.059-.047-.081-.048-.022,0-.083-.048-.108.023-.01.008-.039.013-.058-.015-.037-.057-.018-.085-.023l-.025.023c-.012-.045-.142-.062-.06-.128-.005-.007-.015-.014-.01-.025.05-.054.08.054.13,0-.007-.047-.028-.107-.07-.118s-.035-.063-.072-.071c-.02.005-.047-.009-.06.013.025.01.052.055.022.083-.013-.036-.053-.012-.07-.036-.038.02-.033.057-.05.083-.052-.048-.085-.1-.142-.154-.03.027-.07.029-.1.059.052.074.123-.022.145.084-.028.061-.17.017-.132.13.015.007.037.034.047.012a.292.292,0,0,1,.027.027l.018-.055a.181.181,0,0,1,.011.1.128.128,0,0,1,.009.047.094.094,0,0,0,.029.035v.023c-.026,0-.039,0-.047-.013-.01.011-.017.024,0,.032a.149.149,0,0,1,.082.13l.167.083c0,.012,0,.026.012.034-.011,0-.037.013-.022.035-.013,0-.018.007-.025.013.027.024-.012.108.06.083a.122.122,0,0,0,.025.093c.015,0,.037.01.047-.012-.045-.056-.015-.125-.013-.187-.007-.007-.012-.017-.025-.012.043-.051-.052-.074-.06-.118H72.1c.042,0,.1-.068.06-.118-.075-.039-.015-.11-.085-.154.03-.025,0-.055,0-.081.015.044.065.054.1.081a.122.122,0,0,0-.038.108c.115.068.03.25.158.282l.023.035a.054.054,0,0,0-.048.071c.037.039.085.064.048.118-.005.01.007.017.012.025s.025-.017.035-.025c-.032-.093.14-.049.06-.152.05,0,.057.108.1.035v-.035c.052.022-.007.084.012.118,0,.037-.052.061-.025.093.07-.012.152-.017.192-.071a.07.07,0,0,0,.108.024l0-.009a.06.06,0,0,1,.006-.014c.022-.029.082-.007.087-.061.04-.074.2.009.192-.118.007.015.023.012.037.012l.035-.047c.02.029.04-.007.061-.012v-.013c.007.015.022.013.034.013.022-.025.008-.064.013-.094.12.049-.038.126.048.187,0,.049-.112.1-.035.154l.025.022.01-.01c0,.012,0,.027.013.034-.01,0-.016.005-.023.013-.02-.015-.008-.061-.05-.046-.022.015-.007.046-.01.068-.012,0-.018.007-.025.013.084.039.042.178.167.176.008-.015.022-.013.038-.013.062.037,0,.185.119.1.013,0,.027,0,.035.013s-.005.015-.013.022c-.065-.051-.08.039-.12.058.008.008.015.018.025.013l.013-.013c.007.008.012.018.022.013-.052.032.01.12-.073.13.007.045.037.059.073.081l.037-.022c0-.015-.01-.061.01-.084.03.03.035.086.085.084a.045.045,0,0,0,.06-.059v-.046a.357.357,0,0,1,.107.117c-.027.039-.1.01-.107.069l.012.012-.012.013c-.038,0-.017-.054-.06-.035-.013.013-.033.025-.026.047.016.055.1-.015.085.059-.035.036.01.066.035.093a.133.133,0,0,0,.06-.14c.042.029.113.068.132.118-.007.039-.062,0-.06.047.055.036.118.052.168.093.014-.007.012-.022.012-.034l-.012-.013a.082.082,0,0,1,.084-.035l.013.01c.007-.01.027-.017.022-.035l.1.059c-.025.022-.068-.02-.1.013a.074.074,0,0,1,.025.118c.052.041.062.132.155.13l.037-.037-.009,0-.007.019a.088.088,0,0,1-.039-.074l.013-.01-.013-.012a.048.048,0,0,1,.062.036l-.006.016c.008.028.051.048.081.057.015-.011.026-.03.041-.041a.035.035,0,0,1,.032-.006.03.03,0,0,1,.008.011c.009.02,0,.048.029.058.052.019.08-.03.12-.047.062.025.062-.071.1-.1.017-.025.055,0,.072-.025.019-.074.1-.167.022-.236.015,0,.03,0,.037.012.038-.022-.03-.051.023-.071.065.052.113-.064.192-.059a.063.063,0,0,1,.06-.022l.012.012.035-.036c-.007-.022-.029-.007-.047-.013a.054.054,0,0,1,.072,0c.038.049.11.007.155.037.033-.076.11-.042.158-.024.085.113.283.015.372.142.082.041.2-.042.227.071.02.041.067.015.1.034l.012-.012c.005.066.08.015.107.046.04-.015.045-.046.1-.035-.045.037-.025.072-.013.118.06-.01.112.02.18-.012l.013.012.009-.012.026.024c-.015.008-.013.022-.013.035.055,0,.082.2.132.071a.23.23,0,0,1-.06-.047c.032-.013.061.007.089.03l.005,0a.35.35,0,0,0,.06.046c.03.052.1.056.11.118l.035.025a.033.033,0,0,0,.011-.016c.016.035.086.049.1.087.033-.02.105-.071.12,0-.02.054,0,.125-.06.164.017.045.055.01.085.013-.03.039-.012.073,0,.117a.107.107,0,0,1,.06-.012c-.058.086.105.1.035.177.03,0,.052.064.085.022v-.01c.03-.012.035.03.048.047-.005.1-.14.051-.107.164a.138.138,0,0,0,.095.072l-.013.118c-.042,0-.015-.068-.022-.084s0-.027-.012-.034l-.013.012c-.014-.014-.014-.036-.035-.049-.065.035-.048.1-.085.143.06.036.03.108.073.152-.048,0-.035.056-.025.083.013.008.02.027.038.025l-.06.047a.053.053,0,0,1,.048.071c-.018.02-.048.008-.06.035.01.059.037.119-.025.152.017.071-.092.106-.035.177-.008-.015-.023-.01-.035-.01s-.017.012-.012.022l.012.012c-.025.064-.072-.029-.1.035.025.063-.042.088-.035.142l-.012-.012c-.055.042-.042.108-.085.155-.012,0-.027,0-.035-.012-.01.022-.032.007-.047.012-.045-.067-.052.017-.1.022.013.069-.09.074-.035.142a.4.4,0,0,0-.107.081c0,.02.02.027.013.049-.037.046-.08-.005-.11.059-.053-.02-.06.039-.07.069,0-.015-.074-.018-.11-.023a.134.134,0,0,0-.13.06c.035.036-.02.081.01.117a.388.388,0,0,1-.082.093c-.07-.042-.122.063-.193,0l.025-.035.01.012c.04-.024.117.055.132-.037a.08.08,0,0,1-.023-.046.19.19,0,0,1,.083.024c.012-.024.04-.059.012-.084s-.06.02-.095-.012c0-.013-.005-.027.01-.034-.015-.025-.04-.008-.06,0-.093.027-.152.2-.262.117-.08-.01-.038.118-.132.071-.033.017-.08.051-.085.093-.04,0-.038-.037-.07-.058l-.025.024c.027.013,0,.03,0,.047-.01,0-.018,0-.025.012,0-.012-.005-.017-.01-.025-.035-.009-.05.033-.073.047l-.012-.012c-.035.081-.115.032-.167.1,0,.015.027.035,0,.047l-.025-.034c-.01.09-.093-.015-.108.069a.056.056,0,0,1-.06-.022c-.005-.018.01-.039-.013-.047.023-.01.007-.032.013-.049l-.035-.023c.085-.061.01-.142.07-.213.035-.051.172-.073.119-.152l-.01.013-.012-.013c.037-.015.015-.052,0-.059.1-.031.035-.184.167-.177l-.025-.024-.01.012c-.013-.005-.03-.049-.06-.035-.012-.074.05-.042.083-.083,0-.1-.12-.16-.108-.248-.02-.01-.03-.047-.06-.034l-.035.034-.012-.01c-.008.015-.023.01-.038.01,0-.017-.015-.022-.023-.034-.062.039-.112-.032-.167,0-.012-.024-.035,0-.05.012s-.028.017-.022.035l.022.024.012-.012.013.012c-.042.052-.107-.012-.119.059l-.013-.012-.012.012v-.025c.039.01.049-.034.06-.058-.025-.027-.062-.069-.095-.022.01.037-.058.022-.06.059-.013,0-.028,0-.035-.012l.022-.047a.053.053,0,0,0-.073,0c0-.008-.007-.016-.022-.025a.159.159,0,0,1-.108-.105c0-.017-.012-.039.01-.047-.028-.03-.045-.037-.06-.071a.146.146,0,0,0-.011.13l.035.047c-.047,0-.052.071-.047.117.02.02.037.047.072.034-.035.029-.087.089-.049.142l-.023.035a.485.485,0,0,1,.072.071c.083,0,.182.012.227-.059.035.019.043-.057.073-.012a.06.06,0,0,0,.023-.059c-.012-.007-.018-.027-.035-.022v-.012a.154.154,0,0,1,.072.059l.023-.037c.058.039.087.066.145.108-.025.052.005.069.048.093l.012.013a.178.178,0,0,0-.012-.106.052.052,0,0,1,.072,0,.422.422,0,0,1-.06.118c.013.013.025.029.048.022l.012-.013c-.007.069-.142.1-.06.189l-.025.037c.005-.044-.05-.081-.083-.118a.036.036,0,0,0-.012.059c.018.066-.037.148,0,.224l-.06.022.047.059c-.025.027-.055.049-.06.083-.028-.02-.038-.057-.085-.059-.038.042.017.1.025.152-.01.03-.023.079.024.084-.029.088-.155-.035-.145.093a.118.118,0,0,0-.047.083.437.437,0,0,0,.022.155c.026.064.1.083.1.105.083.024.132-.045.18-.072a1,1,0,0,0,.072-.105c.012.012.025.03.047.022.038.108.15-.01.2.047.02-.032.052-.078.095-.081.015.007.012.023.012.035.04.029.053-.052.085-.012l.082-.068c.008.031.085.024.06.08.025-.005.055.01.073-.012,0-.03-.065-.035-.025-.068l.013.009c.03-.024-.013-.091.047-.093.032.061.09-.025.12.034l-.01.013a.6.6,0,0,0,.13-.081l.013.01c.018,0,.04.012.047-.01a.013.013,0,0,1-.008-.015c0-.011.016-.025.021-.035l.011.011,0,0a.036.036,0,0,0,.023-.02c.007-.022-.023-.051-.023-.073l-.013.012c0,.012,0,.027.013.035l-.035.034-.013-.01a.065.065,0,0,1-.009-.064c0-.011.006-.022.009-.031a.161.161,0,0,0-.085,0c-.015-.008-.012-.022-.012-.035,0-.052.062-.032.1-.036.007-.037.1-.04.06-.094.012-.007.017-.026.035-.024s.03.019.025.037c.022-.008.04-.039.06,0s-.048.037-.048.071l-.012-.012-.013.046c.01,0,.018.006.025.013l-.012.012c.022.015.007.047.012.069-.012-.061.1-.017.07-.094.008-.019.03-.056.06-.046.008.035.045.077,0,.106a.017.017,0,0,1,.014,0h0l.025-.025c-.03-.1.1-.058.107-.117.012-.007.035-.035.047-.01l.013-.012a.1.1,0,0,1,.06.012c.013-.056.065-.071.108-.095.007-.023-.01-.035-.022-.047.005-.007.015-.013.01-.025.065-.081.075.052.12.059l.1-.047c.012.007.035.037.047.013a.476.476,0,0,0,.155-.177L77,234.382a.022.022,0,0,0-.022,0c-.017.007-.032.034-.052.036.018.127-.1.022-.145.106-.032.012-.05-.017-.073-.037l.037-.035-.037-.034.06-.059c.075.007.063-.056.1-.1.065-.027.065.047.095.071.1-.027.093-.115.158-.164.058,0,.107-.088.142,0,.037-.076.115-.1.157-.177.107.044.15-.046.227-.1h.007l.01,0c.056.007.054-.057.079-.09a.049.049,0,0,1,.024-.019h-.012l0,0c-.019-.02-.052-.035-.043-.067a1.332,1.332,0,0,1,.262-.164c0-.044.067-.042.085-.047.04.039.1.01.132.013.013-.017.03-.017.047-.025s-.01-.034-.025-.046c.015-.051.073.005.085-.047-.016-.015,0-.044.012-.059C78.286,233.329,78.276,233.293,78.246,233.3ZM76.7,231.566l.013.013c-.008.008-.018.013-.013.026h-.026c.008-.039-.018-.134.026-.161C76.7,231.483,76.754,231.532,76.7,231.566Zm.38.313a.084.084,0,0,1,0-.022h.013A.089.089,0,0,0,77.077,231.879Zm-2.517,1.968h-.012c0-.028.03-.051.035-.072C74.583,233.8,74.595,233.834,74.56,233.847Zm3.049-1.466c-.033,0-.051-.075-.084-.038-.008,0,.066-.046.061-.085l-.013-.049C77.586,232.265,77.654,232.316,77.609,232.381Zm.039.53c.023-.029.007-.075.01-.111-.038-.008-.026-.03-.023-.062.01-.005.015.005.023.013l-.01.013c.033.018.056.062.1.062.026.039-.057.1.026.1l.01-.013c.062.026-.01.059.013.1-.031,0-.039.049-.075.036-.026-.061.059-.12-.023-.159Zm.172.347c-.03.041-.056-.031-.087.01.067-.08-.1-.065-.023-.134.041,0,.023.064.072.048l.038-.048A.144.144,0,0,1,77.82,233.258Z" transform="translate(-69.718 -224.646)" fill="#9e9ea4"/>
    </g>
    <path id="Trazado_435" data-name="Trazado 435" d="M173.8,224.142l-1.752,5.293H166.49l9.282-27.956h7.9l9.468,27.956H187.7l-1.826-5.293Zm6.076-18.563H179.8l-4.771,14.5h9.654Z" transform="translate(-115.326 -17.824)" fill="#004382"/>
    <path id="Trazado_436" data-name="Trazado 436" d="M313.567,201.079h5.4v28.142H310l-11.97-23.526h-.187l.45,23.526h-5.4V201.079h8.93l12.045,23.526h.15Z" transform="translate(-212.403 -17.516)" fill="#004382"/>
    <path id="Trazado_437" data-name="Trazado 437" d="M426.615,219.507v1.321a4.906,4.906,0,0,0,.3,1.907,1.99,1.99,0,0,0,1.038,1.038,5.817,5.817,0,0,0,1.963.434q1.226.094,3.115.094a18.434,18.434,0,0,0,2.964-.189,3.533,3.533,0,0,0,1.7-.679,2.333,2.333,0,0,0,.774-1.284,9.07,9.07,0,0,0,.189-2.039,4.91,4.91,0,0,0-.4-2.247,2.191,2.191,0,0,0-1.208-1.038,6.365,6.365,0,0,0-2-.34q-1.189-.037-2.775-.113-2.3-.15-4.3-.321a9.276,9.276,0,0,1-3.474-.925,5.359,5.359,0,0,1-2.322-2.4,10.559,10.559,0,0,1-.849-4.739,9.725,9.725,0,0,1,.868-4.531,5.468,5.468,0,0,1,2.436-2.4,9.874,9.874,0,0,1,3.7-.925q2.133-.15,4.7-.151,2.152,0,4.078.151a8.656,8.656,0,0,1,3.342.887,5.347,5.347,0,0,1,2.246,2.266,9.193,9.193,0,0,1,.831,4.323v.906h-5.437v-.906a5.137,5.137,0,0,0-.245-1.775,1.779,1.779,0,0,0-.85-.963,3.832,3.832,0,0,0-1.567-.377q-.963-.056-2.4-.057a32.042,32.042,0,0,0-3.266.132,4.962,4.962,0,0,0-1.888.51,1.871,1.871,0,0,0-.887,1.076,6.084,6.084,0,0,0-.226,1.831,8.421,8.421,0,0,0,.189,2.039,1.72,1.72,0,0,0,.849,1.1,5.133,5.133,0,0,0,1.888.529q1.227.151,3.3.264,3.285.19,5.418.491a8.516,8.516,0,0,1,3.4,1.114,4.3,4.3,0,0,1,1.774,2.341,13.969,13.969,0,0,1,.51,4.248,12.8,12.8,0,0,1-.7,4.7,5.375,5.375,0,0,1-2.1,2.605,8.026,8.026,0,0,1-3.474,1.114,44.744,44.744,0,0,1-4.8.226q-2.341,0-4.493-.094a10.319,10.319,0,0,1-3.795-.831,5.711,5.711,0,0,1-2.605-2.341,9.17,9.17,0,0,1-.963-4.663v-1.321Z" transform="translate(-310.926 -16.678)" fill="#004382"/>
    <path id="Trazado_438" data-name="Trazado 438" d="M531.916,223.893l-1.763,5.328h-5.591l9.343-28.142h7.955l9.531,28.142h-5.478l-1.839-5.328Zm6.116-18.686h-.075l-4.8,14.6h9.719Z" transform="translate(-390.325 -17.516)" fill="#004382"/>
  </g>
</svg>
