<?xml version="1.0" encoding="utf-8"?>
<!-- Generator: Adobe Illustrator 21.0.2, SVG Export Plug-In . SVG Version: 6.00 Build 0)  -->
<svg version="1.1" id="Capa_1" xmlns="http://www.w3.org/2000/svg" xmlns:xlink="http://www.w3.org/1999/xlink" x="0px" y="0px"
	 viewBox="0 0 165 72" style="enable-background:new 0 0 165 72;" xml:space="preserve">
<style type="text/css">
	.st0{fill:#2F77B9;}
	.st1{fill:#15BE5C;}
	.st2{fill:#030005;}
</style>
<g>
	<g>
		<g>
			<g>
				<polygon class="st0" points="67.2,49.2 67.5,6 74,6 87.3,44.4 101.8,5.7 107.9,5.7 107.9,48.4 104.6,48.4 104.6,11 88.5,48.9 
					86,48.9 71.7,10.5 71.7,49.2 				"/>
			</g>
			<polygon class="st1" points="117.4,48.7 120.9,48.7 120.9,27.8 142.5,27.8 142.5,25.3 120.4,25.3 120.4,8.7 145.3,8.7 145.3,5.7 
				117.4,5.7 			"/>
			<rect x="67.3" y="41.8" class="st1" width="4.5" height="7.4"/>
			<g>
				<path class="st0" d="M11.9,65.4V54.1h2.3l2.7,8c0.2,0.8,0.4,1.3,0.5,1.7c0.1-0.4,0.3-1,0.6-1.8l2.7-7.9h2v11.3h-1.5v-9.5
					L18,65.4h-1.4l-3.3-9.7v9.7H11.9z"/>
				<path class="st0" d="M26.4,65.4V54.1h8.2v1.3h-6.7v3.5h6.3v1.3h-6.3v3.8h7v1.3L26.4,65.4L26.4,65.4z"/>
				<path class="st0" d="M43.4,61v-1.3h4.8v4.2c-0.7,0.6-1.5,1-2.3,1.3c-0.8,0.3-1.6,0.4-2.4,0.4c-1.1,0-2.1-0.2-3.1-0.7
					c-0.9-0.5-1.6-1.2-2.1-2.1c-0.5-0.9-0.7-1.9-0.7-3c0-1.1,0.2-2.1,0.7-3.1c0.5-1,1.1-1.7,2-2.1c0.9-0.5,1.9-0.7,3-0.7
					c0.8,0,1.6,0.1,2.2,0.4s1.2,0.6,1.6,1.1c0.4,0.5,0.7,1.1,0.9,1.9l-1.4,0.4c-0.2-0.6-0.4-1-0.6-1.4c-0.3-0.3-0.6-0.6-1.1-0.8
					c-0.5-0.2-1-0.3-1.6-0.3c-0.7,0-1.3,0.1-1.8,0.3c-0.5,0.2-0.9,0.5-1.2,0.8c-0.3,0.3-0.5,0.7-0.7,1.1c-0.3,0.7-0.4,1.5-0.4,2.3
					c0,1,0.2,1.9,0.5,2.6c0.3,0.7,0.9,1.2,1.5,1.5c0.7,0.3,1.4,0.5,2.1,0.5c0.7,0,1.3-0.1,1.9-0.4c0.6-0.3,1.1-0.5,1.4-0.8V61H43.4z
					"/>
				<path class="st0" d="M50.4,65.4l4.3-11.3h1.6L61,65.4h-1.7L57.9,62h-4.7l-1.3,3.4H50.4z M53.7,60.7h3.8l-1.2-3.2
					c-0.4-1-0.6-1.7-0.8-2.4c-0.1,0.7-0.3,1.5-0.6,2.2L53.7,60.7z"/>
				<path class="st0" d="M63.5,65.4V54.1h7.7v1.3H65v3.5h5.3v1.3H65v5.1L63.5,65.4L63.5,65.4z"/>
				<path class="st0" d="M74.3,65.4V54.1h5c1,0,1.8,0.1,2.3,0.3c0.5,0.2,0.9,0.6,1.3,1.1c0.3,0.5,0.5,1.1,0.5,1.7
					c0,0.8-0.3,1.5-0.8,2c-0.5,0.6-1.3,0.9-2.4,1.1c0.4,0.2,0.7,0.4,0.9,0.6c0.4,0.4,0.9,0.9,1.3,1.5l2,3.1h-1.9l-1.5-2.4
					c-0.4-0.7-0.8-1.2-1.1-1.6c-0.3-0.4-0.5-0.6-0.8-0.8c-0.2-0.1-0.5-0.2-0.7-0.3c-0.2,0-0.5-0.1-0.8-0.1h-1.8v5H74.3z M75.8,59.1
					H79c0.7,0,1.2-0.1,1.6-0.2c0.4-0.1,0.7-0.4,0.9-0.7c0.2-0.3,0.3-0.7,0.3-1c0-0.5-0.2-1-0.6-1.3c-0.4-0.3-1-0.5-1.9-0.5h-3.6
					L75.8,59.1L75.8,59.1z"/>
				<path class="st0" d="M86.9,65.4V54.1h8.2v1.3h-6.7v3.5h6.3v1.3h-6.3v3.8h7v1.3L86.9,65.4L86.9,65.4z"/>
				<path class="st0" d="M98.1,61.8l1.4-0.1c0.1,0.6,0.2,1,0.5,1.4c0.2,0.4,0.6,0.7,1.1,0.9c0.5,0.2,1.1,0.3,1.8,0.3
					c0.6,0,1.1-0.1,1.5-0.3c0.4-0.2,0.8-0.4,1-0.7c0.2-0.3,0.3-0.6,0.3-1c0-0.4-0.1-0.7-0.3-0.9s-0.5-0.5-1-0.7
					c-0.3-0.1-1-0.3-2-0.6c-1-0.3-1.8-0.5-2.2-0.7c-0.5-0.3-1-0.6-1.2-1.1c-0.3-0.4-0.4-0.9-0.4-1.4c0-0.6,0.2-1.1,0.5-1.6
					s0.8-0.9,1.4-1.1c0.6-0.3,1.3-0.4,2.1-0.4c0.8,0,1.6,0.1,2.2,0.4s1.1,0.7,1.5,1.2c0.3,0.5,0.5,1.1,0.6,1.8l-1.4,0.1
					c-0.1-0.7-0.3-1.3-0.8-1.6c-0.4-0.4-1.1-0.6-2-0.6s-1.6,0.2-2,0.5c-0.4,0.3-0.6,0.7-0.6,1.2c0,0.4,0.1,0.7,0.4,1
					c0.3,0.3,1,0.5,2.3,0.8c1.2,0.3,2.1,0.5,2.5,0.7c0.7,0.3,1.2,0.7,1.5,1.2c0.3,0.5,0.5,1,0.5,1.6c0,0.6-0.2,1.2-0.5,1.7
					c-0.3,0.5-0.8,1-1.5,1.3c-0.6,0.3-1.4,0.4-2.2,0.4c-1,0-1.9-0.1-2.6-0.4c-0.7-0.3-1.2-0.8-1.6-1.4
					C98.4,63.2,98.2,62.5,98.1,61.8z"/>
				<path class="st0" d="M118.5,61.4l1.5,0.4c-0.3,1.2-0.9,2.2-1.7,2.8c-0.8,0.7-1.8,1-3,1c-1.2,0-2.2-0.3-3-0.7
					c-0.8-0.5-1.4-1.2-1.8-2.2c-0.4-0.9-0.6-2-0.6-3.1c0-1.2,0.2-2.2,0.7-3.1c0.5-0.9,1.1-1.6,1.9-2c0.8-0.5,1.8-0.7,2.8-0.7
					c1.1,0,2.1,0.3,2.9,0.9c0.8,0.6,1.3,1.4,1.6,2.4l-1.5,0.4c-0.3-0.8-0.6-1.4-1.2-1.8c-0.5-0.4-1.1-0.6-1.9-0.6
					c-0.9,0-1.6,0.2-2.2,0.6c-0.6,0.4-1,1-1.2,1.7c-0.2,0.7-0.4,1.4-0.4,2.2c0,1,0.1,1.8,0.4,2.5c0.3,0.7,0.7,1.3,1.3,1.6
					c0.6,0.4,1.2,0.5,1.9,0.5c0.8,0,1.6-0.2,2.1-0.7C117.9,63.1,118.3,62.4,118.5,61.4z"/>
				<path class="st0" d="M122.6,59.9c0-1.9,0.5-3.3,1.5-4.4c1-1.1,2.3-1.6,3.9-1.6c1.1,0,2,0.3,2.8,0.8c0.8,0.5,1.5,1.2,1.9,2.1
					c0.4,0.9,0.7,1.9,0.7,3.1c0,1.2-0.2,2.2-0.7,3.1c-0.5,0.9-1.1,1.6-2,2.1c-0.9,0.5-1.8,0.7-2.8,0.7c-1.1,0-2-0.3-2.9-0.8
					c-0.8-0.5-1.5-1.2-1.9-2.1C122.8,61.8,122.6,60.9,122.6,59.9z M124.1,59.9c0,1.4,0.4,2.5,1.1,3.2c0.7,0.8,1.7,1.2,2.8,1.2
					c1.1,0,2.1-0.4,2.8-1.2c0.7-0.8,1.1-1.9,1.1-3.4c0-0.9-0.2-1.7-0.5-2.4c-0.3-0.7-0.8-1.2-1.4-1.6s-1.3-0.6-2-0.6
					c-1.1,0-2,0.4-2.8,1.1C124.5,57,124.1,58.2,124.1,59.9z"/>
				<path class="st0" d="M136,61.8l1.4-0.1c0.1,0.6,0.2,1,0.5,1.4c0.2,0.4,0.6,0.7,1.1,0.9c0.5,0.2,1.1,0.3,1.7,0.3
					c0.6,0,1.1-0.1,1.5-0.3c0.4-0.2,0.8-0.4,1-0.7c0.2-0.3,0.3-0.6,0.3-1c0-0.4-0.1-0.7-0.3-0.9s-0.5-0.5-1-0.7
					c-0.3-0.1-1-0.3-2-0.6s-1.8-0.5-2.2-0.7c-0.5-0.3-1-0.6-1.2-1.1c-0.3-0.4-0.4-0.9-0.4-1.4c0-0.6,0.2-1.1,0.5-1.6
					c0.3-0.5,0.8-0.9,1.4-1.1c0.6-0.3,1.3-0.4,2.1-0.4c0.8,0,1.6,0.1,2.2,0.4c0.6,0.3,1.1,0.7,1.5,1.2c0.3,0.5,0.5,1.1,0.6,1.8
					l-1.4,0.1c-0.1-0.7-0.3-1.3-0.8-1.6c-0.4-0.4-1.1-0.6-2-0.6c-0.9,0-1.6,0.2-2,0.5c-0.4,0.3-0.6,0.7-0.6,1.2c0,0.4,0.1,0.7,0.4,1
					c0.3,0.3,1,0.5,2.3,0.8c1.2,0.3,2.1,0.5,2.5,0.7c0.7,0.3,1.2,0.7,1.5,1.2c0.3,0.5,0.5,1,0.5,1.6c0,0.6-0.2,1.2-0.5,1.7
					c-0.3,0.5-0.8,1-1.5,1.3c-0.7,0.3-1.4,0.4-2.2,0.4c-1,0-1.9-0.1-2.6-0.4s-1.2-0.8-1.6-1.4C136.3,63.2,136.1,62.5,136,61.8z"/>
			</g>
			<g>
				<path class="st1" d="M12.1,15V5.8h43v43.1h-9c0,0,6.8-14.9,6.6-40.1C52.8,8.8,29.5,7,12.1,15z"/>
				<path class="st1" d="M12.1,27.4v-8.1c0,0,13.9-6.3,38-8.2c0,0-1.4,18-11.1,37.7h-5.9c0,0,11.3-16.9,16.3-37.2
					C49.4,11.8,23.3,20.2,12.1,27.4z"/>
				<path class="st1" d="M17.7,48.7H29c0,0,11.9-21.9,19-35.4c0,0-15.2,8.8-36.2,20.9V45l35-30.4L17.7,48.7z"/>
			</g>
		</g>
		<g>
			<path class="st2" d="M152.9,52.8c0.5,0,1,0.1,1.6,0.4c0.5,0.3,0.9,0.7,1.2,1.2c0.3,0.5,0.4,1,0.4,1.6c0,0.5-0.1,1.1-0.4,1.6
				s-0.7,0.9-1.2,1.2c-0.5,0.3-1,0.4-1.6,0.4s-1.1-0.1-1.6-0.4c-0.5-0.3-0.9-0.7-1.2-1.2c-0.3-0.5-0.4-1-0.4-1.6
				c0-0.6,0.1-1.1,0.4-1.6c0.3-0.5,0.7-0.9,1.2-1.2C151.9,52.9,152.4,52.8,152.9,52.8z M152.9,53.3c-0.4,0-0.9,0.1-1.3,0.3
				c-0.4,0.2-0.8,0.6-1,1c-0.2,0.4-0.4,0.9-0.4,1.3c0,0.5,0.1,0.9,0.4,1.3c0.2,0.4,0.6,0.7,1,1c0.4,0.2,0.9,0.4,1.3,0.4
				c0.5,0,0.9-0.1,1.3-0.4c0.4-0.2,0.7-0.6,1-1c0.2-0.4,0.3-0.9,0.3-1.3c0-0.5-0.1-0.9-0.4-1.3c-0.2-0.4-0.6-0.7-1-1
				C153.8,53.5,153.4,53.3,152.9,53.3z M151.6,57.7v-3.4h1.2c0.4,0,0.7,0,0.9,0.1c0.2,0.1,0.3,0.2,0.4,0.3c0.1,0.2,0.2,0.3,0.2,0.5
				c0,0.2-0.1,0.5-0.3,0.7c-0.2,0.2-0.4,0.3-0.7,0.3c0.1,0,0.2,0.1,0.3,0.2c0.1,0.1,0.3,0.4,0.5,0.7l0.4,0.7h-0.7l-0.3-0.5
				c-0.2-0.4-0.4-0.7-0.6-0.8c-0.1-0.1-0.2-0.1-0.4-0.1h-0.3v1.4L151.6,57.7L151.6,57.7z M152.1,55.8h0.7c0.3,0,0.5,0,0.6-0.1
				c0.1-0.1,0.2-0.2,0.2-0.4c0-0.1,0-0.2-0.1-0.3c-0.1-0.1-0.1-0.1-0.2-0.2c-0.1,0-0.3-0.1-0.6-0.1h-0.6V55.8z"/>
		</g>
	</g>
	<rect x="137.9" y="5.7" class="st0" width="7.4" height="3"/>
</g>
</svg>
