<svg id="Layer_1" data-name="Layer 1" xmlns="http://www.w3.org/2000/svg" xmlns:xlink="http://www.w3.org/1999/xlink" viewBox="0 0 481.91 374.09"><defs><style>.cls-1{fill:none;}.cls-2{clip-path:url(#clip-path);}.cls-3{fill:url(#radial-gradient);}.cls-4{clip-path:url(#clip-path-2);}.cls-5{fill:url(#radial-gradient-2);}.cls-6{clip-path:url(#clip-path-3);}.cls-7{fill:url(#radial-gradient-3);}.cls-8{clip-path:url(#clip-path-4);}.cls-9{fill:url(#radial-gradient-4);}.cls-10{clip-path:url(#clip-path-5);}.cls-11{fill:url(#radial-gradient-5);}.cls-12{clip-path:url(#clip-path-6);}.cls-13{fill:url(#radial-gradient-6);}.cls-14{clip-path:url(#clip-path-7);}.cls-15{fill:url(#radial-gradient-7);}.cls-16{clip-path:url(#clip-path-8);}.cls-17{fill:url(#radial-gradient-8);}.cls-18{clip-path:url(#clip-path-9);}.cls-19{fill:url(#radial-gradient-9);}.cls-20{clip-path:url(#clip-path-10);}.cls-21{fill:url(#radial-gradient-10);}.cls-22{clip-path:url(#clip-path-11);}.cls-23{fill:url(#radial-gradient-11);}.cls-24{clip-path:url(#clip-path-12);}.cls-25{fill:url(#radial-gradient-12);}.cls-26{clip-path:url(#clip-path-13);}.cls-27{fill:url(#radial-gradient-13);}.cls-28{clip-path:url(#clip-path-14);}.cls-29{fill:url(#radial-gradient-14);}.cls-30{clip-path:url(#clip-path-15);}.cls-31{fill:url(#radial-gradient-15);}.cls-32{clip-path:url(#clip-path-16);}.cls-33{fill:url(#radial-gradient-16);}.cls-34{clip-path:url(#clip-path-17);}.cls-35{fill:url(#radial-gradient-17);}.cls-36{clip-path:url(#clip-path-18);}.cls-37{fill:url(#radial-gradient-18);}.cls-38{clip-path:url(#clip-path-19);}.cls-39{fill:url(#radial-gradient-19);}.cls-40{clip-path:url(#clip-path-20);}.cls-41{fill:url(#radial-gradient-20);}.cls-42{clip-path:url(#clip-path-21);}.cls-43{fill:url(#radial-gradient-21);}.cls-44{clip-path:url(#clip-path-22);}.cls-45{fill:url(#radial-gradient-22);}.cls-46{clip-path:url(#clip-path-23);}.cls-47{fill:url(#radial-gradient-23);}.cls-48{clip-path:url(#clip-path-24);}.cls-49{fill:url(#radial-gradient-24);}.cls-50{clip-path:url(#clip-path-25);}.cls-51{fill:url(#radial-gradient-25);}.cls-52{fill:#fff;}.cls-53{fill:#ffce00;}.cls-54{fill:#1e1e1c;}.cls-55{fill:#006533;}.cls-56{clip-path:url(#clip-path-26);}.cls-57{fill:url(#radial-gradient-26);}</style><clipPath id="clip-path" transform="translate(-163.57 -31.21)"><path class="cls-1" d="M414.47,230.47C403.38,233.65,402,245,402,245s1.24,13.33,13.27,12.54,17.55-11.17,28.67-8.61c0,0-8.54-19.29-24-19.29a19.91,19.91,0,0,0-5.5.8"/></clipPath><radialGradient id="radial-gradient" cx="95.72" cy="698.08" r="1.49" gradientTransform="matrix(-9.87, -13.81, 16.45, -15.16, -10265, 12096.13)" gradientUnits="userSpaceOnUse"><stop offset="0" stop-color="#fff"/><stop offset="0" stop-color="#fff"/><stop offset="0.23" stop-color="#edf1c8"/><stop offset="0.31" stop-color="#e6ecb4"/><stop offset="0.4" stop-color="#dae491"/><stop offset="0.58" stop-color="#bbd038"/><stop offset="0.59" stop-color="#bacf36"/><stop offset="0.71" stop-color="#8ec046"/><stop offset="0.78" stop-color="#74b044"/><stop offset="0.91" stop-color="#31863e"/><stop offset="1" stop-color="#046a3a"/></radialGradient><clipPath id="clip-path-2" transform="translate(-163.57 -31.21)"><path class="cls-1" d="M415.21,240.26c-6.1.89-9.51,3.19-13.05,4.89.14,1.17,1.83,13,13.28,12.24,12-.79,17.23-11.17,28.5-8.43-4.38-3.71-13-9.05-23.9-9.05a33.24,33.24,0,0,0-4.82.35"/></clipPath><radialGradient id="radial-gradient-2" cx="95.2" cy="697.84" r="1.49" gradientTransform="matrix(0, -15.57, 21.09, 0, -14295.45, 1738.66)" gradientUnits="userSpaceOnUse"><stop offset="0" stop-color="#e6ecb4"/><stop offset="0.07" stop-color="#dae491"/><stop offset="0.22" stop-color="#bbd038"/><stop offset="0.22" stop-color="#bacf36"/><stop offset="0.4" stop-color="#8ec046"/><stop offset="0.53" stop-color="#74b044"/><stop offset="0.82" stop-color="#31863e"/><stop offset="1" stop-color="#046a3a"/></radialGradient><clipPath id="clip-path-3" transform="translate(-163.57 -31.21)"><path class="cls-1" d="M411.44,235.36a12.4,12.4,0,0,0-3.4,6.29l-.2.07a26.09,26.09,0,0,0-8,5,28.38,28.38,0,0,0-3.66,3.88l-.58,3.64s4.62-7.42,11.35-10.94c2.39-.11,4.77,1.48,6.51,3.24A20.92,20.92,0,0,1,418.2,254a21.12,21.12,0,0,0-4.51-7.65,10.69,10.69,0,0,0-5.78-3.57,31.07,31.07,0,0,1,7.44-2,11.45,11.45,0,0,1,5.89,3.07,16.73,16.73,0,0,1,4.52,6.36,16.92,16.92,0,0,0-4.28-6.6A13.79,13.79,0,0,0,417,240.5a32.76,32.76,0,0,1,7.85,0h0c3.44.48,6.29,3.34,8,6.47a14.34,14.34,0,0,0-5-6c5.24,1.25,11.33,4.51,16.11,8a44,44,0,0,0-17.2-8.78l-.68-.14a10.09,10.09,0,0,1,6.75-3.06,10.5,10.5,0,0,0-7.53,2.91l-.36-.09v0a31.59,31.59,0,0,0-7.7-.28,12.52,12.52,0,0,1,7.36-6.11,12.87,12.87,0,0,0-8.16,6.19,35.31,35.31,0,0,0-7.69,1.76,12.34,12.34,0,0,1,2.95-5.81,13.91,13.91,0,0,1,5.94-4.3,14.12,14.12,0,0,0-6.19,4.07"/></clipPath><radialGradient id="radial-gradient-3" cx="94.92" cy="697.94" r="1.49" gradientTransform="matrix(0, 29.45, 29.45, 0, -20113.95, -2544.57)" xlink:href="#radial-gradient"/><clipPath id="clip-path-4" transform="translate(-163.57 -31.21)"><path class="cls-1" d="M416.15,242.33c-1.35.18-2.25,1.74-1.93,3.41a2.9,2.9,0,0,0,3.73,2c1.62-.41,2.34-1.76,1.69-3.09a3.93,3.93,0,0,0-3.25-2.31h-.24"/></clipPath><radialGradient id="radial-gradient-4" cx="91.29" cy="706.71" r="1.49" gradientTransform="matrix(1.75, 0.8, 1.16, -1.66, -727.31, 1316.36)" gradientUnits="userSpaceOnUse"><stop offset="0" stop-color="#fff"/><stop offset="0" stop-color="#fff"/><stop offset="0.23" stop-color="#edf1c8"/><stop offset="0.31" stop-color="#e6ecb4"/><stop offset="0.4" stop-color="#dae491"/><stop offset="0.58" stop-color="#bbd038"/><stop offset="0.59" stop-color="#bacf36"/><stop offset="0.71" stop-color="#8ec046"/><stop offset="0.91" stop-color="#2e873a"/><stop offset="0.96" stop-color="#19783a"/><stop offset="1" stop-color="#046a3a"/></radialGradient><clipPath id="clip-path-5" transform="translate(-163.57 -31.21)"><path class="cls-1" d="M416.44,242.26a2.55,2.55,0,0,0-1.94,3c.29,1.4,1.88,2.1,3.48,1.64s2.32-1.63,1.74-2.79a3.48,3.48,0,0,0-3-1.91l-.32,0"/></clipPath><radialGradient id="radial-gradient-5" cx="89.01" cy="700.21" r="1.49" gradientTransform="matrix(0, 2.55, 3.52, 0, -2048.41, 19.53)" xlink:href="#radial-gradient"/><clipPath id="clip-path-6" transform="translate(-163.57 -31.21)"><path class="cls-1" d="M424.46,235.83a1.57,1.57,0,0,0-1.22,1.83,1.91,1.91,0,0,0,2.21,1.34,1.27,1.27,0,0,0,.6-1.89,1.8,1.8,0,0,0-1.48-1.29h-.12"/></clipPath><radialGradient id="radial-gradient-6" cx="91.86" cy="717.01" r="1.49" gradientTransform="matrix(1.06, 0.27, 0.53, -1.04, -215.92, 926.76)" gradientUnits="userSpaceOnUse"><stop offset="0" stop-color="#fff"/><stop offset="0" stop-color="#fff"/><stop offset="0.23" stop-color="#edf1c8"/><stop offset="0.31" stop-color="#e6ecb4"/><stop offset="0.4" stop-color="#dae491"/><stop offset="0.58" stop-color="#bbd038"/><stop offset="0.59" stop-color="#bacf36"/><stop offset="0.71" stop-color="#8ec046"/><stop offset="1" stop-color="#398e3b"/></radialGradient><clipPath id="clip-path-7" transform="translate(-163.57 -31.21)"><path class="cls-1" d="M424.53,235.83a1.41,1.41,0,0,0-1.11,1.59,1.57,1.57,0,0,0,1.9,1.1,1.12,1.12,0,0,0,.63-1.63,1.51,1.51,0,0,0-1.3-1.07h-.13"/></clipPath><radialGradient id="radial-gradient-7" cx="84.32" cy="706.44" r="1.49" gradientTransform="matrix(0, 1.33, 1.83, 0, -872.12, 126.28)" gradientUnits="userSpaceOnUse"><stop offset="0" stop-color="#fff"/><stop offset="0" stop-color="#fff"/><stop offset="0.23" stop-color="#edf1c8"/><stop offset="0.31" stop-color="#e6ecb4"/><stop offset="0.4" stop-color="#dae491"/><stop offset="0.58" stop-color="#bbd038"/><stop offset="0.59" stop-color="#bacf36"/><stop offset="0.71" stop-color="#8ec046"/><stop offset="1" stop-color="#32883a"/></radialGradient><clipPath id="clip-path-8" transform="translate(-163.57 -31.21)"><path class="cls-1" d="M384.81,221.69C382.87,233.59,396,236.1,396,236.1s11.46-.28,15.69-11c7.2-18.28-15.58-31.11-15.58-31.11,1.48,11.31-9.37,15.81-11.32,27.71"/></clipPath><radialGradient id="radial-gradient-8" cx="93.81" cy="698.28" r="1.49" gradientTransform="matrix(12.8, 11.15, 16.67, -14.92, -12581.92, 9543.54)" gradientUnits="userSpaceOnUse"><stop offset="0" stop-color="#fff"/><stop offset="0" stop-color="#fff"/><stop offset="0.16" stop-color="#edf1c8"/><stop offset="0.21" stop-color="#e6ecb4"/><stop offset="0.28" stop-color="#dae491"/><stop offset="0.43" stop-color="#bbd038"/><stop offset="0.43" stop-color="#bacf36"/><stop offset="0.61" stop-color="#8ec046"/><stop offset="0.69" stop-color="#74b044"/><stop offset="0.88" stop-color="#31863e"/><stop offset="1" stop-color="#046a3a"/></radialGradient><clipPath id="clip-path-9" transform="translate(-163.57 -31.21)"><path class="cls-1" d="M385,221.53c-1.85,11.33,9.77,14.15,10.91,14.4,2-3.37,4.65-6.54,6.12-12.52,3.17-12.89-2.17-24-5.91-29.43,1.65,11.47-9.2,15.71-11.13,27.56"/></clipPath><radialGradient id="radial-gradient-9" cx="93.16" cy="697.62" r="1.49" gradientTransform="matrix(0, 15.57, 21.09, 0, -14319.82, -1243.9)" gradientUnits="userSpaceOnUse"><stop offset="0" stop-color="#fff"/><stop offset="0" stop-color="#fff"/><stop offset="0.11" stop-color="#edf1c8"/><stop offset="0.15" stop-color="#e6ecb4"/><stop offset="0.24" stop-color="#dae491"/><stop offset="0.43" stop-color="#bbd038"/><stop offset="0.43" stop-color="#bacf36"/><stop offset="0.56" stop-color="#8ec046"/><stop offset="0.66" stop-color="#74b044"/><stop offset="0.87" stop-color="#31863e"/><stop offset="1" stop-color="#046a3a"/></radialGradient><clipPath id="clip-path-10" transform="translate(-163.57 -31.21)"><path class="cls-1" d="M402.52,210.78a14.34,14.34,0,0,0-5.45-5.57c2.95,2,5.52,5.15,5.67,8.62h0a32.9,32.9,0,0,1-.79,7.81,13.78,13.78,0,0,0-2.61-4.8A16.9,16.9,0,0,0,393.2,212a16.7,16.7,0,0,1,5.89,5.1,11.46,11.46,0,0,1,2.49,6.16,31.17,31.17,0,0,1-2.72,7.21,10.71,10.71,0,0,0-3-6.09,21.11,21.11,0,0,0-7.18-5.22,20.92,20.92,0,0,1,6.93,5.45c1.59,1.91,2.94,4.42,2.6,6.79a14,14,0,0,0-1.82,4.7l1.38-.14a28,28,0,0,1,2.09-5.33l.09-.19a12.42,12.42,0,0,0,6.59-2.78,14.12,14.12,0,0,0,4.65-5.77,13.92,13.92,0,0,1-4.86,5.5,12.33,12.33,0,0,1-6.07,2.38,35.28,35.28,0,0,0,2.49-7.49,12.88,12.88,0,0,0,6.95-7.52,12.54,12.54,0,0,1-6.79,6.74,31.56,31.56,0,0,0,.46-7.69h0c0-.12,0-.24-.05-.37A10.5,10.5,0,0,0,407,206.2a10.09,10.09,0,0,1-3.69,6.43c0-.23,0-.46-.07-.69a44,44,0,0,0-7.09-18c3,5.09,5.64,11.46,6.39,16.8"/></clipPath><radialGradient id="radial-gradient-10" cx="96.4" cy="697.82" r="1.49" gradientTransform="translate(-13866.1 2182.48) rotate(-90) scale(20.47)" gradientUnits="userSpaceOnUse"><stop offset="0" stop-color="#fff"/><stop offset="0" stop-color="#fff"/><stop offset="0.23" stop-color="#edf1c8"/><stop offset="0.31" stop-color="#e6ecb4"/><stop offset="0.4" stop-color="#dae491"/><stop offset="0.58" stop-color="#bbd038"/><stop offset="0.59" stop-color="#bacf36"/><stop offset="0.71" stop-color="#8ec046"/><stop offset="1" stop-color="#8ec046"/></radialGradient><clipPath id="clip-path-11" transform="translate(-163.57 -31.21)"><path class="cls-1" d="M394.62,219c-1,1-.76,2.51.61,3.39a2.84,2.84,0,0,0,4.07-.68c.81-1.45.46-3.17-.74-3.75a2.62,2.62,0,0,0-1.08-.22,4.08,4.08,0,0,0-2.86,1.27"/></clipPath><radialGradient id="radial-gradient-11" cx="91.92" cy="711.08" r="1.49" gradientTransform="matrix(-1.87, 0.2, -0.56, -1.9, 805.9, 1521.47)" xlink:href="#radial-gradient-4"/><clipPath id="clip-path-12" transform="translate(-163.57 -31.21)"><path class="cls-1" d="M394.7,218.49c-.9.89-.57,2.25.75,3.12s3,.76,3.74-.45a2.49,2.49,0,0,0-.86-3.41,2.75,2.75,0,0,0-1.2-.25,3.45,3.45,0,0,0-2.43,1"/></clipPath><radialGradient id="radial-gradient-12" cx="87.52" cy="702.58" r="1.49" gradientTransform="matrix(-2.49, 0, 0, -3.44, 613.49, 2636.09)" xlink:href="#radial-gradient"/><clipPath id="clip-path-13" transform="translate(-163.57 -31.21)"><path class="cls-1" d="M392.41,214.23a1.46,1.46,0,0,0-.29,2.27,2.2,2.2,0,0,0,3-.32,1.82,1.82,0,0,0-.38-2.51,1.27,1.27,0,0,0-.67-.18,2.44,2.44,0,0,0-1.63.75"/></clipPath><radialGradient id="radial-gradient-13" cx="96.76" cy="718.28" r="1.49" gradientTransform="matrix(-1.24, -0.23, -0.05, -1.35, 384.19, 1172.93)" xlink:href="#radial-gradient-6"/><clipPath id="clip-path-14" transform="translate(-163.57 -31.21)"><path class="cls-1" d="M392.63,214a1.3,1.3,0,0,0-.13,2,1.81,1.81,0,0,0,2.53-.23,1.62,1.62,0,0,0-.39-2.2,1.21,1.21,0,0,0-.66-.18,2,2,0,0,0-1.34.6"/></clipPath><radialGradient id="radial-gradient-14" cx="86.68" cy="709.15" r="1.49" gradientTransform="matrix(-1.53, 0, 0, -2.12, 525.38, 1717.19)" xlink:href="#radial-gradient-7"/><clipPath id="clip-path-15" transform="translate(-163.57 -31.21)"><path class="cls-1" d="M403.21,204.67a1.14,1.14,0,0,0-.22,1.77,1.72,1.72,0,0,0,2.31-.27,1.42,1.42,0,0,0-.31-2,1,1,0,0,0-.52-.14,1.89,1.89,0,0,0-1.27.59"/></clipPath><radialGradient id="radial-gradient-15" cx="93.34" cy="727.97" r="1.49" gradientTransform="matrix(-0.97, -0.18, -0.04, -1.05, 362.04, 954.87)" xlink:href="#radial-gradient-6"/><clipPath id="clip-path-16" transform="translate(-163.57 -31.21)"><path class="cls-1" d="M403.38,204.52a1,1,0,0,0-.1,1.57,1.41,1.41,0,0,0,2-.19,1.27,1.27,0,0,0-.31-1.72,1,1,0,0,0-.51-.14,1.54,1.54,0,0,0-1.05.47"/></clipPath><radialGradient id="radial-gradient-16" cx="80.27" cy="713.03" r="1.49" gradientTransform="matrix(-1.2, 0, 0, -1.65, 499.31, 1384.14)" xlink:href="#radial-gradient-7"/><clipPath id="clip-path-17" transform="translate(-163.57 -31.21)"><path class="cls-1" d="M347.35,249c11.11-2.56,16.63,7.81,28.67,8.61S389.29,245,389.29,245s-1.38-11.38-12.47-14.56a19.92,19.92,0,0,0-5.5-.8c-15.42,0-24,19.29-24,19.29"/></clipPath><radialGradient id="radial-gradient-17" cx="95.53" cy="698.26" r="1.49" gradientTransform="matrix(9.87, -13.81, -16.45, -15.16, 10733.95, 12096.06)" xlink:href="#radial-gradient"/><clipPath id="clip-path-18" transform="translate(-163.57 -31.21)"><path class="cls-1" d="M347.35,249c11.26-2.74,16.52,7.65,28.5,8.43,11.45.76,13.14-11.08,13.28-12.24-3.55-1.71-7-4-13.05-4.89a33.24,33.24,0,0,0-4.82-.35c-10.88,0-19.53,5.35-23.9,9.05"/></clipPath><radialGradient id="radial-gradient-18" cx="94.96" cy="697.99" r="1.49" gradientTransform="matrix(15.57, 0, 0, -21.09, -1117.56, 14970.52)" gradientUnits="userSpaceOnUse"><stop offset="0" stop-color="#e6ecb4"/><stop offset="0.06" stop-color="#dae491"/><stop offset="0.19" stop-color="#bbd038"/><stop offset="0.2" stop-color="#bacf36"/><stop offset="0.36" stop-color="#8ec046"/><stop offset="0.51" stop-color="#74b044"/><stop offset="0.81" stop-color="#31863e"/><stop offset="1" stop-color="#046a3a"/></radialGradient><clipPath id="clip-path-19" transform="translate(-163.57 -31.21)"><path class="cls-1" d="M379.59,235.6a12.33,12.33,0,0,1,3,5.81,35.33,35.33,0,0,0-7.69-1.76,12.87,12.87,0,0,0-8.16-6.19,12.52,12.52,0,0,1,7.36,6.11,31.6,31.6,0,0,0-7.7.28v0l-.36.09a10.5,10.5,0,0,0-7.53-2.91,10.09,10.09,0,0,1,6.75,3.06l-.68.14a44,44,0,0,0-17.2,8.78c4.78-3.46,10.87-6.71,16.11-8a14.32,14.32,0,0,0-5,6c1.75-3.13,4.6-6,8-6.47h0a32.76,32.76,0,0,1,7.85,0,13.79,13.79,0,0,0-4.53,3.06,16.92,16.92,0,0,0-4.28,6.6A16.73,16.73,0,0,1,370,243.8a11.46,11.46,0,0,1,5.89-3.07,31.06,31.06,0,0,1,7.44,2,10.71,10.71,0,0,0-5.78,3.57,21.11,21.11,0,0,0-4.51,7.65,20.92,20.92,0,0,1,4.76-7.42c1.75-1.76,4.12-3.35,6.51-3.24,6.73,3.52,11.35,10.94,11.35,10.94l-.58-3.64a28.38,28.38,0,0,0-3.66-3.88,26.09,26.09,0,0,0-8-5l-.2-.07a12.42,12.42,0,0,0-3.41-6.29,14.11,14.11,0,0,0-6.19-4.07,13.91,13.91,0,0,1,5.94,4.3"/></clipPath><radialGradient id="radial-gradient-19" cx="95.06" cy="698.02" r="1.49" gradientTransform="translate(3163.08 20778.89) rotate(180) scale(29.45)" xlink:href="#radial-gradient"/><clipPath id="clip-path-20" transform="translate(-163.57 -31.21)"><path class="cls-1" d="M379.08,249.49c-1,1.54-.79,3.24.5,3.79s3-.57,3.83-2.5.6-3.63-.51-3.79h-.22c-1.1,0-2.66,1.07-3.61,2.51"/></clipPath><radialGradient id="radial-gradient-20" cx="94.24" cy="706.57" r="1.49" gradientTransform="matrix(-1.7, 1.08, -0.9, -1.74, 1013.38, 1346.3)" xlink:href="#radial-gradient"/><clipPath id="clip-path-21" transform="translate(-163.57 -31.21)"><path class="cls-1" d="M379.05,249.12c-.93,1.38-.68,2.94.58,3.47s2.87-.44,3.62-2.19.49-3.3-.58-3.47l-.26,0a4.78,4.78,0,0,0-3.36,2.21"/></clipPath><radialGradient id="radial-gradient-21" cx="90.94" cy="701.24" r="1.49" gradientTransform="translate(660.47 2420.72) rotate(-180) scale(3.09)" xlink:href="#radial-gradient"/><clipPath id="clip-path-22" transform="translate(-163.57 -31.21)"><path class="cls-1" d="M374.45,243.4a1.4,1.4,0,0,0,1.1,2,1.89,1.89,0,0,0,2.42-1.28,1.78,1.78,0,0,0-1.25-2.21h-.15a2.55,2.55,0,0,0-2.11,1.49"/></clipPath><radialGradient id="radial-gradient-22" cx="91.87" cy="713.61" r="1.49" gradientTransform="matrix(-1.14, 0.52, -0.75, -1.08, 854.82, 935)" xlink:href="#radial-gradient-4"/><clipPath id="clip-path-23" transform="translate(-163.57 -31.21)"><path class="cls-1" d="M374.4,243.1c-.38.75.11,1.54,1.13,1.81a1.7,1.7,0,0,0,2.26-1.07,1.66,1.66,0,0,0-1.25-2h-.2a2.26,2.26,0,0,0-1.93,1.24"/></clipPath><radialGradient id="radial-gradient-23" cx="86.43" cy="703.8" r="1.49" gradientTransform="matrix(-1.65, 0, 0, -2.28, 517.91, 1851.63)" xlink:href="#radial-gradient"/><clipPath id="clip-path-24" transform="translate(-163.57 -31.21)"><path class="cls-1" d="M366.7,237.16c-.32.69-.15,1.42.52,1.62a1.64,1.64,0,0,0,1.9-1.15,1.35,1.35,0,0,0-1-1.58H368a1.54,1.54,0,0,0-1.27,1.11"/></clipPath><radialGradient id="radial-gradient-24" cx="95.64" cy="721.33" r="1.49" gradientTransform="matrix(-0.91, 0.23, -0.46, -0.9, 620.77, 830.06)" xlink:href="#radial-gradient-6"/><clipPath id="clip-path-25" transform="translate(-163.57 -31.21)"><path class="cls-1" d="M366.79,237a1,1,0,0,0,.54,1.4,1.35,1.35,0,0,0,1.64-.95,1.22,1.22,0,0,0-1-1.37h-.11a1.3,1.3,0,0,0-1.12.92"/></clipPath><radialGradient id="radial-gradient-25" cx="84.64" cy="710.36" r="1.49" gradientTransform="matrix(-1.15, 0, 0, -1.58, 463.78, 1360.93)" xlink:href="#radial-gradient-7"/><clipPath id="clip-path-26" transform="translate(-163.57 -31.21)"><path class="cls-1" d="M396.64,235.2s-2.17,5.87-2.28,20.8.81,28.8.81,28.8l3.68,1.18a178.79,178.79,0,0,1-2.73-30c.11-14.93,2.07-21.58,2.07-21.58Z"/></clipPath><radialGradient id="radial-gradient-26" cx="94.95" cy="697.66" r="1.49" gradientTransform="matrix(42.83, 0, 0, -42.83, -3833.54, 30067.55)" gradientUnits="userSpaceOnUse"><stop offset="0" stop-color="#8ec046"/><stop offset="0.44" stop-color="#8ec046"/><stop offset="0.56" stop-color="#74b044"/><stop offset="0.83" stop-color="#31863e"/><stop offset="1" stop-color="#046a3a"/></radialGradient></defs><title>agromich-logo-svg</title><g class="cls-2"><polygon class="cls-3" points="292.73 215.76 263.7 175.16 226.06 209.86 255.08 250.46 292.73 215.76"/></g><g class="cls-4"><rect class="cls-5" x="402.91" y="227" width="40.27" height="44.06" transform="translate(-198.65 394.2) rotate(-51.54)"/></g><g class="cls-6"><rect class="cls-7" x="397.76" y="216.08" width="44" height="53.36" transform="translate(-163.55 454.36) rotate(-60.09)"/></g><g class="cls-8"><polygon class="cls-9" points="251.88 208.89 259.83 212.53 255.17 219.19 247.23 215.55 251.88 208.89"/></g><g class="cls-10"><rect class="cls-11" x="413.48" y="241.26" width="7.59" height="7.12" transform="translate(-226.21 152.43) rotate(-23.14)"/></g><g class="cls-12"><polygon class="cls-13" points="259.93 203.87 264.39 205.01 262.47 208.77 258.01 207.63 259.93 203.87"/></g><g class="cls-14"><rect class="cls-15" x="422.78" y="235.26" width="4.03" height="4.02" transform="translate(-224.69 231.35) rotate(-32.17)"/></g><g class="cls-16"><polygon class="cls-17" points="237.08 146.85 279.19 183.55 237.56 220.8 195.44 184.11 237.08 146.85"/></g><g class="cls-18"><rect class="cls-19" x="373.51" y="191.35" width="41.33" height="47.2" transform="translate(-217.08 217.78) rotate(-32.95)"/></g><g class="cls-20"><rect class="cls-21" x="381" y="191.21" width="37.89" height="47.63" transform="translate(-216.68 153.21) rotate(-24.4)"/></g><g class="cls-22"><polygon class="cls-23" points="236.34 185.79 228.42 186.65 230.24 192.76 238.15 191.9 236.34 185.79"/></g><g class="cls-24"><rect class="cls-25" x="392.94" y="216.08" width="7.79" height="7.88" transform="translate(-194.6 339.87) rotate(-48.45)"/></g><g class="cls-26"><polygon class="cls-27" points="232.1 182.27 227.69 181.44 227.85 185.96 232.26 186.78 232.1 182.27"/></g><g class="cls-28"><rect class="cls-29" x="391.28" y="212.71" width="4.81" height="4.68" transform="translate(-217.26 216.83) rotate(-32.86)"/></g><g class="cls-30"><polygon class="cls-31" points="242.19 172.87 238.73 172.24 238.87 175.74 242.33 176.37 242.19 172.87"/></g><g class="cls-32"><rect class="cls-33" x="402.33" y="203.47" width="3.76" height="3.66" transform="translate(-210.04 223.36) rotate(-33.17)"/></g><g class="cls-34"><polygon class="cls-35" points="171.41 215.76 200.43 175.16 238.08 209.86 209.06 250.46 171.41 215.76"/></g><g class="cls-36"><rect class="cls-37" x="346.2" y="228.9" width="44.06" height="40.27" transform="translate(-238.57 251.84) rotate(-38.46)"/></g><g class="cls-38"><rect class="cls-39" x="344.85" y="220.76" width="53.36" height="44" transform="translate(-235.14 186.37) rotate(-29.91)"/></g><g class="cls-40"><polygon class="cls-41" points="219.14 212.82 211.82 217.46 216.02 225.56 223.34 220.92 219.14 212.82"/></g><g class="cls-42"><rect class="cls-43" x="377.04" y="246.09" width="8.02" height="7.84" transform="translate(-162.17 470.95) rotate(-66.86)"/></g><g class="cls-44"><polygon class="cls-45" points="213.59 209.26 208.44 211.62 211.46 215.94 216.61 213.58 213.59 209.26"/></g><g class="cls-46"><rect class="cls-47" x="373.67" y="241.07" width="4.62" height="4.93" transform="translate(-159.27 462.37) rotate(-66.86)"/></g><g class="cls-48"><polygon class="cls-49" points="205.33 204.19 201.49 205.17 203.14 208.41 206.98 207.43 205.33 204.19"/></g><g class="cls-50"><rect class="cls-51" x="366.06" y="235.56" width="3.46" height="3.47" transform="translate(-192.45 391.09) rotate(-57.83)"/></g><path class="cls-52" d="M368,236.56c.14,0,.26,0,.26-.11a.23.23,0,0,0-.19-.21.23.23,0,0,0-.25.11c0,.08,0,.18.17.22" transform="translate(-163.57 -31.21)"/><polygon class="cls-53" points="227.1 159.35 236.76 159.35 232.14 0 227.1 159.35"/><polygon class="cls-53" points="215.61 161.06 225.14 159.54 195.82 2.88 215.61 161.06"/><polygon class="cls-53" points="204.52 164.56 213.7 161.56 160.41 11.44 204.52 164.56"/><polygon class="cls-53" points="194.11 169.76 202.71 165.35 126.75 25.48 194.11 169.76"/><polygon class="cls-53" points="184.64 176.54 192.45 170.82 95.69 44.64 184.64 176.54"/><polygon class="cls-53" points="176.34 184.73 183.16 177.85 67.99 68.46 176.34 184.73"/><polygon class="cls-53" points="169.41 194.12 175.08 186.25 44.34 96.35 169.41 194.12"/><polygon class="cls-53" points="164.03 204.49 168.41 195.83 25.3 127.63 164.03 204.49"/><polygon class="cls-53" points="160.32 215.58 163.3 206.33 11.36 161.51 160.32 215.58"/><polygon class="cls-53" points="158.38 227.12 159.89 217.51 2.86 197.18 158.38 227.12"/><polygon class="cls-53" points="158.26 238.82 158.26 229.09 0 233.74 158.26 238.82"/><polygon class="cls-53" points="306.02 228.67 306.02 238.39 464.28 233.74 306.02 228.67"/><polygon class="cls-53" points="304.32 217.1 305.84 226.7 461.42 197.18 304.32 217.1"/><polygon class="cls-53" points="300.85 205.93 303.83 215.18 452.92 161.51 300.85 205.93"/><polygon class="cls-53" points="295.68 195.45 300.07 204.11 438.98 127.63 295.68 195.45"/><polygon class="cls-53" points="288.95 185.91 294.63 193.78 419.95 96.35 288.95 185.91"/><polygon class="cls-53" points="280.82 177.55 287.65 184.43 396.29 68.46 280.82 177.55"/><polygon class="cls-53" points="271.49 170.58 279.3 176.29 368.59 44.64 271.49 170.58"/><polygon class="cls-53" points="261.19 165.16 269.8 169.57 337.53 25.48 261.19 165.16"/><polygon class="cls-53" points="250.18 161.42 259.36 164.43 303.88 11.44 250.18 161.42"/><polygon class="cls-53" points="238.72 159.47 248.26 161 268.45 2.88 238.72 159.47"/><path class="cls-54" d="M165.63,399.8h-2l7.6-18.65h2.31l7.57,18.65H179l-2.34-5.85H168ZM176,392.27l-3.71-9.36-3.66,9.36Z" transform="translate(-163.57 -31.21)"/><path class="cls-54" d="M196.22,399.8V381.15h1.9V399.8Z" transform="translate(-163.57 -31.21)"/><path class="cls-54" d="M216.73,397.57a6,6,0,0,1-2.4,1.91,7.75,7.75,0,0,1-3.26.69,7.43,7.43,0,0,1-5.42-2.12,7.42,7.42,0,0,1,0-10.52,7.67,7.67,0,0,1,5.53-2.13,7.37,7.37,0,0,1,3.13.66,6.19,6.19,0,0,1,2.37,1.9v-2.25h1.86V399.8h-1.86Zm0-4.9a5.73,5.73,0,0,0-5.55-5.58,5.53,5.53,0,0,0-4.05,1.67,5.62,5.62,0,0,0-1.67,4.14,5.33,5.33,0,0,0,1.67,4,5.54,5.54,0,0,0,4,1.62,5.33,5.33,0,0,0,3.93-1.71A5.67,5.67,0,0,0,216.73,392.67Z" transform="translate(-163.57 -31.21)"/><path class="cls-54" d="M241.31,399.8h-1.73l-5.78-14.09h2l4.73,11.36,4.77-11.36h2.06Z" transform="translate(-163.57 -31.21)"/><path class="cls-54" d="M264.24,397.57a6,6,0,0,1-2.4,1.91,7.75,7.75,0,0,1-3.26.69,7.43,7.43,0,0,1-5.42-2.12,7.42,7.42,0,0,1,0-10.52,7.67,7.67,0,0,1,5.53-2.13,7.37,7.37,0,0,1,3.13.66,6.19,6.19,0,0,1,2.37,1.9v-2.25h1.86V399.8h-1.86Zm0-4.9a5.73,5.73,0,0,0-5.55-5.58,5.53,5.53,0,0,0-4.05,1.67A5.62,5.62,0,0,0,253,392.9a5.33,5.33,0,0,0,1.67,4,5.54,5.54,0,0,0,4,1.62,5.33,5.33,0,0,0,3.93-1.71A5.67,5.67,0,0,0,264.24,392.67Z" transform="translate(-163.57 -31.21)"/><path class="cls-54" d="M272.18,385.71H274v1.6a5.46,5.46,0,0,1,2-1.42,7,7,0,0,1,2.63-.46,7,7,0,0,1,2.9.58,4.78,4.78,0,0,1,2,1.65,5,5,0,0,1,.73,1.77,15.16,15.16,0,0,1,.22,3v7.36h-1.87v-7.89a5.38,5.38,0,0,0-1-3.62,4.09,4.09,0,0,0-3.21-1.13,5,5,0,0,0-2.27.49,3.76,3.76,0,0,0-1.54,1.42,3.93,3.93,0,0,0-.49,1.31,15.73,15.73,0,0,0-.14,2.57v6.85h-1.84Z" transform="translate(-163.57 -31.21)"/><path class="cls-54" d="M293.16,401a3.55,3.55,0,0,0,1.56,1.92,5.2,5.2,0,0,0,2.74.68,5.34,5.34,0,0,0,4.05-1.6,5.94,5.94,0,0,0,1.53-4.28v-.37a7.4,7.4,0,0,1-2.45,2.11,6.48,6.48,0,0,1-3,.71A7.67,7.67,0,0,1,292,398a7.39,7.39,0,0,1,0-10.51,7.44,7.44,0,0,1,5.39-2.11,7.55,7.55,0,0,1,3.23.64,6.62,6.62,0,0,1,2.41,2v-2.3h1.86v11.76a8.11,8.11,0,0,1-1.94,5.76,7,7,0,0,1-5.36,2.07,7.69,7.69,0,0,1-4.32-1.18A5.33,5.33,0,0,1,291,401Zm-1.32-8.31a5.65,5.65,0,0,0,1.65,4.14,5.61,5.61,0,0,0,9.53-3.93,5.69,5.69,0,0,0-1.65-4.11,5.26,5.26,0,0,0-3.9-1.7,5.47,5.47,0,0,0-4,1.62A5.37,5.37,0,0,0,291.84,392.64Z" transform="translate(-163.57 -31.21)"/><path class="cls-54" d="M310.85,385.71h1.87v7.48a6.52,6.52,0,0,0,1,4.08,3.94,3.94,0,0,0,3.23,1.2,4.88,4.88,0,0,0,2.25-.49,3.74,3.74,0,0,0,2-2.73,15.5,15.5,0,0,0,.15-2.61v-6.93h1.9V399.8h-1.9v-1.52a5.22,5.22,0,0,1-1.92,1.45,6.6,6.6,0,0,1-2.57.45q-3.2,0-4.61-1.65t-1.41-5.46Z" transform="translate(-163.57 -31.21)"/><path class="cls-54" d="M341.85,397.57a6,6,0,0,1-2.4,1.91,7.75,7.75,0,0,1-3.26.69,7.43,7.43,0,0,1-5.42-2.12,7.42,7.42,0,0,1,0-10.52,7.67,7.67,0,0,1,5.53-2.13,7.37,7.37,0,0,1,3.13.66,6.19,6.19,0,0,1,2.37,1.9v-2.25h1.86V399.8h-1.86Zm0-4.9a5.73,5.73,0,0,0-5.55-5.58,5.53,5.53,0,0,0-4.05,1.67,5.62,5.62,0,0,0-1.67,4.14,5.33,5.33,0,0,0,1.67,4,5.54,5.54,0,0,0,4,1.62,5.33,5.33,0,0,0,3.93-1.71A5.67,5.67,0,0,0,341.85,392.67Z" transform="translate(-163.57 -31.21)"/><path class="cls-54" d="M351.68,399.8h-1.92V385.71h1.79v1.63a4.64,4.64,0,0,1,1.53-1.37,4.31,4.31,0,0,1,1.93-.46v2a3.75,3.75,0,0,0-2.56,1,4.16,4.16,0,0,0-.77,2.81Z" transform="translate(-163.57 -31.21)"/><path class="cls-54" d="M372.17,387.94v-6.79h1.91V399.8h-1.91v-2.13a6.82,6.82,0,0,1-2.47,1.84,7.61,7.61,0,0,1-3.13.66,7.4,7.4,0,0,1-5.39-2.15,7.11,7.11,0,0,1-2.19-5.28,7,7,0,0,1,2.17-5.22,7.44,7.44,0,0,1,5.42-2.12,7.65,7.65,0,0,1,3.18.65A6.51,6.51,0,0,1,372.17,387.94Zm.05,5a5.65,5.65,0,0,0-1.67-4.11,5.34,5.34,0,0,0-3.93-1.7,5.55,5.55,0,0,0-4,1.62,5.32,5.32,0,0,0-1.67,4,5.64,5.64,0,0,0,1.67,4.15,5.51,5.51,0,0,0,4.05,1.68,5.74,5.74,0,0,0,5.55-5.6Z" transform="translate(-163.57 -31.21)"/><path class="cls-54" d="M382.08,384.06h-1.9v-2.91h1.9Zm-1.9,15.74V385.71h1.9V399.8Z" transform="translate(-163.57 -31.21)"/><path class="cls-54" d="M400.72,397.57a6,6,0,0,1-2.4,1.91,7.75,7.75,0,0,1-3.26.69,7.43,7.43,0,0,1-5.42-2.12,7.42,7.42,0,0,1,0-10.52,7.67,7.67,0,0,1,5.53-2.13,7.37,7.37,0,0,1,3.13.66,6.19,6.19,0,0,1,2.37,1.9v-2.25h1.86V399.8h-1.86Zm0-4.9a5.73,5.73,0,0,0-5.55-5.58,5.53,5.53,0,0,0-4.05,1.67,5.62,5.62,0,0,0-1.67,4.14,5.33,5.33,0,0,0,1.67,4,5.54,5.54,0,0,0,4,1.62,5.33,5.33,0,0,0,3.93-1.71A5.67,5.67,0,0,0,400.72,392.67Z" transform="translate(-163.57 -31.21)"/><path class="cls-54" d="M434,393.33H420.65A5.34,5.34,0,0,0,422.4,397a6,6,0,0,0,6.93.6,5.49,5.49,0,0,0,2.06-2.29h2.15a8.13,8.13,0,0,1-2.87,3.59,7.92,7.92,0,0,1-9.74-.94,7.44,7.44,0,0,1,0-10.58,7.73,7.73,0,0,1,5.59-2.1,7.21,7.21,0,0,1,5.44,2.19,7.85,7.85,0,0,1,2.1,5.69Zm-2.1-1.58a6.21,6.21,0,0,0-2-3.54,5.7,5.7,0,0,0-3.75-1.19,5.33,5.33,0,0,0-5.47,4.73Z" transform="translate(-163.57 -31.21)"/><path class="cls-54" d="M439.26,385.71h1.84v1.6a5.47,5.47,0,0,1,2-1.42,7,7,0,0,1,2.63-.46,7,7,0,0,1,2.9.58,4.78,4.78,0,0,1,2,1.65,5.06,5.06,0,0,1,.73,1.77,15.2,15.2,0,0,1,.22,3v7.36h-1.87v-7.89a5.38,5.38,0,0,0-1-3.62,4.09,4.09,0,0,0-3.21-1.13,5,5,0,0,0-2.27.49,3.76,3.76,0,0,0-1.54,1.42,3.92,3.92,0,0,0-.49,1.31,15.77,15.77,0,0,0-.14,2.57v6.85h-1.84Z" transform="translate(-163.57 -31.21)"/><path class="cls-54" d="M481,397.57a6,6,0,0,1-2.4,1.91,7.75,7.75,0,0,1-3.26.69A7.43,7.43,0,0,1,470,398a7.42,7.42,0,0,1,0-10.52,7.67,7.67,0,0,1,5.53-2.13,7.37,7.37,0,0,1,3.13.66A6.19,6.19,0,0,1,481,388v-2.25h1.86V399.8H481Zm0-4.9a5.73,5.73,0,0,0-5.55-5.58,5.52,5.52,0,0,0-4.05,1.67,5.62,5.62,0,0,0-1.67,4.14,5.32,5.32,0,0,0,1.67,4,5.54,5.54,0,0,0,4,1.62,5.33,5.33,0,0,0,3.93-1.71A5.68,5.68,0,0,0,481,392.67Z" transform="translate(-163.57 -31.21)"/><path class="cls-54" d="M491.51,401a3.55,3.55,0,0,0,1.56,1.92,5.2,5.2,0,0,0,2.74.68,5.34,5.34,0,0,0,4.05-1.6,5.94,5.94,0,0,0,1.53-4.28v-.37a7.39,7.39,0,0,1-2.45,2.11,6.48,6.48,0,0,1-3,.71,7.67,7.67,0,0,1-5.54-2.12,7.39,7.39,0,0,1,0-10.51,7.44,7.44,0,0,1,5.39-2.11A7.56,7.56,0,0,1,499,386a6.62,6.62,0,0,1,2.41,2v-2.3h1.86v11.76a8.11,8.11,0,0,1-1.94,5.76,7,7,0,0,1-5.36,2.07,7.68,7.68,0,0,1-4.32-1.18A5.33,5.33,0,0,1,489.3,401Zm-1.32-8.31a5.64,5.64,0,0,0,1.65,4.14,5.61,5.61,0,0,0,9.53-3.93,5.69,5.69,0,0,0-1.65-4.11,5.26,5.26,0,0,0-3.9-1.7,5.47,5.47,0,0,0-4,1.62A5.37,5.37,0,0,0,490.19,392.64Z" transform="translate(-163.57 -31.21)"/><path class="cls-54" d="M511.14,399.8h-1.92V385.71H511v1.63a4.64,4.64,0,0,1,1.53-1.37,4.31,4.31,0,0,1,1.93-.46v2a3.75,3.75,0,0,0-2.56,1,4.16,4.16,0,0,0-.77,2.81Z" transform="translate(-163.57 -31.21)"/><path class="cls-54" d="M521.11,384.06h-1.9v-2.91h1.9Zm-1.9,15.74V385.71h1.9V399.8Z" transform="translate(-163.57 -31.21)"/><path class="cls-54" d="M539.07,390a6,6,0,0,0-2.13-2.27,5.82,5.82,0,0,0-3-.74,5.19,5.19,0,0,0-3.88,1.65,5.66,5.66,0,0,0-1.59,4.08,5.58,5.58,0,0,0,1.6,4.07,5.32,5.32,0,0,0,4,1.63,5.7,5.7,0,0,0,3-.81,5.17,5.17,0,0,0,2-2.27h2.1a7.22,7.22,0,0,1-2.7,3.55,7.53,7.53,0,0,1-4.34,1.26,7.45,7.45,0,0,1-5.43-2.17,7.34,7.34,0,0,1,0-10.53,7.54,7.54,0,0,1,5.45-2.17,7.28,7.28,0,0,1,7,4.71Z" transform="translate(-163.57 -31.21)"/><path class="cls-54" d="M547,385.71h1.87v7.48a6.52,6.52,0,0,0,1,4.08,3.94,3.94,0,0,0,3.23,1.2,4.88,4.88,0,0,0,2.25-.49,3.74,3.74,0,0,0,2-2.73,15.48,15.48,0,0,0,.15-2.61v-6.93h1.9V399.8h-1.9v-1.52a5.23,5.23,0,0,1-1.92,1.45,6.6,6.6,0,0,1-2.57.45q-3.2,0-4.61-1.65T547,393.06Z" transform="translate(-163.57 -31.21)"/><path class="cls-54" d="M565.46,399.8V381.15h1.9V399.8Z" transform="translate(-163.57 -31.21)"/><path class="cls-54" d="M574.77,399.8V387.53H572v-1.82h2.81v-4.56h1.9v4.56h2.81v1.82h-2.81V399.8Z" transform="translate(-163.57 -31.21)"/><path class="cls-54" d="M584,385.71h1.87v7.48a6.52,6.52,0,0,0,1,4.08,3.94,3.94,0,0,0,3.23,1.2,4.88,4.88,0,0,0,2.25-.49,3.74,3.74,0,0,0,2-2.73,15.48,15.48,0,0,0,.15-2.61v-6.93h1.9V399.8h-1.9v-1.52a5.23,5.23,0,0,1-1.92,1.45,6.6,6.6,0,0,1-2.57.45q-3.2,0-4.61-1.65T584,393.06Z" transform="translate(-163.57 -31.21)"/><path class="cls-54" d="M604.4,399.8h-1.92V385.71h1.79v1.63a4.64,4.64,0,0,1,1.53-1.37,4.31,4.31,0,0,1,1.93-.46v2a3.75,3.75,0,0,0-2.56,1,4.16,4.16,0,0,0-.77,2.81Z" transform="translate(-163.57 -31.21)"/><path class="cls-54" d="M624.94,397.57a6,6,0,0,1-2.4,1.91,7.75,7.75,0,0,1-3.26.69,7.43,7.43,0,0,1-5.42-2.12,7.42,7.42,0,0,1,0-10.52,7.67,7.67,0,0,1,5.53-2.13,7.37,7.37,0,0,1,3.13.66,6.19,6.19,0,0,1,2.37,1.9v-2.25h1.86V399.8h-1.86Zm0-4.9a5.73,5.73,0,0,0-5.55-5.58,5.52,5.52,0,0,0-4.05,1.67,5.62,5.62,0,0,0-1.67,4.14,5.32,5.32,0,0,0,1.67,4,5.54,5.54,0,0,0,4,1.62,5.33,5.33,0,0,0,3.93-1.71A5.68,5.68,0,0,0,624.94,392.67Z" transform="translate(-163.57 -31.21)"/><path class="cls-54" d="M187.69,302.79h15.25l24.11,58.88H207l-2.1-5.3H185.69l-2.1,5.3h-20Zm11.91,40.6-4.29-10.33L191,343.39Z" transform="translate(-163.57 -31.21)"/><path class="cls-54" d="M264.23,322.82a12,12,0,0,0-4.29-2.16,18.07,18.07,0,0,0-5.05-.75,13.36,13.36,0,0,0-5.05.93,12.08,12.08,0,0,0-4,2.56,11.69,11.69,0,0,0-2.62,3.93,12.71,12.71,0,0,0-1,4.94,11.88,11.88,0,0,0,3.91,8.87,13.33,13.33,0,0,0,4.24,2.56,14.43,14.43,0,0,0,5.19.93,13.46,13.46,0,0,0,5.91-1.28,14,14,0,0,0,4.57-3.49H250.91l9.51-12.36h24.49v19.6a32.72,32.72,0,0,1-5.24,6.58,33.09,33.09,0,0,1-6.81,5.08,34.21,34.21,0,0,1-8.15,3.27,36.39,36.39,0,0,1-22-1.24,33.69,33.69,0,0,1-10.63-6.53,30.64,30.64,0,0,1-7.15-9.8,28.58,28.58,0,0,1-2.62-12.18,29.55,29.55,0,0,1,2.48-12,30.7,30.7,0,0,1,6.81-9.84,32,32,0,0,1,10.3-6.62,33.66,33.66,0,0,1,12.82-2.43,38.66,38.66,0,0,1,9.25,1,37.22,37.22,0,0,1,6.58,2.21,24.4,24.4,0,0,1,5.24,3.09Z" transform="translate(-163.57 -31.21)"/><path class="cls-54" d="M290.15,302.79h21.92a40.57,40.57,0,0,1,11.29,1.5,27,27,0,0,1,9,4.41,20.48,20.48,0,0,1,6,7.19,21.67,21.67,0,0,1,2.14,9.84,18.88,18.88,0,0,1-1.33,7.5,22.5,22.5,0,0,1-3,5.12,20,20,0,0,1-4.29,3.88l11.91,19.42H320l-9.53-14.92v14.92h-20.3Zm20.3,29h1a11.83,11.83,0,0,0,6.15-1.5,6.28,6.28,0,0,0,0-10.06,11.85,11.85,0,0,0-6.15-1.5h-1Z" transform="translate(-163.57 -31.21)"/><path class="cls-54" d="M343.82,332.27a28.19,28.19,0,0,1,2.62-12,31.19,31.19,0,0,1,7.15-9.84,34,34,0,0,1,10.63-6.62,35.83,35.83,0,0,1,25.93,0,34,34,0,0,1,10.63,6.62,31.24,31.24,0,0,1,7.15,9.84,28.82,28.82,0,0,1,0,24,31.2,31.2,0,0,1-7.15,9.84,34,34,0,0,1-10.63,6.62,35.83,35.83,0,0,1-25.93,0,33.91,33.91,0,0,1-10.63-6.62,31.16,31.16,0,0,1-7.15-9.84,28.17,28.17,0,0,1-2.62-12m20,0a11.22,11.22,0,0,0,1,4.81,12.45,12.45,0,0,0,2.86,3.93,13.6,13.6,0,0,0,4.24,2.65,14.39,14.39,0,0,0,10.39,0,13.6,13.6,0,0,0,4.24-2.65,12.5,12.5,0,0,0,2.86-3.93,11.55,11.55,0,0,0,0-9.62,12.53,12.53,0,0,0-2.86-3.93,13.63,13.63,0,0,0-4.24-2.65,14.37,14.37,0,0,0-10.39,0,13.63,13.63,0,0,0-4.24,2.65,12.48,12.48,0,0,0-2.86,3.93,11.23,11.23,0,0,0-1,4.81" transform="translate(-163.57 -31.21)"/><polygon class="cls-54" points="252.21 271.57 268.98 271.57 285.56 294.17 302.06 271.57 318.83 271.57 318.83 330.45 298.53 330.45 298.53 309.27 285.56 326.92 272.51 309.27 272.51 330.45 252.21 330.45 252.21 271.57"/><rect class="cls-54" x="325.5" y="271.57" width="21.54" height="58.88"/><path class="cls-54" d="M515.86,332.27a29.33,29.33,0,0,1,9.91-22.51,32,32,0,0,1,10.67-6.22,38.52,38.52,0,0,1,13-2.16,43.59,43.59,0,0,1,9.67,1,48.62,48.62,0,0,1,7.29,2.21,35.07,35.07,0,0,1,6.1,3.09l-10,16.33a34.35,34.35,0,0,0-3.34-2,33.47,33.47,0,0,0-3.86-1.37,18,18,0,0,0-5.1-.66,14.78,14.78,0,0,0-5.43,1,14.09,14.09,0,0,0-4.34,2.65,12.18,12.18,0,0,0-2.91,3.93,11.23,11.23,0,0,0-1,4.81,10.82,10.82,0,0,0,1.1,4.81,12.37,12.37,0,0,0,3,3.93,14.38,14.38,0,0,0,4.48,2.65,15.81,15.81,0,0,0,5.62,1,19.13,19.13,0,0,0,5.43-.71,20.76,20.76,0,0,0,4-1.59,14.72,14.72,0,0,0,3.34-2.3l10,16.33a28.79,28.79,0,0,1-6.1,3.44A54.78,54.78,0,0,1,560,362.1a41.12,41.12,0,0,1-9.82,1.06,40.44,40.44,0,0,1-13.73-2.25,32.82,32.82,0,0,1-10.87-6.31,28.67,28.67,0,0,1-7.15-9.76,30.18,30.18,0,0,1-2.57-12.58" transform="translate(-163.57 -31.21)"/><polygon class="cls-54" points="412.24 271.57 432.54 271.57 432.54 291.61 443.88 291.61 443.88 271.57 464.28 271.57 464.28 330.45 443.88 330.45 443.88 308.65 432.54 308.65 432.54 330.45 412.24 330.45 412.24 271.57"/><path class="cls-54" d="M643.54,305.36a6.23,6.23,0,0,1,1.95,4.56,6.07,6.07,0,0,1-1.95,4.52,7.06,7.06,0,0,1-4.83,1.93,6.81,6.81,0,0,1-4.77-1.91,6.21,6.21,0,0,1-2-4.54,6.38,6.38,0,0,1,2-4.59,6.69,6.69,0,0,1,4.73-1.86,6.83,6.83,0,0,1,4.83,1.89m-.51.5a6.18,6.18,0,0,0-4.32-1.69,6,6,0,0,0-4.21,1.66,5.67,5.67,0,0,0-1.82,4.09,5.53,5.53,0,0,0,1.78,4,6.11,6.11,0,0,0,4.24,1.69,6.29,6.29,0,0,0,4.32-1.71,5.28,5.28,0,0,0,1.73-4,5.55,5.55,0,0,0-1.73-4.07m-.89,2.29a1.93,1.93,0,0,1-1.84,1.95l1.74,3.42H640.7L639,310.26h-1.82v3.26h-1.17V306.1h2.86c2.16,0,3.22.63,3.22,2.05m-4.91-1.3v2.67h1.46c1.53,0,2.24-.29,2.24-1.3s-.7-1.37-2.24-1.37Z" transform="translate(-163.57 -31.21)"/><path class="cls-55" d="M163.81,294.49s113.1-34.44,231.94-12.13S627.68,275,627.68,275,514.42,313.31,396,291.33c-116.7-21.67-232.21,3.16-232.21,3.16" transform="translate(-163.57 -31.21)"/><g class="cls-56"><rect class="cls-57" x="230.67" y="203.2" width="4.6" height="51.56"/></g></svg>