<svg width="737" height="185" viewBox="0 0 737 185" fill="none" xmlns="http://www.w3.org/2000/svg">
<path d="M157.398 27.0263C140.01 9.6018 116.854 0 92.2121 0C67.5703 0 44.4141 9.6018 27.0263 27.0263C9.6018 44.4966 0 67.6436 0 92.2121C0 116.781 9.6018 140.01 27.0263 157.398C44.4966 174.822 67.6436 184.424 92.2121 184.424C116.781 184.424 140.01 174.822 157.398 157.398C174.822 139.928 184.424 116.781 184.424 92.2121C184.424 67.6436 174.822 44.4141 157.398 27.0263ZM48.4584 117.514C60.6922 121.568 71.9722 128.528 81.0972 137.626C91.4326 147.961 98.8426 160.782 102.593 174.786C99.2369 175.217 95.8163 175.428 92.1663 175.428C90.7081 175.428 89.4059 175.391 88.2137 175.327C83.6833 165.551 77.4747 156.683 69.7529 148.97C54.9513 134.168 35.4267 124.805 14.6916 122.54C13.5727 119.697 12.6098 116.817 11.8395 113.929C24.1008 112.397 36.7198 113.626 48.4492 117.514H48.4584ZM122.494 34.2162C122.1 38.7924 120.614 47.147 115.203 52.5577C109.976 57.785 101.997 59.3716 96.8526 59.8393C97.2469 55.2631 98.7326 46.9085 104.143 41.4978C109.361 36.2796 117.349 34.6839 122.494 34.2162ZM87.5167 72.3758C82.9405 71.9814 74.5859 70.4957 69.1751 65.085C63.7919 59.7017 62.3246 51.3196 61.9302 46.7343C66.5065 47.1286 74.8702 48.6051 80.281 54.0159C85.4808 59.2432 87.0582 67.2309 87.5259 72.3666L87.5167 72.3758ZM56.4003 97.036C72.44 100.264 87.1132 108.169 98.8334 119.89C112.195 133.251 120.642 150.887 122.687 169.641C119.009 171.099 115.249 172.282 111.489 173.163C107.344 157.297 99.0535 142.816 87.4525 131.225C77.3005 121.073 64.7365 113.342 51.0996 108.848C41.7912 105.785 31.9785 104.226 22.1658 104.226C18.0939 104.226 14.0129 104.492 9.97779 105.033C9.78521 103.786 9.62014 102.52 9.48258 101.245C24.5318 95.3302 40.7274 93.872 56.4003 97.0268V97.036ZM172.557 113.855C171.723 116.937 170.787 119.779 169.714 122.503C153.06 124.337 137.323 130.638 124.035 140.771C121.825 135.883 119.229 131.252 116.322 126.96C132.866 116.029 152.721 111.407 172.557 113.846V113.855ZM141.331 106.638C130.381 109.169 120.155 113.598 110.911 119.789C109.114 117.634 107.197 115.533 105.198 113.534C103.547 111.883 101.731 110.205 99.7872 108.536C122.191 94.2389 150.071 91.5335 174.933 101.3C174.795 102.566 174.63 103.822 174.437 105.051C163.387 103.575 152.253 104.116 141.331 106.638ZM96.7058 99.8147V68.8909C99.5396 68.6983 103.391 68.1939 107.509 66.9558C113.259 65.2317 117.982 62.5263 121.559 58.9314C132.499 47.9907 131.637 30.0985 131.591 29.3465C131.481 27.0446 129.656 25.2196 127.355 25.1096H127.309C127.134 25.1004 126.676 25.0729 125.961 25.0729C121.715 25.0729 107.124 25.7974 97.7788 35.1424C93.8262 39.095 90.9832 44.359 89.305 50.8061C88.4796 49.6873 87.5809 48.651 86.5996 47.6788C77.2546 38.3338 62.6639 37.6093 58.4178 37.6093C57.7209 37.6093 57.2623 37.6368 57.0422 37.646H57.0147C54.7128 37.7561 52.8878 39.5811 52.7778 41.8829C52.7411 42.6441 51.9249 60.5913 62.8106 71.4678C70.2848 78.942 81.1338 80.9321 87.7093 81.4181V99.8239C78.1075 94.0096 67.5703 90.0295 56.3544 87.9844C40.4431 85.1323 24.1191 86.4804 9.00569 91.882C9.18911 46.1565 46.45 9.02404 92.2121 9.02404C137.974 9.02404 175.235 46.1657 175.419 91.8912C149.41 82.6195 120.311 85.5542 96.715 99.8331L96.7058 99.8147ZM131.243 165.679C130.454 160.177 129.17 154.757 127.437 149.539C138.323 140.67 151.281 134.737 165.111 132.27C157.334 146.347 145.43 158.086 131.243 165.679ZM63.3884 155.335C69.0009 160.947 73.733 167.257 77.493 174.116C52.8603 169.714 31.4191 154.307 19.2861 132.279C35.8852 135.278 51.4572 143.403 63.3884 155.335Z" fill="#231A16"/>
<path d="M226.298 16.1957H243.869C262.853 16.1957 275.086 25.6416 275.086 47.0095C275.086 68.3774 262.853 78.3644 244.658 78.3644H226.298V16.1957ZM243.016 67.0476C253.563 67.0476 260.688 61.8753 260.688 47.0095C260.688 32.1437 253.563 27.5124 243.016 27.5124H240.347V67.0476H243.016Z" fill="#231A16"/>
<path d="M286.862 16.1957H300.921V78.3644H286.862V16.1957Z" fill="#231A16"/>
<path d="M315.575 16.1956H337.961C351.149 16.1956 361.952 20.7718 361.952 35.5551C361.952 50.3384 351.139 55.9876 337.961 55.9876H329.625V78.3551H315.566V16.1864L315.575 16.1956ZM336.824 44.8267C344.215 44.8267 348.186 41.6628 348.186 35.5459C348.186 29.429 344.215 27.3472 336.824 27.3472H329.634V44.8267H336.824ZM335.402 52.2826L345.123 43.286L364.96 78.3551H349.232L335.402 52.2826Z" fill="#231A16"/>
<path d="M374.039 16.1956H412.987V27.98H388.089V40.4614H409.282V52.2459H388.089V66.5706H413.941V78.3551H374.039V16.1864V16.1956Z" fill="#231A16"/>
<path d="M423.378 47.6331C423.378 27.008 437.015 15.0493 452.724 15.0493C460.758 15.0493 467.233 18.8277 471.424 23.1196L464.014 32.1345C460.896 29.2273 457.539 27.1823 453.045 27.1823C444.517 27.1823 437.785 34.7023 437.785 47.1654C437.785 59.6285 443.728 67.3686 452.816 67.3686C457.924 67.3686 461.941 64.8558 464.977 61.5543L472.387 70.3766C467.223 76.3835 460.354 79.5015 452.312 79.5015C436.547 79.5015 423.387 68.57 423.387 47.6331H423.378Z" fill="#231A16"/>
<path d="M492.847 27.9801H475.734V16.1957H524.009V27.9801H506.896V78.3552H492.837V27.9801H492.847Z" fill="#231A16"/>
<path d="M528.108 47.0095C528.108 26.6962 539.581 15.0493 556.345 15.0493C573.109 15.0493 584.582 26.7787 584.582 47.0095C584.582 67.2402 573.118 79.5015 556.345 79.5015C539.571 79.5015 528.108 67.3136 528.108 47.0095ZM570.174 47.0095C570.174 34.5464 564.828 27.1823 556.345 27.1823C547.862 27.1823 542.515 34.5372 542.515 47.0095C542.515 59.4817 547.862 67.3686 556.345 67.3686C564.828 67.3686 570.174 59.4726 570.174 47.0095Z" fill="#231A16"/>
<path d="M596.284 16.1956H618.669C631.857 16.1956 642.66 20.7718 642.66 35.5551C642.66 50.3384 631.848 55.9876 618.669 55.9876H610.333V78.3551H596.274V16.1864L596.284 16.1956ZM617.532 44.8267C624.924 44.8267 628.895 41.6628 628.895 35.5459C628.895 29.429 624.924 27.3472 617.532 27.3472H610.342V44.8267H617.532ZM616.111 52.2826L625.832 43.286L645.668 78.3551H629.94L616.111 52.2826Z" fill="#231A16"/>
<path d="M654.757 16.1957H668.816V78.3644H654.757V16.1957Z" fill="#231A16"/>
<path d="M680.526 47.0095C680.526 26.6962 691.99 15.0493 708.763 15.0493C725.537 15.0493 737 26.7787 737 47.0095C737 67.2402 725.527 79.5015 708.763 79.5015C691.999 79.5015 680.526 67.3136 680.526 47.0095ZM722.593 47.0095C722.593 34.5464 717.246 27.1823 708.763 27.1823C700.28 27.1823 694.934 34.5372 694.934 47.0095C694.934 59.4817 700.28 67.3686 708.763 67.3686C717.246 67.3686 722.593 59.4726 722.593 47.0095Z" fill="#231A16"/>
<path d="M237.862 106.069H254.681L274.206 168.238H259.331L251.196 136.755C249.472 130.537 247.812 123.191 246.152 116.707H245.767C244.263 123.274 242.603 130.546 240.879 136.755L232.717 168.238H218.347L237.871 106.069H237.862ZM231.213 142.505H261.128V153.427H231.213V142.505Z" fill="#231A16"/>
<path d="M277.058 137.507C277.058 116.882 290.759 104.923 307.358 104.923C316.382 104.923 322.793 108.775 326.975 112.993L319.565 122.008C316.474 119.165 313.154 117.056 307.826 117.056C298.261 117.056 291.456 124.576 291.456 137.039C291.456 149.502 297.243 157.242 308.945 157.242C311.43 157.242 314.016 156.591 315.529 155.39V144.66H305.231V133.187H328.011V161.846C323.728 166.046 316.171 169.375 307.496 169.375C290.374 169.375 277.049 158.443 277.049 137.507H277.058Z" fill="#231A16"/>
<path d="M340.85 106.069H363.236C376.423 106.069 387.227 110.645 387.227 125.429C387.227 140.212 376.414 145.861 363.236 145.861H354.9V168.229H340.841V106.06L340.85 106.069ZM362.099 134.7C369.49 134.7 373.461 131.536 373.461 125.42C373.461 119.303 369.49 117.221 362.099 117.221H354.909V134.7H362.099ZM360.677 142.156L370.398 133.16L390.235 168.229H374.507L360.677 142.156Z" fill="#231A16"/>
<path d="M399.14 96.3206L415.427 82.9863L422.874 92.0379L405.357 103.345L399.149 96.3206H399.14ZM399.323 106.069H413.382V168.238H399.323V106.069Z" fill="#231A16"/>
<path d="M425.093 137.507C425.093 116.882 438.73 104.923 454.439 104.923C462.473 104.923 468.947 108.701 473.138 112.993L465.728 122.008C462.61 119.101 459.254 117.056 454.76 117.056C446.231 117.056 439.5 124.576 439.5 137.039C439.5 149.502 445.443 157.242 454.531 157.242C459.639 157.242 463.656 154.729 466.691 151.428L474.101 160.25C468.938 166.257 462.069 169.375 454.027 169.375C438.262 169.375 425.093 158.443 425.093 137.507Z" fill="#231A16"/>
<path d="M477.073 136.883C477.073 116.57 488.536 104.923 505.31 104.923C522.083 104.923 533.546 116.652 533.546 136.883C533.546 157.114 522.074 169.375 505.31 169.375C488.545 169.375 477.073 157.187 477.073 136.883ZM519.139 136.883C519.139 124.42 513.793 117.056 505.31 117.056C496.827 117.056 491.48 124.411 491.48 136.883C491.48 149.355 496.827 157.242 505.31 157.242C513.793 157.242 519.139 149.346 519.139 136.883Z" fill="#231A16"/>
<path d="M545.257 106.069H559.316V156.444H583.857V168.229H545.267V106.06L545.257 106.069Z" fill="#231A16"/>
<path d="M605.665 106.069H622.485L642.009 168.238H627.134L619 136.755C617.276 130.537 615.616 123.191 613.956 116.707H613.571C612.067 123.274 610.407 130.546 608.683 136.755L600.52 168.238H586.15L605.674 106.069H605.665ZM599.017 142.505H628.932V153.427H599.017V142.505Z" fill="#231A16"/>
</svg>
