<svg width="185" height="185" viewBox="0 0 185 185" fill="none" xmlns="http://www.w3.org/2000/svg">
<path d="M157.398 27.0263C140.01 9.6018 116.854 0 92.2121 0C67.5703 0 44.4141 9.6018 27.0263 27.0263C9.6018 44.4966 0 67.6436 0 92.2121C0 116.781 9.6018 140.01 27.0263 157.398C44.4966 174.822 67.6436 184.424 92.2121 184.424C116.781 184.424 140.01 174.822 157.398 157.398C174.822 139.928 184.424 116.781 184.424 92.2121C184.424 67.6436 174.822 44.4141 157.398 27.0263ZM48.4584 117.514C60.6922 121.568 71.9722 128.528 81.0972 137.626C91.4326 147.961 98.8426 160.782 102.593 174.786C99.2369 175.217 95.8163 175.428 92.1663 175.428C90.7081 175.428 89.4059 175.391 88.2137 175.327C83.6833 165.551 77.4747 156.683 69.7529 148.97C54.9513 134.168 35.4267 124.805 14.6916 122.54C13.5727 119.697 12.6098 116.817 11.8395 113.929C24.1008 112.397 36.7198 113.626 48.4492 117.514H48.4584ZM122.494 34.2162C122.1 38.7924 120.614 47.147 115.203 52.5577C109.976 57.785 101.997 59.3716 96.8526 59.8393C97.2469 55.2631 98.7326 46.9085 104.143 41.4978C109.361 36.2796 117.349 34.6839 122.494 34.2162ZM87.5167 72.3758C82.9405 71.9814 74.5859 70.4957 69.1751 65.085C63.7919 59.7017 62.3246 51.3196 61.9302 46.7343C66.5065 47.1286 74.8702 48.6051 80.281 54.0159C85.4808 59.2432 87.0582 67.2309 87.5259 72.3666L87.5167 72.3758ZM56.4003 97.036C72.44 100.264 87.1132 108.169 98.8334 119.89C112.195 133.251 120.642 150.887 122.687 169.641C119.009 171.099 115.249 172.282 111.489 173.163C107.344 157.297 99.0535 142.816 87.4525 131.225C77.3005 121.073 64.7365 113.342 51.0996 108.848C41.7912 105.785 31.9785 104.226 22.1658 104.226C18.0939 104.226 14.0129 104.492 9.97779 105.033C9.78521 103.786 9.62014 102.52 9.48258 101.245C24.5318 95.3302 40.7274 93.872 56.4003 97.0268V97.036ZM172.557 113.855C171.723 116.937 170.787 119.779 169.714 122.503C153.06 124.337 137.323 130.638 124.035 140.771C121.825 135.883 119.229 131.252 116.322 126.96C132.866 116.029 152.721 111.407 172.557 113.846V113.855ZM141.331 106.638C130.381 109.169 120.155 113.598 110.911 119.789C109.114 117.634 107.197 115.533 105.198 113.534C103.547 111.883 101.731 110.205 99.7872 108.536C122.191 94.2389 150.071 91.5335 174.933 101.3C174.795 102.566 174.63 103.822 174.437 105.051C163.387 103.575 152.253 104.116 141.331 106.638ZM96.7058 99.8147V68.8909C99.5396 68.6983 103.391 68.1939 107.509 66.9558C113.259 65.2317 117.982 62.5263 121.559 58.9314C132.499 47.9907 131.637 30.0985 131.591 29.3465C131.481 27.0446 129.656 25.2196 127.355 25.1096H127.309C127.134 25.1004 126.676 25.0729 125.961 25.0729C121.715 25.0729 107.124 25.7974 97.7788 35.1424C93.8262 39.095 90.9832 44.359 89.305 50.8061C88.4796 49.6873 87.5809 48.651 86.5996 47.6788C77.2546 38.3338 62.6639 37.6093 58.4178 37.6093C57.7209 37.6093 57.2623 37.6368 57.0422 37.646H57.0147C54.7128 37.7561 52.8878 39.5811 52.7778 41.8829C52.7411 42.6441 51.9249 60.5913 62.8106 71.4678C70.2848 78.942 81.1338 80.9321 87.7093 81.4181V99.8239C78.1075 94.0096 67.5703 90.0295 56.3544 87.9844C40.4431 85.1323 24.1191 86.4804 9.00569 91.882C9.18911 46.1565 46.45 9.02404 92.2121 9.02404C137.974 9.02404 175.235 46.1657 175.419 91.8912C149.41 82.6195 120.311 85.5542 96.715 99.8331L96.7058 99.8147ZM131.243 165.679C130.454 160.177 129.17 154.757 127.437 149.539C138.323 140.67 151.281 134.737 165.111 132.27C157.334 146.347 145.43 158.086 131.243 165.679ZM63.3884 155.335C69.0009 160.947 73.733 167.257 77.493 174.116C52.8603 169.714 31.4191 154.307 19.2861 132.279C35.8852 135.278 51.4572 143.403 63.3884 155.335Z" fill="#231A16"/>
</svg>
