<?xml version="1.0" standalone="no"?>
<!DOCTYPE svg PUBLIC "-//W3C//DTD SVG 20010904//EN"
 "http://www.w3.org/TR/2001/REC-SVG-20010904/DTD/svg10.dtd">
<svg version="1.0" xmlns="http://www.w3.org/2000/svg"
 width="700.000000pt" height="700.000000pt" viewBox="0 0 700.000000 700.000000"
 preserveAspectRatio="xMidYMid meet">
<metadata>
Created by potrace 1.14, written by Peter Selinger 2001-2017
</metadata>
<g transform="translate(0.000000,700.000000) scale(0.100000,-0.100000)"
fill="#000000" stroke="none">
<path d="M3279 6996 c-2 -2 -43 -6 -91 -9 -154 -11 -397 -52 -568 -96 -462
-119 -884 -327 -1269 -624 -217 -168 -450 -401 -621 -622 -142 -182 -293 -428
-393 -637 -41 -86 -136 -315 -142 -342 -1 -6 -5 -18 -8 -26 -43 -99 -138 -500
-153 -642 -3 -35 -8 -65 -9 -68 -10 -18 -20 -229 -20 -430 1 -261 10 -376 45
-580 5 -30 12 -71 15 -90 3 -19 8 -43 11 -52 3 -9 7 -26 9 -37 17 -89 89 -331
140 -466 55 -150 175 -402 242 -507 12 -21 23 -40 23 -42 0 -11 168 -256 232
-339 267 -345 561 -608 963 -863 161 -101 434 -229 660 -309 110 -39 377 -112
475 -130 237 -43 418 -59 655 -59 346 -1 563 25 877 104 373 94 712 244 1043
459 317 207 631 497 855 791 19 25 39 50 45 56 17 20 107 153 157 234 105 166
226 410 295 590 42 109 107 314 118 370 2 8 10 43 19 77 26 98 48 223 62 338
3 28 7 56 9 63 25 76 25 618 0 807 -15 115 -28 199 -50 315 -14 73 -71 281
-109 395 -116 347 -287 672 -509 968 -55 73 -102 134 -105 137 -4 3 -32 34
-62 70 -261 310 -646 613 -1030 812 -360 187 -783 317 -1180 363 -30 4 -68 8
-85 11 -37 6 -541 15 -546 10z m496 -349 c17 -3 57 -7 90 -11 383 -43 818
-185 1158 -377 765 -434 1320 -1162 1521 -1994 34 -139 37 -153 42 -190 3 -16
9 -52 14 -80 27 -148 47 -465 29 -465 -5 0 -35 9 -67 19 -151 50 -385 108
-507 125 -23 4 -50 8 -60 10 -11 2 -47 7 -80 11 -32 4 -68 9 -80 11 -137 27
-672 20 -820 -11 -11 -2 -42 -7 -70 -10 -41 -5 -178 -31 -267 -50 -286 -62
-644 -201 -946 -370 -35 -19 -66 -35 -68 -35 -2 0 -3 262 -2 583 3 574 3 582
23 583 31 2 148 16 165 19 135 29 172 38 217 51 130 38 339 139 410 199 219
184 318 326 403 575 69 201 95 359 95 570 0 113 -2 129 -23 162 -14 22 -41 45
-68 59 -43 20 -55 21 -187 16 -78 -3 -153 -8 -167 -11 -24 -5 -42 -8 -125 -21
-187 -29 -447 -138 -590 -247 -185 -140 -327 -346 -407 -593 l-30 -94 -35 42
c-222 272 -626 440 -1090 452 -103 2 -118 0 -162 -21 -73 -37 -94 -82 -93
-203 0 -147 12 -249 48 -411 61 -271 167 -476 333 -641 98 -97 173 -151 302
-216 139 -69 357 -133 508 -150 31 -3 63 -7 71 -9 8 -1 25 -3 37 -3 l22 -1 0
-345 c-1 -190 -3 -345 -6 -345 -3 0 -44 22 -92 49 -381 214 -824 362 -1251
416 -30 4 -64 9 -74 11 -89 17 -437 23 -622 11 -97 -6 -278 -27 -354 -42 -14
-3 -38 -7 -55 -10 -155 -30 -376 -88 -468 -124 -59 -23 -59 -23 -53 117 4 70
8 138 11 152 2 14 7 52 10 85 5 50 29 192 50 296 59 296 224 699 404 984 273
433 637 789 1073 1047 134 79 421 218 451 218 7 0 17 4 22 9 32 28 391 128
575 160 156 27 174 29 276 37 49 3 91 8 92 9 5 4 429 -3 467 -8z m851 -1006
c-16 -177 -97 -405 -191 -536 -119 -167 -321 -286 -578 -340 -90 -20 -201 -30
-195 -19 3 5 9 36 13 69 12 108 52 255 97 360 125 285 363 451 742 514 61 11
113 20 115 20 2 1 1 -30 -3 -68z m-2151 -426 c144 -22 324 -88 439 -162 214
-138 355 -404 392 -740 l6 -52 -33 4 c-378 48 -630 182 -767 409 -74 122 -141
319 -158 466 -3 30 -8 63 -10 73 -3 19 13 19 131 2z m-640 -1840 c204 -27 268
-39 405 -71 360 -85 702 -235 1015 -444 86 -58 127 -88 236 -172 87 -67 297
-270 392 -378 70 -79 234 -301 297 -400 70 -112 197 -360 248 -485 91 -227
157 -465 195 -705 23 -148 28 -138 -93 -180 -149 -52 -298 -93 -310 -85 -5 3
-10 13 -10 21 0 26 -105 335 -150 439 -85 201 -207 427 -323 600 -47 69 -167
231 -194 260 -10 11 -40 47 -67 80 -28 33 -106 116 -175 185 -381 379 -833
659 -1338 830 -131 44 -334 99 -417 114 -16 3 -52 10 -80 15 -61 12 -103 19
-171 27 -27 3 -61 7 -75 10 -143 24 -509 23 -782 -2 -61 -6 -67 -4 -66 12 0
11 -2 42 -6 70 l-6 50 52 22 c121 50 388 125 513 145 17 3 57 10 90 16 73 13
116 18 220 27 44 3 82 8 84 10 6 6 468 -4 516 -11z m3880 0 c61 -4 112 -8 115
-10 3 -2 34 -6 70 -10 36 -4 67 -8 70 -10 3 -2 29 -6 59 -10 30 -4 64 -10 75
-15 12 -4 23 -7 26 -7 26 2 289 -72 404 -114 l86 -32 -5 -36 c-3 -20 -7 -47
-10 -61 -2 -14 -4 -29 -4 -34 -1 -4 -31 -5 -68 -2 -175 17 -220 19 -388 19
-313 1 -565 -30 -857 -103 -370 -94 -709 -239 -1022 -438 l-69 -44 -45 54
c-25 29 -119 126 -209 215 l-164 161 88 52 c72 41 286 150 378 191 130 58 457
158 600 184 196 35 264 44 390 51 55 3 101 7 102 8 5 4 276 -2 378 -9z m-4677
-669 c68 -4 131 -9 140 -11 9 -1 42 -6 72 -9 53 -6 88 -11 140 -21 14 -3 41
-7 60 -10 55 -9 293 -73 389 -104 839 -277 1536 -915 1891 -1731 69 -158 155
-419 143 -431 -16 -15 -474 -35 -523 -22 -8 2 -37 50 -65 105 -245 496 -655
966 -1125 1290 -394 272 -823 454 -1295 552 -125 25 -151 30 -248 41 -38 5
-61 13 -66 24 -11 19 -86 245 -95 284 -5 21 -3 27 11 28 10 1 29 3 43 5 14 2
88 6 165 10 77 4 141 7 142 8 3 2 95 -1 221 -8z m5353 0 c47 -4 95 -9 105 -11
11 -2 22 -4 26 -4 8 -1 -25 -121 -67 -236 l-32 -90 -84 -11 c-116 -16 -139
-20 -276 -49 -143 -30 -400 -106 -480 -141 -17 -8 -37 -14 -45 -14 -8 0 -18
-4 -23 -8 -6 -5 -41 -21 -80 -37 -177 -72 -468 -235 -637 -356 -53 -38 -100
-69 -103 -69 -3 0 -24 39 -46 86 -42 89 -149 278 -211 375 l-36 55 76 49 c167
106 419 226 631 299 104 36 345 102 411 112 19 3 53 9 75 14 22 5 69 12 105
15 36 4 71 8 78 11 7 2 64 7 125 10 62 4 113 8 114 9 6 4 295 -3 374 -9z
m-5516 -742 c11 -3 31 -7 45 -10 72 -14 278 -80 408 -130 136 -52 417 -197
542 -278 257 -167 480 -359 660 -566 30 -34 60 -68 66 -74 58 -61 238 -321
304 -440 29 -50 31 -58 14 -53 -10 4 -64 16 -118 28 -763 163 -1476 653 -1921
1319 -46 69 -97 151 -115 182 l-31 56 63 -15 c35 -8 72 -17 83 -19z m5344 -16
c-55 -108 -237 -366 -344 -487 -55 -64 -270 -279 -326 -327 -117 -101 -234
-189 -355 -266 -55 -35 -109 -69 -119 -76 -40 -25 -105 -56 -109 -51 -3 2 -7
25 -10 49 -14 114 -81 397 -121 509 l-14 41 57 45 c206 163 506 336 756 435
153 60 395 134 510 154 16 3 30 7 32 8 2 2 17 5 34 6 l31 2 -22 -42z"/>
</g>
</svg>
